<svg width="24" height="20" viewBox="0 0 24 20" fill="none" xmlns="http://www.w3.org/2000/svg">
<g clip-path="url(#clip0_222_842)">
<path d="M13.0213 12.3076H4.85106C2.17532 12.3076 0 14.4922 0 17.1794V19.2307C0 19.6512 0.347234 19.9999 0.765957 19.9999C1.18468 19.9999 1.53191 19.6512 1.53191 19.2307V17.1794C1.53191 15.3435 3.02298 13.8461 4.85106 13.8461H13.0213C14.8494 13.8461 16.3404 15.3435 16.3404 17.1794V19.2307C16.3404 19.6512 16.6877 19.9999 17.1064 19.9999C17.5251 19.9999 17.8723 19.6512 17.8723 19.2307V17.1794C17.8723 14.4922 15.697 12.3076 13.0213 12.3076Z" fill="#313131"/>
<path d="M8.93602 9.74359C11.6118 9.74359 13.7871 7.55897 13.7871 4.87179C13.7871 2.18462 11.6118 0 8.93602 0C6.26028 0 4.08496 2.18462 4.08496 4.87179C4.08496 7.55897 6.26028 9.74359 8.93602 9.74359ZM8.93602 1.53846C10.7641 1.53846 12.2552 3.0359 12.2552 4.87179C12.2552 6.70769 10.7641 8.20513 8.93602 8.20513C7.10794 8.20513 5.61688 6.70769 5.61688 4.87179C5.61688 3.0359 7.10794 1.53846 8.93602 1.53846Z" fill="#313131"/>
<path d="M20.3641 12.4617C19.9556 12.3592 19.5369 12.6053 19.4348 13.0156C19.3326 13.4258 19.5777 13.8463 19.9863 13.9489C21.4467 14.3284 22.4782 15.6515 22.4782 17.1694V19.2207C22.4782 19.6412 22.8254 19.9899 23.2441 19.9899C23.6629 19.9899 24.0101 19.6412 24.0101 19.2207V17.1694C24.0101 14.9438 22.5088 13.0156 20.3743 12.4515L20.3641 12.4617Z" fill="#313131"/>
<path d="M16.2792 0.15362C15.8809 0.0510558 15.4519 0.29721 15.3498 0.707466C15.2477 1.11772 15.4928 1.53824 15.9013 1.6408C17.6783 2.09208 18.7507 3.91772 18.2911 5.69208C17.9949 6.87157 17.0758 7.79465 15.9013 8.09208C15.4928 8.19465 15.2477 8.61516 15.3498 9.02542C15.4417 9.37413 15.7481 9.59977 16.0953 9.59977C16.1566 9.59977 16.2179 9.59977 16.2894 9.57926C18.0051 9.13824 19.343 7.79465 19.7822 6.07157C20.446 3.46644 18.8732 0.81003 16.2894 0.143363L16.2792 0.15362Z" fill="#313131"/>
</g>
<defs>
<clipPath id="clip0_222_842">
<rect width="24" height="20" fill="white"/>
</clipPath>
</defs>
</svg>
