<?xml version="1.0" encoding="UTF-8"?>
<svg id="Calque_2" xmlns="http://www.w3.org/2000/svg" viewBox="0 0 85.08 38.97">
  <defs>
    <style>
      .cls-1 {
        fill: #222221;
      }
    </style>
  </defs>
  <g id="Elements">
    <path class="cls-1" d="M81.66,14c-1.36,2.01-2.74,3.97-4,6.04-.2.33-2.58,4.44-2.78,4.1-2.53-4.35-4.3-8-8.2-11.44-3.77-3.32-8.25-5.93-12.87-7.87C45.28,1.25,36.12-.31,26.89.05,18.98.35,9.72,2.25,3.7,7.78c-1.13,1.04-5.69,6.94-2.69,8.19,1.4.58,1.82-1.23,2.51-2.14,1.41-1.87,3.23-3.12,5.28-4.26,15.14-8.4,38.15-2.29,50.92,7.7,3.42,2.67,6.4,5.89,8.14,9.93.38.89,1.92,4.08,1.24,4.75-.65.65-5.51-1.86-6.48-2.18-3.47-1.14-7.87-3.04-11.56-3.03-1.66,0-3.17.5-3.32,2.37-.18,2.24,2.06,2.9,3.69,3.61,4.59,1.99,9.55,3.18,14.34,4.63,4.36,1.32,8.39,3.48,10.93-1.33,2.55-4.82,4.45-10.13,6.49-15.18.57-1.41,2.53-5.03,1.71-6.75-1.21-2.53-2.29.57-3.22-.07-1.21,1.79.05.04,0,0Z"/>
  </g>
</svg>