<svg width="22" height="24" viewBox="0 0 22 24" fill="none" xmlns="http://www.w3.org/2000/svg">
<path d="M18.8974 2.23256H16.359V0.837209C16.359 0.379535 15.9754 0 15.5128 0C15.0503 0 14.6667 0.379535 14.6667 0.837209V2.23256H7.33333V0.837209C7.33333 0.379535 6.94974 0 6.48718 0C6.02462 0 5.64103 0.379535 5.64103 0.837209V2.23256H3.10256C1.38769 2.23256 0 3.60558 0 5.30233V20.9302C0 22.627 1.38769 24 3.10256 24H18.8974C20.6123 24 22 22.627 22 20.9302V5.30233C22 3.60558 20.6123 2.23256 18.8974 2.23256ZM3.10256 3.90698H5.64103V5.30233C5.64103 5.76 6.02462 6.13953 6.48718 6.13953C6.94974 6.13953 7.33333 5.76 7.33333 5.30233V3.90698H14.6667V5.30233C14.6667 5.76 15.0503 6.13953 15.5128 6.13953C15.9754 6.13953 16.359 5.76 16.359 5.30233V3.90698H18.8974C19.6759 3.90698 20.3077 4.53209 20.3077 5.30233V8.93023H1.69231V5.30233C1.69231 4.53209 2.3241 3.90698 3.10256 3.90698ZM18.8974 22.3256H3.10256C2.3241 22.3256 1.69231 21.7005 1.69231 20.9302V10.6047H20.3077V20.9302C20.3077 21.7005 19.6759 22.3256 18.8974 22.3256Z" fill="#8896AB"/>
</svg>
