<svg width="199" height="149" viewBox="0 0 199 149" fill="none" xmlns="http://www.w3.org/2000/svg">
<g clip-path="url(#clip0_222_736)">
<path d="M198.979 2.75063C198.979 1.29259 197.797 0.110626 196.339 0.110626C194.881 0.110626 193.699 1.29259 193.699 2.75063C193.699 4.20866 194.881 5.39062 196.339 5.39062C197.797 5.39062 198.979 4.20866 198.979 2.75063Z" fill="#0BDA4E"/>
<path d="M198.979 26.6901C198.979 25.232 197.797 24.0501 196.339 24.0501C194.881 24.0501 193.699 25.232 193.699 26.6901C193.699 28.1481 194.881 29.3301 196.339 29.3301C197.797 29.3301 198.979 28.1481 198.979 26.6901Z" fill="#0BDA4E"/>
<path d="M198.98 50.6198C198.982 50.0952 198.828 49.5819 198.538 49.1448C198.248 48.7077 197.835 48.3664 197.351 48.1643C196.867 47.9622 196.334 47.9083 195.819 48.0094C195.304 48.1105 194.831 48.3621 194.459 48.7323C194.088 49.1025 193.834 49.5747 193.731 50.089C193.628 50.6033 193.68 51.1367 193.88 51.6215C194.081 52.1063 194.42 52.5207 194.856 52.8124C195.292 53.104 195.805 53.2598 196.33 53.2598C197.031 53.2598 197.703 52.9819 198.2 52.4871C198.697 51.9922 198.977 51.3208 198.98 50.6198Z" fill="#0BDA4E"/>
<path d="M198.98 74.5502C198.98 74.0261 198.824 73.5137 198.533 73.0779C198.242 72.6421 197.828 72.3025 197.344 72.1019C196.86 71.9014 196.327 71.8489 195.813 71.9512C195.299 72.0534 194.826 72.3058 194.456 72.6764C194.085 73.047 193.833 73.5192 193.731 74.0332C193.628 74.5473 193.681 75.0801 193.881 75.5643C194.082 76.0486 194.422 76.4624 194.857 76.7535C195.293 77.0447 195.806 77.2002 196.33 77.2002C196.678 77.2002 197.022 77.1317 197.344 76.9985C197.665 76.8654 197.957 76.6701 198.204 76.4241C198.45 76.178 198.645 75.8858 198.778 75.5643C198.911 75.2428 198.98 74.8982 198.98 74.5502Z" fill="#0BDA4E"/>
<path d="M198.979 98.4899C198.979 97.0319 197.797 95.8499 196.339 95.8499C194.881 95.8499 193.699 97.0319 193.699 98.4899C193.699 99.9479 194.881 101.13 196.339 101.13C197.797 101.13 198.979 99.9479 198.979 98.4899Z" fill="#0BDA4E"/>
<path d="M198.665 121.41C198.11 120.061 196.567 119.418 195.219 119.972C193.87 120.527 193.227 122.069 193.781 123.418C194.336 124.766 195.878 125.41 197.227 124.855C198.575 124.301 199.219 122.758 198.665 121.41Z" fill="#0BDA4E"/>
<path d="M193.73 146.35C193.728 146.875 193.882 147.388 194.172 147.826C194.462 148.263 194.876 148.604 195.361 148.806C195.845 149.008 196.379 149.061 196.894 148.959C197.409 148.857 197.882 148.605 198.253 148.234C198.625 147.862 198.877 147.389 198.979 146.874C199.081 146.359 199.028 145.826 198.826 145.341C198.624 144.856 198.283 144.443 197.846 144.152C197.408 143.862 196.894 143.708 196.37 143.71C195.67 143.712 195 143.991 194.506 144.486C194.011 144.98 193.732 145.65 193.73 146.35Z" fill="#0BDA4E"/>
<path d="M177.569 2.75063C177.569 1.29259 176.387 0.110626 174.929 0.110626C173.471 0.110626 172.289 1.29259 172.289 2.75063C172.289 4.20866 173.471 5.39062 174.929 5.39062C176.387 5.39062 177.569 4.20866 177.569 2.75063Z" fill="#0BDA4E"/>
<path d="M177.569 26.6901C177.569 25.232 176.387 24.0501 174.929 24.0501C173.471 24.0501 172.289 25.232 172.289 26.6901C172.289 28.1481 173.471 29.3301 174.929 29.3301C176.387 29.3301 177.569 28.1481 177.569 26.6901Z" fill="#0BDA4E"/>
<path d="M177.57 50.6197C177.572 50.0948 177.418 49.581 177.127 49.1437C176.837 48.7063 176.423 48.3651 175.938 48.1633C175.454 47.9615 174.92 47.9082 174.405 48.0101C173.89 48.112 173.417 48.3646 173.046 48.7358C172.674 49.107 172.422 49.5802 172.32 50.0952C172.218 50.6102 172.271 51.1438 172.473 51.6284C172.675 52.113 173.016 52.5268 173.454 52.8172C173.891 53.1077 174.405 53.2617 174.93 53.2597C175.629 53.2571 176.299 52.978 176.793 52.4835C177.288 51.989 177.567 51.3191 177.57 50.6197Z" fill="#0BDA4E"/>
<path d="M177.57 74.5502C177.57 74.0256 177.414 73.5129 177.122 73.0769C176.831 72.6409 176.416 72.3012 175.931 72.1009C175.446 71.9007 174.913 71.8488 174.399 71.9519C173.885 72.0549 173.412 72.3083 173.042 72.6799C172.672 73.0515 172.42 73.5247 172.319 74.0394C172.218 74.5541 172.272 75.0872 172.474 75.5713C172.676 76.0553 173.017 76.4684 173.455 76.7584C173.892 77.0484 174.405 77.2022 174.93 77.2002C175.277 77.2002 175.621 77.1316 175.942 76.9983C176.263 76.865 176.555 76.6696 176.8 76.4234C177.045 76.1772 177.239 75.885 177.371 75.5636C177.504 75.2421 177.571 74.8977 177.57 74.5502Z" fill="#0BDA4E"/>
<path d="M177.569 98.4899C177.569 97.0319 176.387 95.8499 174.929 95.8499C173.471 95.8499 172.289 97.0319 172.289 98.4899C172.289 99.9479 173.471 101.13 174.929 101.13C176.387 101.13 177.569 99.9479 177.569 98.4899Z" fill="#0BDA4E"/>
<path d="M177.262 121.408C176.708 120.059 175.165 119.416 173.817 119.97C172.468 120.525 171.824 122.067 172.379 123.416C172.933 124.764 174.476 125.408 175.825 124.854C177.173 124.299 177.817 122.756 177.262 121.408Z" fill="#0BDA4E"/>
<path d="M177.57 146.35C177.57 145.825 177.414 145.313 177.122 144.877C176.831 144.441 176.416 144.101 175.931 143.901C175.446 143.7 174.913 143.649 174.399 143.752C173.885 143.855 173.412 144.108 173.042 144.48C172.672 144.851 172.42 145.324 172.319 145.839C172.218 146.354 172.272 146.887 172.474 147.371C172.676 147.855 173.017 148.268 173.455 148.558C173.892 148.848 174.405 149.002 174.93 149C175.277 149 175.621 148.931 175.942 148.798C176.263 148.665 176.555 148.469 176.8 148.223C177.045 147.977 177.239 147.685 177.371 147.363C177.504 147.042 177.571 146.697 177.57 146.35Z" fill="#0BDA4E"/>
<path d="M156.159 2.75063C156.159 1.29259 154.977 0.110626 153.519 0.110626C152.061 0.110626 150.879 1.29259 150.879 2.75063C150.879 4.20866 152.061 5.39062 153.519 5.39062C154.977 5.39062 156.159 4.20866 156.159 2.75063Z" fill="#0BDA4E"/>
<path d="M156.159 26.6901C156.159 25.232 154.977 24.0501 153.519 24.0501C152.061 24.0501 150.879 25.232 150.879 26.6901C150.879 28.1481 152.061 29.3301 153.519 29.3301C154.977 29.3301 156.159 28.1481 156.159 26.6901Z" fill="#0BDA4E"/>
<path d="M156.169 50.6198C156.171 50.0952 156.017 49.5819 155.727 49.1448C155.437 48.7077 155.024 48.3664 154.54 48.1643C154.056 47.9622 153.523 47.9083 153.008 48.0094C152.494 48.1105 152.02 48.3621 151.649 48.7323C151.277 49.1025 151.024 49.5747 150.921 50.089C150.818 50.6033 150.87 51.1367 151.07 51.6215C151.27 52.1063 151.61 52.5207 152.046 52.8124C152.482 53.104 152.995 53.2598 153.519 53.2598C154.22 53.2598 154.893 52.9819 155.389 52.4871C155.886 51.9922 156.167 51.3208 156.169 50.6198Z" fill="#0BDA4E"/>
<path d="M156.169 74.5502C156.169 74.0261 156.014 73.5137 155.723 73.0779C155.431 72.6421 155.018 72.3025 154.533 72.1019C154.049 71.9014 153.516 71.8489 153.002 71.9512C152.488 72.0534 152.016 72.3058 151.645 72.6764C151.275 73.047 151.022 73.5192 150.92 74.0332C150.818 74.5473 150.87 75.0801 151.071 75.5643C151.271 76.0486 151.611 76.4624 152.047 76.7535C152.483 77.0447 152.995 77.2002 153.519 77.2002C153.867 77.2002 154.212 77.1317 154.533 76.9985C154.855 76.8654 155.147 76.6701 155.393 76.4241C155.639 76.178 155.834 75.8858 155.967 75.5643C156.101 75.2428 156.169 74.8982 156.169 74.5502Z" fill="#0BDA4E"/>
<path d="M156.159 98.4899C156.159 97.0319 154.977 95.8499 153.519 95.8499C152.061 95.8499 150.879 97.0319 150.879 98.4899C150.879 99.9479 152.061 101.13 153.519 101.13C154.977 101.13 156.159 99.9479 156.159 98.4899Z" fill="#0BDA4E"/>
<path d="M155.861 121.409C155.306 120.06 153.764 119.417 152.415 119.971C151.067 120.526 150.423 122.068 150.978 123.417C151.532 124.765 153.075 125.409 154.423 124.855C155.772 124.3 156.415 122.757 155.861 121.409Z" fill="#0BDA4E"/>
<path d="M156.169 146.35C156.169 145.826 156.014 145.313 155.723 144.878C155.431 144.442 155.018 144.102 154.533 143.902C154.049 143.701 153.516 143.649 153.002 143.751C152.488 143.853 152.016 144.105 151.645 144.476C151.275 144.847 151.022 145.319 150.92 145.833C150.818 146.347 150.87 146.88 151.071 147.364C151.271 147.848 151.611 148.262 152.047 148.553C152.483 148.845 152.995 149 153.519 149C154.222 149 154.896 148.721 155.393 148.224C155.89 147.727 156.169 147.053 156.169 146.35Z" fill="#0BDA4E"/>
<path d="M134.759 2.75063C134.759 1.29259 133.578 0.110626 132.119 0.110626C130.661 0.110626 129.479 1.29259 129.479 2.75063C129.479 4.20866 130.661 5.39062 132.119 5.39062C133.578 5.39062 134.759 4.20866 134.759 2.75063Z" fill="#0BDA4E"/>
<path d="M134.759 26.6901C134.759 25.232 133.578 24.0501 132.119 24.0501C130.661 24.0501 129.479 25.232 129.479 26.6901C129.479 28.1481 130.661 29.3301 132.119 29.3301C133.578 29.3301 134.759 28.1481 134.759 26.6901Z" fill="#0BDA4E"/>
<path d="M134.73 50.6197C134.732 50.0948 134.578 49.581 134.287 49.1437C133.997 48.7063 133.583 48.3651 133.098 48.1633C132.614 47.9615 132.08 47.9082 131.565 48.0101C131.05 48.112 130.577 48.3646 130.206 48.7358C129.835 49.107 129.582 49.5802 129.48 50.0952C129.378 50.6102 129.432 51.1438 129.633 51.6284C129.835 52.113 130.176 52.5268 130.614 52.8172C131.051 53.1077 131.565 53.2617 132.09 53.2597C132.789 53.2571 133.459 52.978 133.954 52.4835C134.448 51.989 134.727 51.3191 134.73 50.6197Z" fill="#0BDA4E"/>
<path d="M134.73 74.5502C134.73 74.0256 134.574 73.5129 134.282 73.0769C133.991 72.6409 133.576 72.3012 133.092 72.1009C132.607 71.9007 132.073 71.8488 131.559 71.9519C131.045 72.0549 130.573 72.3083 130.202 72.6799C129.832 73.0515 129.581 73.5247 129.479 74.0394C129.378 74.5541 129.432 75.0872 129.634 75.5713C129.836 76.0553 130.178 76.4684 130.615 76.7584C131.052 77.0484 131.565 77.2022 132.09 77.2002C132.437 77.2002 132.781 77.1316 133.102 76.9983C133.423 76.865 133.715 76.6696 133.96 76.4234C134.205 76.1772 134.4 75.885 134.532 75.5636C134.664 75.2421 134.731 74.8977 134.73 74.5502Z" fill="#0BDA4E"/>
<path d="M134.759 98.4899C134.759 97.0319 133.578 95.8499 132.119 95.8499C130.661 95.8499 129.479 97.0319 129.479 98.4899C129.479 99.9479 130.661 101.13 132.119 101.13C133.578 101.13 134.759 99.9479 134.759 98.4899Z" fill="#0BDA4E"/>
<path d="M134.459 121.406C133.904 120.057 132.361 119.414 131.013 119.968C129.664 120.523 129.021 122.065 129.575 123.414C130.13 124.762 131.672 125.406 133.021 124.852C134.369 124.297 135.013 122.754 134.459 121.406Z" fill="#0BDA4E"/>
<path d="M134.73 146.35C134.73 145.825 134.574 145.313 134.282 144.877C133.991 144.441 133.576 144.101 133.092 143.901C132.607 143.7 132.073 143.649 131.559 143.752C131.045 143.855 130.573 144.108 130.202 144.48C129.832 144.851 129.581 145.324 129.479 145.839C129.378 146.354 129.432 146.887 129.634 147.371C129.836 147.855 130.178 148.268 130.615 148.558C131.052 148.848 131.565 149.002 132.09 149C132.437 149 132.781 148.931 133.102 148.798C133.423 148.665 133.715 148.469 133.96 148.223C134.205 147.977 134.4 147.685 134.532 147.363C134.664 147.042 134.731 146.697 134.73 146.35Z" fill="#0BDA4E"/>
<path d="M113.349 2.75063C113.349 1.29259 112.167 0.110626 110.709 0.110626C109.251 0.110626 108.069 1.29259 108.069 2.75063C108.069 4.20866 109.251 5.39062 110.709 5.39062C112.167 5.39062 113.349 4.20866 113.349 2.75063Z" fill="#0BDA4E"/>
<path d="M113.349 26.6901C113.349 25.232 112.167 24.0501 110.709 24.0501C109.251 24.0501 108.069 25.232 108.069 26.6901C108.069 28.1481 109.251 29.3301 110.709 29.3301C112.167 29.3301 113.349 28.1481 113.349 26.6901Z" fill="#0BDA4E"/>
<path d="M113.36 50.6198C113.362 50.0952 113.208 49.5819 112.918 49.1448C112.628 48.7077 112.215 48.3664 111.731 48.1643C111.247 47.9622 110.713 47.9083 110.199 48.0094C109.684 48.1105 109.211 48.3621 108.839 48.7323C108.468 49.1025 108.214 49.5747 108.111 50.089C108.008 50.6033 108.06 51.1367 108.26 51.6215C108.461 52.1063 108.8 52.5207 109.236 52.8124C109.672 53.104 110.185 53.2598 110.71 53.2598C111.411 53.2598 112.083 52.9819 112.58 52.4871C113.077 51.9922 113.357 51.3208 113.36 50.6198Z" fill="#0BDA4E"/>
<path d="M113.36 74.5502C113.36 74.0261 113.204 73.5137 112.913 73.0779C112.622 72.6421 112.208 72.3025 111.724 72.1019C111.239 71.9014 110.707 71.8489 110.193 71.9512C109.679 72.0534 109.206 72.3058 108.836 72.6764C108.465 73.047 108.213 73.5192 108.11 74.0332C108.008 74.5473 108.061 75.0801 108.261 75.5643C108.462 76.0486 108.802 76.4624 109.237 76.7535C109.673 77.0447 110.185 77.2002 110.71 77.2002C111.058 77.2002 111.402 77.1317 111.724 76.9985C112.045 76.8654 112.337 76.6701 112.583 76.4241C112.829 76.178 113.025 75.8858 113.158 75.5643C113.291 75.2428 113.36 74.8982 113.36 74.5502Z" fill="#0BDA4E"/>
<path d="M113.349 98.4899C113.349 97.0319 112.167 95.8499 110.709 95.8499C109.251 95.8499 108.069 97.0319 108.069 98.4899C108.069 99.9479 109.251 101.13 110.709 101.13C112.167 101.13 113.349 99.9479 113.349 98.4899Z" fill="#0BDA4E"/>
<path d="M113.046 121.408C112.492 120.059 110.949 119.416 109.601 119.97C108.252 120.525 107.609 122.067 108.163 123.416C108.718 124.764 110.26 125.408 111.609 124.854C112.957 124.299 113.601 122.756 113.046 121.408Z" fill="#0BDA4E"/>
<path d="M113.36 146.35C113.36 145.826 113.204 145.313 112.913 144.878C112.622 144.442 112.208 144.102 111.724 143.902C111.239 143.701 110.707 143.649 110.193 143.751C109.679 143.853 109.206 144.105 108.836 144.476C108.465 144.847 108.213 145.319 108.11 145.833C108.008 146.347 108.061 146.88 108.261 147.364C108.462 147.848 108.802 148.262 109.237 148.553C109.673 148.845 110.185 149 110.71 149C111.412 149 112.086 148.721 112.583 148.224C113.08 147.727 113.36 147.053 113.36 146.35Z" fill="#0BDA4E"/>
</g>
<g clip-path="url(#clip1_222_736)">
<path d="M90.9792 2.75063C90.9792 1.29259 89.7972 0.110626 88.3392 0.110626C86.8812 0.110626 85.6992 1.29259 85.6992 2.75063C85.6992 4.20866 86.8812 5.39062 88.3392 5.39062C89.7972 5.39062 90.9792 4.20866 90.9792 2.75063Z" fill="#0BDA4E"/>
<path d="M90.9792 26.6901C90.9792 25.232 89.7972 24.0501 88.3392 24.0501C86.8812 24.0501 85.6992 25.232 85.6992 26.6901C85.6992 28.1481 86.8812 29.3301 88.3392 29.3301C89.7972 29.3301 90.9792 28.1481 90.9792 26.6901Z" fill="#0BDA4E"/>
<path d="M90.9797 50.6198C90.9817 50.0952 90.828 49.5819 90.538 49.1448C90.248 48.7077 89.8348 48.3664 89.3507 48.1643C88.8667 47.9622 88.3336 47.9083 87.8189 48.0094C87.3042 48.1105 86.831 48.3621 86.4594 48.7323C86.0878 49.1025 85.8344 49.5747 85.7313 50.089C85.6283 50.6033 85.6802 51.1367 85.8805 51.6215C86.0807 52.1063 86.4204 52.5207 86.8564 52.8124C87.2924 53.104 87.8051 53.2598 88.3297 53.2598C89.0308 53.2598 89.7033 52.9819 90.2 52.4871C90.6967 51.9922 90.977 51.3208 90.9797 50.6198Z" fill="#0BDA4E"/>
<path d="M90.9797 74.5502C90.9797 74.0261 90.8243 73.5137 90.5331 73.0779C90.2419 72.6421 89.828 72.3025 89.3438 72.1019C88.8596 71.9014 88.3267 71.8489 87.8127 71.9512C87.2986 72.0534 86.8265 72.3058 86.4559 72.6764C86.0853 73.047 85.8329 73.5192 85.7306 74.0332C85.6284 74.5473 85.6808 75.0801 85.8814 75.5643C86.082 76.0486 86.4216 76.4624 86.8574 76.7535C87.2932 77.0447 87.8055 77.2002 88.3297 77.2002C88.6777 77.2002 89.0223 77.1317 89.3438 76.9985C89.6653 76.8654 89.9574 76.6701 90.2035 76.4241C90.4496 76.178 90.6449 75.8858 90.778 75.5643C90.9112 75.2428 90.9797 74.8982 90.9797 74.5502Z" fill="#0BDA4E"/>
<path d="M90.9792 98.4899C90.9792 97.0319 89.7972 95.8499 88.3392 95.8499C86.8812 95.8499 85.6992 97.0319 85.6992 98.4899C85.6992 99.9479 86.8812 101.13 88.3392 101.13C89.7972 101.13 90.9792 99.9479 90.9792 98.4899Z" fill="#0BDA4E"/>
<path d="M90.6646 121.41C90.1101 120.061 88.5675 119.418 87.219 119.972C85.8705 120.527 85.2268 122.069 85.7813 123.418C86.3357 124.766 87.8783 125.41 89.2268 124.855C90.5753 124.301 91.219 122.758 90.6646 121.41Z" fill="#0BDA4E"/>
<path d="M85.7295 146.35C85.7275 146.875 85.8815 147.388 86.172 147.826C86.4624 148.263 86.8762 148.604 87.3608 148.806C87.8454 149.008 88.3791 149.061 88.8941 148.959C89.409 148.857 89.8821 148.605 90.2533 148.234C90.6245 147.862 90.8771 147.389 90.979 146.874C91.081 146.359 91.0276 145.826 90.8258 145.341C90.624 144.856 90.2829 144.443 89.8455 144.152C89.4082 143.862 88.8945 143.708 88.3695 143.71C87.6702 143.712 87.0002 143.991 86.5056 144.486C86.0111 144.98 85.7321 145.65 85.7295 146.35Z" fill="#0BDA4E"/>
<path d="M69.5691 2.75063C69.5691 1.29259 68.3871 0.110626 66.9291 0.110626C65.471 0.110626 64.2891 1.29259 64.2891 2.75063C64.2891 4.20866 65.471 5.39062 66.9291 5.39062C68.3871 5.39062 69.5691 4.20866 69.5691 2.75063Z" fill="#0BDA4E"/>
<path d="M69.5691 26.6901C69.5691 25.232 68.3871 24.0501 66.9291 24.0501C65.471 24.0501 64.2891 25.232 64.2891 26.6901C64.2891 28.1481 65.471 29.3301 66.9291 29.3301C68.3871 29.3301 69.5691 28.1481 69.5691 26.6901Z" fill="#0BDA4E"/>
<path d="M69.5695 50.6197C69.5715 50.0948 69.4175 49.581 69.1271 49.1437C68.8367 48.7063 68.4229 48.3651 67.9383 48.1633C67.4536 47.9615 66.92 47.9082 66.405 48.0101C65.89 48.112 65.4169 48.3646 65.0457 48.7358C64.6745 49.107 64.4219 49.5802 64.32 50.0952C64.218 50.6102 64.2714 51.1438 64.4732 51.6284C64.675 52.113 65.0162 52.5268 65.4535 52.8172C65.8908 53.1077 66.4046 53.2617 66.9295 53.2597C67.6289 53.2571 68.2988 52.978 68.7934 52.4835C69.2879 51.989 69.5669 51.3191 69.5695 50.6197Z" fill="#0BDA4E"/>
<path d="M69.5695 74.5502C69.5695 74.0256 69.4138 73.5129 69.1222 73.0769C68.8306 72.6409 68.4161 72.3012 67.9313 72.1009C67.4465 71.9007 66.9131 71.8488 66.3988 71.9519C65.8845 72.0549 65.4123 72.3083 65.0421 72.6799C64.6719 73.0515 64.4204 73.5247 64.3192 74.0394C64.2181 74.5541 64.272 75.0872 64.4741 75.5713C64.6762 76.0553 65.0174 76.4684 65.4546 76.7584C65.8917 77.0484 66.405 77.2022 66.9295 77.2002C67.2771 77.2002 67.6211 77.1316 67.9421 76.9983C68.2631 76.865 68.5545 76.6696 68.7998 76.4234C69.0451 76.1772 69.2393 75.885 69.3714 75.5636C69.5035 75.2421 69.5709 74.8977 69.5695 74.5502Z" fill="#0BDA4E"/>
<path d="M69.5691 98.4899C69.5691 97.0319 68.3871 95.8499 66.9291 95.8499C65.471 95.8499 64.2891 97.0319 64.2891 98.4899C64.2891 99.9479 65.471 101.13 66.9291 101.13C68.3871 101.13 69.5691 99.9479 69.5691 98.4899Z" fill="#0BDA4E"/>
<path d="M69.2623 121.408C68.7079 120.059 67.1652 119.416 65.8167 119.97C64.4682 120.525 63.8245 122.067 64.3789 123.416C64.9333 124.764 66.476 125.408 67.8245 124.854C69.173 124.299 69.8167 122.756 69.2623 121.408Z" fill="#0BDA4E"/>
<path d="M69.5695 146.35C69.5695 145.825 69.4138 145.313 69.1222 144.877C68.8306 144.441 68.4161 144.101 67.9313 143.901C67.4465 143.7 66.9131 143.649 66.3988 143.752C65.8845 143.855 65.4123 144.108 65.0421 144.48C64.6719 144.851 64.4204 145.324 64.3192 145.839C64.2181 146.354 64.272 146.887 64.4741 147.371C64.6762 147.855 65.0174 148.268 65.4546 148.558C65.8917 148.848 66.405 149.002 66.9295 149C67.2771 149 67.6211 148.931 67.9421 148.798C68.2631 148.665 68.5545 148.469 68.7998 148.223C69.0451 147.977 69.2393 147.685 69.3714 147.363C69.5035 147.042 69.5709 146.697 69.5695 146.35Z" fill="#0BDA4E"/>
<path d="M48.1589 2.75063C48.1589 1.29259 46.9769 0.110626 45.5189 0.110626C44.0609 0.110626 42.8789 1.29259 42.8789 2.75063C42.8789 4.20866 44.0609 5.39062 45.5189 5.39062C46.9769 5.39062 48.1589 4.20866 48.1589 2.75063Z" fill="#0BDA4E"/>
<path d="M48.1589 26.6901C48.1589 25.232 46.9769 24.0501 45.5189 24.0501C44.0609 24.0501 42.8789 25.232 42.8789 26.6901C42.8789 28.1481 44.0609 29.3301 45.5189 29.3301C46.9769 29.3301 48.1589 28.1481 48.1589 26.6901Z" fill="#0BDA4E"/>
<path d="M48.1691 50.6198C48.1711 50.0952 48.0174 49.5819 47.7274 49.1448C47.4375 48.7077 47.0242 48.3664 46.5402 48.1643C46.0561 47.9622 45.523 47.9083 45.0083 48.0094C44.4936 48.1105 44.0205 48.3621 43.6489 48.7323C43.2773 49.1025 43.0239 49.5747 42.9208 50.089C42.8177 50.6033 42.8696 51.1367 43.0699 51.6215C43.2702 52.1063 43.6099 52.5207 44.0459 52.8124C44.4819 53.104 44.9946 53.2598 45.5191 53.2598C46.2202 53.2598 46.8927 52.9819 47.3894 52.4871C47.8861 51.9922 48.1665 51.3208 48.1691 50.6198Z" fill="#0BDA4E"/>
<path d="M48.1691 74.5502C48.1691 74.0261 48.0137 73.5137 47.7225 73.0779C47.4314 72.6421 47.0175 72.3025 46.5333 72.1019C46.0491 71.9014 45.5162 71.8489 45.0021 71.9512C44.4881 72.0534 44.0159 72.3058 43.6453 72.6764C43.2747 73.047 43.0223 73.5192 42.9201 74.0332C42.8178 74.5473 42.8703 75.0801 43.0709 75.5643C43.2714 76.0486 43.6111 76.4624 44.0469 76.7535C44.4827 77.0447 44.995 77.2002 45.5191 77.2002C45.8671 77.2002 46.2118 77.1317 46.5333 76.9985C46.8548 76.8654 47.1469 76.6701 47.393 76.4241C47.639 76.178 47.8342 75.8858 47.9674 75.5643C48.1006 75.2428 48.1691 74.8982 48.1691 74.5502Z" fill="#0BDA4E"/>
<path d="M48.1589 98.4899C48.1589 97.0319 46.9769 95.8499 45.5189 95.8499C44.0609 95.8499 42.8789 97.0319 42.8789 98.4899C42.8789 99.9479 44.0609 101.13 45.5189 101.13C46.9769 101.13 48.1589 99.9479 48.1589 98.4899Z" fill="#0BDA4E"/>
<path d="M47.8609 121.409C47.3064 120.06 45.7638 119.417 44.4153 119.971C43.0668 120.526 42.4231 122.068 42.9775 123.417C43.532 124.765 45.0746 125.409 46.4231 124.855C47.7716 124.3 48.4153 122.757 47.8609 121.409Z" fill="#0BDA4E"/>
<path d="M48.1691 146.35C48.1691 145.826 48.0137 145.313 47.7225 144.878C47.4314 144.442 47.0175 144.102 46.5333 143.902C46.0491 143.701 45.5162 143.649 45.0021 143.751C44.4881 143.853 44.0159 144.105 43.6453 144.476C43.2747 144.847 43.0223 145.319 42.9201 145.833C42.8178 146.347 42.8703 146.88 43.0709 147.364C43.2714 147.848 43.6111 148.262 44.0469 148.553C44.4827 148.845 44.995 149 45.5191 149C46.2219 149 46.896 148.721 47.393 148.224C47.8899 147.727 48.1691 147.053 48.1691 146.35Z" fill="#0BDA4E"/>
<path d="M26.7595 2.75063C26.7595 1.29259 25.5775 0.110626 24.1195 0.110626C22.6615 0.110626 21.4795 1.29259 21.4795 2.75063C21.4795 4.20866 22.6615 5.39062 24.1195 5.39062C25.5775 5.39062 26.7595 4.20866 26.7595 2.75063Z" fill="#0BDA4E"/>
<path d="M26.7595 26.6901C26.7595 25.232 25.5775 24.0501 24.1195 24.0501C22.6615 24.0501 21.4795 25.232 21.4795 26.6901C21.4795 28.1481 22.6615 29.3301 24.1195 29.3301C25.5775 29.3301 26.7595 28.1481 26.7595 26.6901Z" fill="#0BDA4E"/>
<path d="M26.7297 50.6197C26.7317 50.0948 26.5777 49.581 26.2873 49.1437C25.9968 48.7063 25.583 48.3651 25.0984 48.1633C24.6138 47.9615 24.0801 47.9082 23.5651 48.0101C23.0502 48.112 22.5771 48.3646 22.2059 48.7358C21.8347 49.107 21.5821 49.5802 21.4801 50.0952C21.3782 50.6102 21.4315 51.1438 21.6333 51.6284C21.8351 52.113 22.1763 52.5268 22.6137 52.8172C23.051 53.1077 23.5647 53.2617 24.0897 53.2597C24.789 53.2571 25.459 52.978 25.9536 52.4835C26.4481 51.989 26.7271 51.3191 26.7297 50.6197Z" fill="#0BDA4E"/>
<path d="M26.7297 74.5502C26.7297 74.0256 26.574 73.5129 26.2824 73.0769C25.9907 72.6409 25.5763 72.3012 25.0915 72.1009C24.6067 71.9007 24.0734 71.8488 23.559 71.9519C23.0447 72.0549 22.5726 72.3083 22.2024 72.6799C21.8321 73.0515 21.5805 73.5247 21.4794 74.0394C21.3783 74.5541 21.4322 75.0872 21.6343 75.5713C21.8364 76.0553 22.1776 76.4684 22.6147 76.7584C23.0518 77.0484 23.5651 77.2022 24.0897 77.2002C24.4372 77.2002 24.7814 77.1316 25.1023 76.9983C25.4233 76.865 25.7147 76.6696 25.96 76.4234C26.2053 76.1772 26.3996 75.885 26.5316 75.5636C26.6637 75.2421 26.731 74.8977 26.7297 74.5502Z" fill="#0BDA4E"/>
<path d="M26.7595 98.4899C26.7595 97.0319 25.5775 95.8499 24.1195 95.8499C22.6615 95.8499 21.4795 97.0319 21.4795 98.4899C21.4795 99.9479 22.6615 101.13 24.1195 101.13C25.5775 101.13 26.7595 99.9479 26.7595 98.4899Z" fill="#0BDA4E"/>
<path d="M26.4586 121.406C25.9041 120.057 24.3615 119.414 23.013 119.968C21.6645 120.523 21.0208 122.065 21.5752 123.414C22.1296 124.762 23.6723 125.406 25.0208 124.852C26.3693 124.297 27.013 122.754 26.4586 121.406Z" fill="#0BDA4E"/>
<path d="M26.7297 146.35C26.7297 145.825 26.574 145.313 26.2824 144.877C25.9907 144.441 25.5763 144.101 25.0915 143.901C24.6067 143.7 24.0734 143.649 23.559 143.752C23.0447 143.855 22.5726 144.108 22.2024 144.48C21.8321 144.851 21.5805 145.324 21.4794 145.839C21.3783 146.354 21.4322 146.887 21.6343 147.371C21.8364 147.855 22.1776 148.268 22.6147 148.558C23.0518 148.848 23.5651 149.002 24.0897 149C24.4372 149 24.7814 148.931 25.1023 148.798C25.4233 148.665 25.7147 148.469 25.96 148.223C26.2053 147.977 26.3996 147.685 26.5316 147.363C26.6637 147.042 26.731 146.697 26.7297 146.35Z" fill="#0BDA4E"/>
<path d="M5.34934 2.75063C5.34934 1.29259 4.16737 0.110626 2.70934 0.110626C1.2513 0.110626 0.0693358 1.29259 0.0693358 2.75063C0.0693359 4.20866 1.2513 5.39062 2.70934 5.39062C4.16737 5.39062 5.34934 4.20866 5.34934 2.75063Z" fill="#0BDA4E"/>
<path d="M5.34934 26.6901C5.34934 25.232 4.16737 24.0501 2.70934 24.0501C1.2513 24.0501 0.0693358 25.232 0.0693358 26.6901C0.0693359 28.1481 1.2513 29.3301 2.70934 29.3301C4.16737 29.3301 5.34934 28.1481 5.34934 26.6901Z" fill="#0BDA4E"/>
<path d="M5.35958 50.6198C5.36156 50.0952 5.20785 49.5819 4.91787 49.1448C4.62789 48.7077 4.21466 48.3664 3.73061 48.1643C3.24656 47.9622 2.71346 47.9083 2.19875 48.0094C1.68404 48.1105 1.21092 48.3621 0.839314 48.7323C0.467703 49.1025 0.214289 49.5747 0.111225 50.089C0.00816131 50.6033 0.0600592 51.1367 0.260334 51.6215C0.460609 52.1063 0.800282 52.5207 1.23629 52.8124C1.67229 53.104 2.18501 53.2598 2.70955 53.2598C3.41065 53.2598 4.08317 52.9819 4.57985 52.4871C5.07654 51.9922 5.35693 51.3208 5.35958 50.6198Z" fill="#0BDA4E"/>
<path d="M5.35957 74.5502C5.35957 74.0261 5.20416 73.5137 4.91298 73.0779C4.62179 72.6421 4.20793 72.3025 3.72371 72.1019C3.23948 71.9014 2.70663 71.8489 2.19258 71.9512C1.67853 72.0534 1.20631 72.3058 0.835705 72.6764C0.465096 73.047 0.212737 73.5192 0.110486 74.0332C0.008235 74.5473 0.0607315 75.0801 0.261304 75.5643C0.461876 76.0486 0.801527 76.4624 1.23732 76.7535C1.67311 77.0447 2.18543 77.2002 2.70955 77.2002C3.05755 77.2002 3.40219 77.1317 3.72371 76.9985C4.04522 76.8654 4.33731 76.6701 4.58339 76.4241C4.82946 76.178 5.02467 75.8858 5.15785 75.5643C5.29102 75.2428 5.35957 74.8982 5.35957 74.5502Z" fill="#0BDA4E"/>
<path d="M5.34934 98.4899C5.34934 97.0319 4.16737 95.8499 2.70934 95.8499C1.2513 95.8499 0.0693358 97.0319 0.0693358 98.4899C0.0693359 99.9479 1.2513 101.13 2.70934 101.13C4.16737 101.13 5.34934 99.9479 5.34934 98.4899Z" fill="#0BDA4E"/>
<path d="M5.04642 121.408C4.49198 120.059 2.94933 119.416 1.60083 119.97C0.252324 120.525 -0.391345 122.067 0.163091 123.416C0.717527 124.764 2.26013 125.408 3.60863 124.854C4.95713 124.299 5.60086 122.756 5.04642 121.408Z" fill="#0BDA4E"/>
<path d="M5.35957 146.35C5.35957 145.826 5.20416 145.313 4.91298 144.878C4.62179 144.442 4.20793 144.102 3.72371 143.902C3.23948 143.701 2.70663 143.649 2.19258 143.751C1.67853 143.853 1.20631 144.105 0.835705 144.476C0.465096 144.847 0.212737 145.319 0.110486 145.833C0.008235 146.347 0.0607315 146.88 0.261304 147.364C0.461876 147.848 0.801527 148.262 1.23732 148.553C1.67311 148.845 2.18543 149 2.70955 149C3.41237 149 4.08641 148.721 4.58339 148.224C5.08036 147.727 5.35957 147.053 5.35957 146.35Z" fill="#0BDA4E"/>
</g>
<defs>
<clipPath id="clip0_222_736">
<rect width="148.89" height="90.91" fill="white" transform="translate(108.069 149) rotate(-90)"/>
</clipPath>
<clipPath id="clip1_222_736">
<rect width="148.89" height="90.91" fill="white" transform="translate(0.0693359 149) rotate(-90)"/>
</clipPath>
</defs>
</svg>
