<svg width="24" height="24" viewBox="0 0 24 24" fill="none" xmlns="http://www.w3.org/2000/svg">
<g clip-path="url(#clip0_222_853)">
<path d="M10.7695 24C10.6464 24 10.5233 23.9776 10.4002 23.933C10.0187 23.7879 9.79715 23.4307 9.84638 23.0623L10.9418 15.0697H0.923299C0.566376 15.0697 0.234068 14.88 0.086376 14.5897C-0.0613163 14.2995 -0.0120855 13.9423 0.209453 13.6967L12.5171 0.301357C12.7756 0.0111242 13.2187 -0.0781782 13.6002 0.0669381C13.9818 0.212054 14.2033 0.569264 14.1541 0.937636L13.0587 8.93019H23.0895C23.4464 8.93019 23.7787 9.11996 23.9264 9.4102C24.0741 9.70043 24.0248 10.0465 23.8033 10.3032L11.4956 23.6986C11.311 23.8883 11.0525 24 10.7818 24H10.7695ZM2.89253 13.3953H12.0002C12.271 13.3953 12.5171 13.4958 12.6895 13.6744C12.8618 13.853 12.9479 14.0986 12.911 14.333L12.0741 20.4279L21.1079 10.6046H12.0002C11.7295 10.6046 11.4833 10.5041 11.311 10.3255C11.1387 10.1469 11.0525 9.90136 11.0895 9.66694L11.9264 3.57205L2.89253 13.3953Z" fill="#313131"/>
</g>
<defs>
<clipPath id="clip0_222_853">
<rect width="24" height="24" fill="white"/>
</clipPath>
</defs>
</svg>
