<svg width="26" height="25" viewBox="0 0 26 25" fill="none" xmlns="http://www.w3.org/2000/svg">
<path d="M12.0489 1.42705C12.3483 0.505741 13.6517 0.50574 13.9511 1.42705L16.1432 8.17376C16.2771 8.58578 16.661 8.86475 17.0943 8.86475H24.1882C25.1569 8.86475 25.5597 10.1044 24.7759 10.6738L19.0369 14.8435C18.6864 15.0981 18.5397 15.5495 18.6736 15.9615L20.8657 22.7082C21.1651 23.6295 20.1106 24.3956 19.3269 23.8262L13.5878 19.6565C13.2373 19.4019 12.7627 19.4019 12.4122 19.6565L6.67312 23.8262C5.88941 24.3956 4.83493 23.6295 5.13428 22.7082L7.32642 15.9615C7.46029 15.5495 7.31363 15.0981 6.96315 14.8435L1.22405 10.6738C0.440337 10.1044 0.843112 8.86475 1.81184 8.86475H8.90575C9.33897 8.86475 9.72293 8.58578 9.8568 8.17376L12.0489 1.42705Z" fill="#FFBE0C"/>
</svg>
