<svg width="411" height="351" viewBox="0 0 411 351" fill="none" xmlns="http://www.w3.org/2000/svg">
<mask id="mask0_222_501" style="mask-type:alpha" maskUnits="userSpaceOnUse" x="0" y="0" width="411" height="351">
<rect width="411" height="351" fill="#D9D9D9"/>
</mask>
<g mask="url(#mask0_222_501)">
<path opacity="0.2" d="M15.9293 307.761C32.1751 254.777 48.8116 202.029 64.3164 148.819C67.6208 137.286 72.9046 134.028 84.1162 134.097C152.305 134.909 220.544 134.806 288.806 135.757C299.635 135.941 303.787 132.219 306.709 122.312C317.347 85.7302 328.831 49.408 339.998 12.9884C344.914 -3.04469 345.297 -3.15968 357.153 9.53625C386.899 41.3085 416.336 73.3344 446.424 104.747C453.353 111.983 454.689 118.201 451.653 127.724C439.078 166.848 426.682 206.144 415.45 245.796C411.991 258.21 406.284 261.339 394.258 260.904C338.209 259.4 282.045 259.023 225.922 257.38C215.232 257.123 212.073 261.381 209.371 270.194C191.359 330.071 172.639 389.614 154.839 449.555C151.648 459.961 147.04 463.659 136.203 464.634C83.3461 469.336 30.5377 474.634 -22.2544 480.634C-36.5434 482.293 -36.8858 478.123 -33.1661 466.369C-16.3912 413.548 -0.49553 360.573 15.7502 307.589L15.856 307.622L15.9293 307.761Z" fill="#390099"/>
</g>
</svg>
