<svg width="1440" height="998" viewBox="0 0 1440 998" fill="none" xmlns="http://www.w3.org/2000/svg">
<line x1="1464" y1="586.5" x2="-24" y2="586.5" stroke="white"/>
<line x1="1464" y1="610.5" x2="-24" y2="610.5" stroke="white"/>
<line x1="1464" y1="634.5" x2="-24" y2="634.5" stroke="white"/>
<line x1="1464" y1="658.5" x2="-24" y2="658.5" stroke="white"/>
<line x1="1464" y1="682.5" x2="-24" y2="682.5" stroke="white"/>
<line x1="1464" y1="706.5" x2="-24" y2="706.5" stroke="white"/>
<line x1="1464" y1="730.5" x2="-24" y2="730.5" stroke="white"/>
<line x1="1464" y1="754.5" x2="-24" y2="754.5" stroke="white"/>
<line x1="1464" y1="778.5" x2="-24" y2="778.5" stroke="white"/>
<line x1="1464" y1="802.5" x2="-24" y2="802.5" stroke="white"/>
<line x1="1464" y1="826.5" x2="-24" y2="826.5" stroke="white"/>
<line x1="1464" y1="850.5" x2="-24" y2="850.5" stroke="white"/>
<line x1="1464" y1="874.5" x2="-24" y2="874.5" stroke="white"/>
<line x1="1464" y1="898.5" x2="-24" y2="898.5" stroke="white"/>
<line x1="1464" y1="922.5" x2="-24" y2="922.5" stroke="white"/>
<line x1="1464" y1="946.5" x2="-24" y2="946.5" stroke="white"/>
<line x1="1464" y1="970.5" x2="-24" y2="970.5" stroke="white"/>
<line x1="1464" y1="994.5" x2="-24" y2="994.5" stroke="white"/>
<line x1="24.5" y1="562" x2="24.5" y2="1282" stroke="white"/>
<line x1="24.5" y1="562" x2="24.5" y2="1282" stroke="white"/>
<line x1="48.5" y1="562" x2="48.5" y2="1282" stroke="white"/>
<line x1="72.5" y1="562" x2="72.5" y2="1282" stroke="white"/>
<line x1="96.5" y1="562" x2="96.5" y2="1282" stroke="white"/>
<line x1="120.5" y1="562" x2="120.5" y2="1282" stroke="white"/>
<line x1="144.5" y1="562" x2="144.5" y2="1282" stroke="white"/>
<line x1="168.5" y1="562" x2="168.5" y2="1282" stroke="white"/>
<line x1="192.5" y1="562" x2="192.5" y2="1282" stroke="white"/>
<line x1="216.5" y1="562" x2="216.5" y2="1282" stroke="white"/>
<line x1="240.5" y1="562" x2="240.5" y2="1282" stroke="white"/>
<line x1="264.5" y1="562" x2="264.5" y2="1282" stroke="white"/>
<line x1="288.5" y1="562" x2="288.5" y2="1282" stroke="white"/>
<line x1="312.5" y1="562" x2="312.5" y2="1282" stroke="white"/>
<line x1="336.5" y1="562" x2="336.5" y2="1282" stroke="white"/>
<line x1="360.5" y1="562" x2="360.5" y2="1282" stroke="white"/>
<line x1="384.5" y1="562" x2="384.5" y2="1282" stroke="white"/>
<line x1="408.5" y1="562" x2="408.5" y2="1282" stroke="white"/>
<line x1="432.5" y1="562" x2="432.5" y2="1282" stroke="white"/>
<line x1="456.5" y1="562" x2="456.5" y2="1282" stroke="white"/>
<line x1="480.5" y1="562" x2="480.5" y2="1282" stroke="white"/>
<line x1="504.5" y1="-134" x2="504.5" y2="1282" stroke="white"/>
<line x1="528.5" y1="-134" x2="528.5" y2="1282" stroke="white"/>
<line x1="552.5" y1="-134" x2="552.5" y2="1282" stroke="white"/>
<line x1="576.5" y1="-134" x2="576.5" y2="1282" stroke="white"/>
<line x1="600.5" y1="-134" x2="600.5" y2="1282" stroke="white"/>
<line x1="624.5" y1="-134" x2="624.5" y2="1282" stroke="white"/>
<line x1="648.5" y1="-134" x2="648.5" y2="1282" stroke="white"/>
<line x1="672.5" y1="-134" x2="672.5" y2="1282" stroke="white"/>
<line x1="696.5" y1="-134" x2="696.5" y2="1282" stroke="white"/>
<line x1="720.5" y1="-134" x2="720.5" y2="1282" stroke="white"/>
<line x1="744.5" y1="-134" x2="744.5" y2="1282" stroke="white"/>
<line x1="768.5" y1="-134" x2="768.5" y2="1282" stroke="white"/>
<line x1="792.5" y1="-134" x2="792.5" y2="1282" stroke="white"/>
<line x1="816.5" y1="-134" x2="816.5" y2="1282" stroke="white"/>
<line x1="840.5" y1="-134" x2="840.5" y2="1282" stroke="white"/>
<line x1="864.5" y1="-134" x2="864.5" y2="1282" stroke="white"/>
<line x1="888.5" y1="-134" x2="888.5" y2="1282" stroke="white"/>
<line x1="912.5" y1="-134" x2="912.5" y2="1282" stroke="white"/>
<line x1="936.5" y1="-134" x2="936.5" y2="1282" stroke="white"/>
<line x1="960.5" y1="-134" x2="960.5" y2="1282" stroke="white"/>
<line x1="984.5" y1="-134" x2="984.5" y2="1282" stroke="white"/>
<line x1="1008.5" y1="-134" x2="1008.5" y2="1282" stroke="white"/>
<line x1="1032.5" y1="-134" x2="1032.5" y2="1282" stroke="white"/>
<line x1="1056.5" y1="-134" x2="1056.5" y2="1282" stroke="white"/>
<line x1="1080.5" y1="-134" x2="1080.5" y2="1282" stroke="white"/>
<line x1="1104.5" y1="-134" x2="1104.5" y2="1282" stroke="white"/>
<line x1="1128.5" y1="-134" x2="1128.5" y2="1282" stroke="white"/>
<line x1="1152.5" y1="-134" x2="1152.5" y2="1282" stroke="white"/>
<line x1="1176.5" y1="-134" x2="1176.5" y2="1282" stroke="white"/>
<line x1="1200.5" y1="-134" x2="1200.5" y2="1282" stroke="white"/>
<line x1="1224.5" y1="-134" x2="1224.5" y2="1282" stroke="white"/>
<line x1="1248.5" y1="-134" x2="1248.5" y2="1282" stroke="white"/>
<line x1="1272.5" y1="-134" x2="1272.5" y2="1282" stroke="white"/>
<line x1="1296.5" y1="-134" x2="1296.5" y2="1282" stroke="white"/>
<line x1="1320.5" y1="-134" x2="1320.5" y2="1282" stroke="white"/>
<line x1="1344.5" y1="-134" x2="1344.5" y2="1282" stroke="white"/>
<line x1="1368.5" y1="-134" x2="1368.5" y2="1282" stroke="white"/>
<line x1="1392.5" y1="-134" x2="1392.5" y2="1282" stroke="white"/>
<line x1="1416.5" y1="-134" x2="1416.5" y2="1282" stroke="white"/>
<line x1="0.5" y1="-134" x2="0.499938" y2="1282" stroke="white"/>
<line x1="1464" y1="10.5" x2="-24" y2="10.5" stroke="white"/>
<line x1="1464" y1="34.5" x2="-24" y2="34.5" stroke="white"/>
<line x1="1464" y1="58.5" x2="-24" y2="58.5" stroke="white"/>
<line x1="1464" y1="82.5" x2="-24" y2="82.5" stroke="white"/>
<line x1="1464" y1="106.5" x2="-24" y2="106.5" stroke="white"/>
<line x1="1464" y1="130.5" x2="-24" y2="130.5" stroke="white"/>
<line x1="1464" y1="154.5" x2="-24" y2="154.5" stroke="white"/>
<line x1="1464" y1="178.5" x2="-24" y2="178.5" stroke="white"/>
<line x1="1464" y1="202.5" x2="-24" y2="202.5" stroke="white"/>
<line x1="1464" y1="226.5" x2="-24" y2="226.5" stroke="white"/>
<line x1="1464" y1="250.5" x2="-24" y2="250.5" stroke="white"/>
<line x1="1464" y1="274.5" x2="-24" y2="274.5" stroke="white"/>
<line x1="1464" y1="298.5" x2="-24" y2="298.5" stroke="white"/>
<line x1="1464" y1="322.5" x2="-24" y2="322.5" stroke="white"/>
<line x1="1464" y1="346.5" x2="-24" y2="346.5" stroke="white"/>
<line x1="1464" y1="370.5" x2="-24" y2="370.5" stroke="white"/>
<line x1="1464" y1="394.5" x2="-24" y2="394.5" stroke="white"/>
<line x1="1464" y1="418.5" x2="-24" y2="418.5" stroke="white"/>
<line x1="1464" y1="442.5" x2="-24" y2="442.5" stroke="white"/>
<line x1="1464" y1="466.5" x2="-24" y2="466.5" stroke="white"/>
<line x1="1464" y1="490.5" x2="-24" y2="490.5" stroke="white"/>
<line x1="1464" y1="514.5" x2="-24" y2="514.5" stroke="white"/>
<line x1="1464" y1="538.5" x2="-24" y2="538.5" stroke="white"/>
<line x1="1464" y1="562.5" x2="-24" y2="562.5" stroke="white"/>
<line x1="24.5" y1="-134" x2="24.5" y2="586" stroke="white"/>
<line x1="24.5" y1="-134" x2="24.5" y2="586" stroke="white"/>
<line x1="48.5" y1="-134" x2="48.5" y2="586" stroke="white"/>
<line x1="72.5" y1="-134" x2="72.5" y2="586" stroke="white"/>
<line x1="96.5" y1="-134" x2="96.5" y2="586" stroke="white"/>
<line x1="120.5" y1="-134" x2="120.5" y2="586" stroke="white"/>
<line x1="144.5" y1="-134" x2="144.5" y2="586" stroke="white"/>
<line x1="168.5" y1="-134" x2="168.5" y2="586" stroke="white"/>
<line x1="192.5" y1="-134" x2="192.5" y2="586" stroke="white"/>
<line x1="216.5" y1="-134" x2="216.5" y2="586" stroke="white"/>
<line x1="240.5" y1="-134" x2="240.5" y2="586" stroke="white"/>
<line x1="264.5" y1="-134" x2="264.5" y2="586" stroke="white"/>
<line x1="288.5" y1="-134" x2="288.5" y2="586" stroke="white"/>
<line x1="312.5" y1="-134" x2="312.5" y2="586" stroke="white"/>
<line x1="336.5" y1="-134" x2="336.5" y2="586" stroke="white"/>
<line x1="360.5" y1="-134" x2="360.5" y2="586" stroke="white"/>
<line x1="384.5" y1="-134" x2="384.5" y2="586" stroke="white"/>
<line x1="408.5" y1="-134" x2="408.5" y2="586" stroke="white"/>
<line x1="432.5" y1="-134" x2="432.5" y2="586" stroke="white"/>
<line x1="456.5" y1="-134" x2="456.5" y2="586" stroke="white"/>
<line x1="480.5" y1="-134" x2="480.5" y2="586" stroke="white"/>
</svg>
