<svg width="64" height="44" viewBox="0 0 64 44" fill="none" xmlns="http://www.w3.org/2000/svg">
<path d="M36.0563 26.9388C36.0563 22.2694 36.7775 18.2585 38.2197 14.9061C39.662 11.434 41.5249 8.62041 43.8085 6.46531C46.092 4.19048 48.6761 2.57415 51.5606 1.61633C54.5653 0.538776 57.5099 0 60.3944 0V6.28572C57.2695 6.28572 54.3249 7.36327 51.5606 9.51837C48.9164 11.5537 47.354 14.3673 46.8732 17.9592C47.2338 17.8395 47.6545 17.7197 48.1352 17.6C48.4958 17.4803 48.9164 17.3605 49.3972 17.2408C49.9981 17.1211 50.6592 17.0612 51.3803 17.0612C54.9859 17.0612 57.9906 18.4381 60.3944 21.1918C62.7981 23.8258 64 26.9388 64 30.5306C64 34.1224 62.738 37.2952 60.2141 40.049C57.8103 42.683 54.5653 44 50.4789 44C45.9117 44 42.3662 42.3238 39.8423 38.9714C37.3183 35.4993 36.0563 31.4884 36.0563 26.9388ZM0 26.9388C0 22.2694 0.721127 18.2585 2.16338 14.9061C3.60563 11.434 5.46854 8.62041 7.75211 6.46531C10.0357 4.19048 12.6197 2.57415 15.5042 1.61633C18.5089 0.538776 21.4535 0 24.338 0V6.28572C21.2131 6.28572 18.2685 7.36327 15.5042 9.51837C12.8601 11.5537 11.2977 14.3673 10.8169 17.9592C11.1775 17.8395 11.5981 17.7197 12.0789 17.6C12.4394 17.4803 12.8601 17.3605 13.3408 17.2408C13.9418 17.1211 14.6028 17.0612 15.3239 17.0612C18.9296 17.0612 21.9343 18.4381 24.338 21.1918C26.7418 23.8258 27.9437 26.9388 27.9437 30.5306C27.9437 34.1224 26.6817 37.2952 24.1577 40.049C21.754 42.683 18.5089 44 14.4225 44C9.8554 44 6.30986 42.3238 3.78592 38.9714C1.26197 35.4993 0 31.4884 0 26.9388Z" fill="#FFBE0C"/>
</svg>
