<?xml version="1.0" encoding="UTF-8"?>
<svg xmlns="http://www.w3.org/2000/svg" version="1.1" viewBox="0 0 98.1 222.9">
  <defs>
    <style>
      .cls-1 {
        fill: #ff006e;
      }

      .cls-2 {
        fill: #ffbe0b;
      }
    </style>
  </defs>
  <!-- Generator: Adobe Illustrator 28.6.0, SVG Export Plug-In . SVG Version: 1.2.0 Build 597)  -->
  <g>
    <g id="Calque_1">
      <path class="cls-1" d="M0,182.8c0-12.4.1-24.8,0-37.1,0-2.7.9-3.7,3.3-4.4,14.7-4.3,29.3-8.8,44-13,2.3-.7,3-1.7,3-4-.1-8.5,0-17,0-25.6,0-3.8,0-3.8,3.4-1.9,8.5,4.9,16.9,9.8,25.4,14.5,2,1.1,2.6,2.3,2.6,4.6-.1,9.2-.2,18.4,0,27.6,0,2.9-1,3.9-3.5,4.6-12.1,3.4-24.2,7-36.3,10.3-2.3.6-2.7,1.8-2.7,3.8,0,14,0,27.9,0,41.9,0,2.4-.8,3.5-3,4.4-11,4.5-22,9.1-32.9,13.8-2.9,1.3-3.3.4-3.3-2.3.1-12.4,0-24.8,0-37.1h0Z"/>
      <path class="cls-2" d="M0,75.8c0-8.3,0-16.6,0-24.9,0-2.4.6-3.5,3.1-4.2,19-5.3,37.9-10.9,56.9-16.2,2.6-.7,3.1-1.9,3-4.3-.1-7.9,0-15.9,0-23.9,0-2.5.4-3.1,2.7-1.6,10,6.1,20,12.1,30,18.1,1.8,1,2.2,2.2,2.2,4.1,0,8.1,0,16.1.1,24.2,0,2.6-.8,3.5-3.2,4.1-17.6,4.8-35.2,9.7-52.8,14.5-2.4.6-3,1.7-2.9,4,.1,6.9,0,13.9.1,20.8,0,2.4-.8,3.4-3,4-11.3,3.1-22.5,6.2-33.7,9.5-2.3.7-2.5-.1-2.4-2,0-8.8,0-17.5,0-26.2h0Z"/>
    </g>
  </g>
</svg>