<svg width="131" height="151" viewBox="0 0 131 151" fill="none" xmlns="http://www.w3.org/2000/svg">
<g clip-path="url(#clip0_222_1046)">
<g opacity="0.74">
<path d="M7.89474 119.068C31.3484 111.205 54.6334 97.108 73.4687 79.3439C72.1968 77.9675 70.9142 76.5954 69.6423 75.219C51.476 92.5624 26.7736 102.45 4.68434 104.83" fill="#E9FCEF"/>
</g>
<path d="M78.9979 86.0982L107.523 62.2471L104.411 70.7646C103.612 72.8779 103.004 75.0387 102.573 77.2407C102.297 78.6131 102.11 80.0061 101.982 81.4067C101.443 87.6198 98.7016 93.4208 94.251 97.7716L91.1867 100.76L91.1212 100.83L78.9979 86.0982Z" fill="#37E16E"/>
<path d="M111.565 60.232L106.929 64.1117L104.415 70.7571C103.615 72.8704 103.007 75.0312 102.576 77.2332L116.217 65.8242C117.756 64.5373 117.967 62.2311 116.686 60.6911C116.04 59.9141 115.139 59.4797 114.218 59.4003C113.289 59.3178 112.331 59.5869 111.557 60.2287L111.565 60.232Z" fill="#BCF5CF"/>
<path d="M79.5837 86.9736C78.779 87.6463 80.705 91.2948 83.8893 95.124C87.0736 98.9532 90.3131 101.51 91.121 100.83C91.9257 100.157 89.9998 96.5085 86.8155 92.6793C83.6311 88.8501 80.3916 86.2933 79.5837 86.9736Z" fill="#37E16E"/>
<path d="M52.2373 54.0995L52.3145 54.0441L55.7989 51.557C60.8682 47.9446 67.0509 46.2794 73.2495 46.8674C74.6437 47.0004 76.0521 47.0596 77.4449 47.0321C79.6861 47.0079 81.9133 46.7912 84.1339 46.3852L93.0459 44.8359L64.5278 68.6902L52.248 54.0953L52.2373 54.0995Z" fill="#37E16E"/>
<path d="M95.7452 41.2188L91.109 45.0985L84.1341 46.3854C81.9209 46.7946 79.6863 47.0081 77.4451 47.0323L91.0891 35.6159C92.6288 34.329 94.9298 34.5349 96.2105 36.0749C96.8567 36.8519 97.12 37.8183 97.0312 38.7389C96.9468 39.6701 96.5071 40.563 95.7377 41.2155L95.7452 41.2188Z" fill="#BCF5CF"/>
<path d="M63.7718 67.9633C62.9671 68.636 59.7276 66.0793 56.54 62.2575C53.3557 58.4283 51.4298 54.7798 52.2344 54.1071C53.0391 53.4343 56.2786 55.9911 59.4662 59.8128C62.6505 63.6421 64.5764 67.2905 63.7718 67.9633Z" fill="#0BDA4E"/>
<path d="M116.907 32.5771L123.829 40.9011L125.56 34.8579C126.011 33.3042 124.754 31.792 123.146 31.9483L116.907 32.5771Z" fill="#0BDA4E"/>
<path d="M97.1521 40.0342L63.8478 67.8898L79.6751 86.9062L112.979 59.0507C117.713 55.0888 121.193 49.8115 122.974 43.8968L123.836 40.9046L116.915 32.5807L113.823 32.8936C107.693 33.5783 101.893 36.0756 97.1595 40.0374L97.1521 40.0342Z" fill="white"/>
<path opacity="0.09" d="M96.903 63.4293C88.4352 70.5161 77.9178 73.4835 67.7445 72.5688L79.6754 86.9062L112.98 59.0506C117.724 55.0845 121.201 49.8147 122.975 43.8967L123.829 40.9013L116.907 32.5773L113.819 32.8828C112.954 32.9789 112.102 33.1072 111.255 33.2826C111.087 44.5304 106.211 55.6496 96.9063 63.4218L96.903 63.4293Z" fill="#6C7AFF"/>
<path d="M78.5739 85.5865L64.8668 69.1176L63.2178 70.497C62.6994 70.9306 62.623 71.7045 63.0598 72.2293L75.2017 86.8177C75.6333 87.3362 76.4054 87.411 76.9301 86.9721L78.5791 85.5928L78.5739 85.5865Z" fill="#0BDA4E"/>
<path d="M63.6849 72.969L63.326 73.2665C61.9117 74.4478 61.5596 76.4264 62.3793 77.9888C62.4976 78.2265 62.6556 78.4547 62.8307 78.6637L68.829 85.8688C69.0041 86.0778 69.2006 86.2783 69.4165 86.4339C70.804 87.5229 72.8102 87.5302 74.2246 86.3489L74.5835 86.0515L63.6882 72.9616L63.6849 72.969Z" fill="#0BDA4E"/>
<path opacity="0.39" d="M94.3519 49.2633C91.3421 51.7783 90.9355 56.255 93.4386 59.2654C95.9417 62.2759 100.408 62.6734 103.418 60.1583C106.428 57.6432 106.834 53.1666 104.331 50.1562C101.828 47.1457 97.3616 46.7482 94.3519 49.2633Z" fill="#9374C7"/>
<path d="M62.3866 77.9921C62.505 78.2298 62.6629 78.458 62.838 78.667L68.8364 85.8721C69.0115 86.0811 69.2079 86.2816 69.4238 86.4372C70.0344 85.7426 69.0508 83.4344 67.1663 81.1623C65.2786 78.8978 63.1797 77.5097 62.3973 77.9878L62.3866 77.9921Z" fill="#FFBE0C"/>
<path opacity="0.39" d="M82.0639 60.7949L89.5726 69.8165C90.0953 70.4445 90.0101 71.3794 89.3822 71.9045L88.4016 72.7248C87.7737 73.25 86.841 73.1666 86.3184 72.5386L78.8096 63.517C78.2869 62.889 78.3722 61.9542 79 61.429L79.9807 60.6087C80.6085 60.0835 81.5412 60.1669 82.0639 60.7949Z" fill="#9374C7"/>
</g>
<defs>
<clipPath id="clip0_222_1046">
<rect width="87.2464" height="126.023" fill="white" transform="matrix(-0.917693 -0.39729 -0.39729 0.917693 130.133 34.6621)"/>
</clipPath>
</defs>
</svg>
