<svg width="873" height="446" viewBox="0 0 873 446" fill="none" xmlns="http://www.w3.org/2000/svg">
<g clip-path="url(#clip0_567_371)">
<path d="M198.82 3.34389C198.82 1.88586 197.638 0.703888 196.18 0.703888C194.722 0.703888 193.54 1.88586 193.54 3.34389C193.54 4.80192 194.722 5.98389 196.18 5.98389C197.638 5.98389 198.82 4.80192 198.82 3.34389Z" fill="#9374C7"/>
<path d="M198.82 27.2833C198.82 25.8253 197.638 24.6433 196.18 24.6433C194.722 24.6433 193.54 25.8253 193.54 27.2833C193.54 28.7414 194.722 29.9233 196.18 29.9233C197.638 29.9233 198.82 28.7414 198.82 27.2833Z" fill="#9374C7"/>
<path d="M198.821 51.213C198.822 50.6885 198.669 50.1751 198.379 49.738C198.089 49.3009 197.676 48.9597 197.192 48.7576C196.708 48.5555 196.174 48.5015 195.66 48.6027C195.145 48.7038 194.672 48.9554 194.3 49.3256C193.929 49.6958 193.675 50.1679 193.572 50.6823C193.469 51.1966 193.521 51.7299 193.721 52.2147C193.922 52.6995 194.261 53.114 194.697 53.4056C195.133 53.6973 195.646 53.853 196.17 53.853C196.872 53.853 197.544 53.5751 198.041 53.0803C198.537 52.5855 198.818 51.9141 198.821 51.213V51.213Z" fill="#9374C7"/>
<path d="M198.821 75.1434C198.821 74.6193 198.665 74.1069 198.374 73.6711C198.083 73.2354 197.669 72.8958 197.185 72.6952C196.7 72.4946 196.168 72.4422 195.654 72.5444C195.139 72.6467 194.667 72.899 194.297 73.2697C193.926 73.6403 193.674 74.1124 193.571 74.6265C193.469 75.1405 193.522 75.6734 193.722 76.1576C193.923 76.6418 194.262 77.0556 194.698 77.3468C195.134 77.638 195.646 77.7935 196.17 77.7935C196.518 77.7935 196.863 77.725 197.185 77.5918C197.506 77.4586 197.798 77.2634 198.044 77.0173C198.29 76.7713 198.486 76.4791 198.619 76.1576C198.752 75.8361 198.821 75.4914 198.821 75.1434V75.1434Z" fill="#9374C7"/>
<path d="M198.82 99.0831C198.82 97.6251 197.638 96.4431 196.18 96.4431C194.722 96.4431 193.54 97.6251 193.54 99.0831C193.54 100.541 194.722 101.723 196.18 101.723C197.638 101.723 198.82 100.541 198.82 99.0831Z" fill="#9374C7"/>
<path d="M198.505 122.003C197.951 120.655 196.408 120.011 195.06 120.565C193.711 121.12 193.068 122.662 193.622 124.011C194.177 125.359 195.719 126.003 197.068 125.449C198.416 124.894 199.06 123.352 198.505 122.003Z" fill="#9374C7"/>
<path d="M193.57 146.943C193.568 147.468 193.722 147.982 194.013 148.419C194.303 148.856 194.717 149.198 195.202 149.399C195.686 149.601 196.22 149.655 196.735 149.553C197.25 149.451 197.723 149.198 198.094 148.827C198.465 148.456 198.718 147.983 198.82 147.468C198.922 146.953 198.868 146.419 198.667 145.934C198.465 145.45 198.124 145.036 197.686 144.745C197.249 144.455 196.735 144.301 196.21 144.303C195.511 144.306 194.841 144.585 194.346 145.079C193.852 145.574 193.573 146.244 193.57 146.943V146.943Z" fill="#9374C7"/>
<path d="M177.41 3.34389C177.41 1.88586 176.228 0.703888 174.77 0.703888C173.312 0.703888 172.13 1.88586 172.13 3.34389C172.13 4.80192 173.312 5.98389 174.77 5.98389C176.228 5.98389 177.41 4.80192 177.41 3.34389Z" fill="#9374C7"/>
<path d="M177.41 27.2833C177.41 25.8253 176.228 24.6433 174.77 24.6433C173.312 24.6433 172.13 25.8253 172.13 27.2833C172.13 28.7414 173.312 29.9233 174.77 29.9233C176.228 29.9233 177.41 28.7414 177.41 27.2833Z" fill="#9374C7"/>
<path d="M177.41 51.213C177.412 50.688 177.258 50.1742 176.968 49.7369C176.677 49.2996 176.264 48.9584 175.779 48.7566C175.294 48.5548 174.761 48.5014 174.246 48.6034C173.731 48.7053 173.258 48.9579 172.886 49.3291C172.515 49.7003 172.263 50.1735 172.161 50.6885C172.059 51.2034 172.112 51.737 172.314 52.2217C172.516 52.7063 172.857 53.1201 173.294 53.4105C173.732 53.7009 174.245 53.855 174.77 53.853C175.47 53.8504 176.14 53.5713 176.634 53.0768C177.129 52.5822 177.408 51.9124 177.41 51.213V51.213Z" fill="#9374C7"/>
<path d="M177.41 75.1434C177.41 74.6189 177.255 74.1062 176.963 73.6701C176.671 73.2341 176.257 72.8945 175.772 72.6942C175.287 72.4939 174.754 72.4421 174.24 72.5451C173.725 72.6482 173.253 72.9016 172.883 73.2732C172.513 73.6448 172.261 74.118 172.16 74.6327C172.059 75.1474 172.113 75.6805 172.315 76.1645C172.517 76.6486 172.858 77.0617 173.295 77.3517C173.732 77.6416 174.246 77.7954 174.77 77.7934C175.118 77.7934 175.462 77.7248 175.783 77.5915C176.104 77.4582 176.395 77.2629 176.641 77.0167C176.886 76.7705 177.08 76.4783 177.212 76.1568C177.344 75.8354 177.412 75.4909 177.41 75.1434V75.1434Z" fill="#9374C7"/>
<path d="M177.41 99.0831C177.41 97.6251 176.228 96.4431 174.77 96.4431C173.312 96.4431 172.13 97.6251 172.13 99.0831C172.13 100.541 173.312 101.723 174.77 101.723C176.228 101.723 177.41 100.541 177.41 99.0831Z" fill="#9374C7"/>
<path d="M177.103 122.001C176.549 120.653 175.006 120.009 173.658 120.563C172.309 121.118 171.665 122.66 172.22 124.009C172.774 125.357 174.317 126.001 175.665 125.447C177.014 124.892 177.658 123.35 177.103 122.001Z" fill="#9374C7"/>
<path d="M177.41 146.943C177.41 146.419 177.255 145.906 176.963 145.47C176.671 145.034 176.257 144.694 175.772 144.494C175.287 144.294 174.754 144.242 174.24 144.345C173.725 144.448 173.253 144.701 172.883 145.073C172.513 145.445 172.261 145.918 172.16 146.432C172.059 146.947 172.113 147.48 172.315 147.964C172.517 148.448 172.858 148.861 173.295 149.151C173.732 149.441 174.246 149.595 174.77 149.593C175.118 149.593 175.462 149.525 175.783 149.391C176.104 149.258 176.395 149.063 176.641 148.816C176.886 148.57 177.08 148.278 177.212 147.957C177.344 147.635 177.412 147.291 177.41 146.943Z" fill="#9374C7"/>
<path d="M156 3.34389C156 1.88586 154.818 0.703888 153.36 0.703888C151.902 0.703888 150.72 1.88586 150.72 3.34389C150.72 4.80192 151.902 5.98389 153.36 5.98389C154.818 5.98389 156 4.80192 156 3.34389Z" fill="#9374C7"/>
<path d="M156 27.2833C156 25.8253 154.818 24.6433 153.36 24.6433C151.902 24.6433 150.72 25.8253 150.72 27.2833C150.72 28.7414 151.902 29.9233 153.36 29.9233C154.818 29.9233 156 28.7414 156 27.2833Z" fill="#9374C7"/>
<path d="M156.01 51.213C156.012 50.6885 155.858 50.1751 155.568 49.738C155.278 49.3009 154.865 48.9597 154.381 48.7576C153.897 48.5555 153.364 48.5015 152.849 48.6027C152.334 48.7038 151.861 48.9554 151.49 49.3256C151.118 49.6958 150.865 50.1679 150.762 50.6823C150.659 51.1966 150.71 51.7299 150.911 52.2147C151.111 52.6995 151.451 53.114 151.887 53.4056C152.323 53.6973 152.835 53.853 153.36 53.853C154.061 53.853 154.734 53.5751 155.23 53.0803C155.727 52.5855 156.007 51.9141 156.01 51.213V51.213Z" fill="#9374C7"/>
<path d="M156.01 75.1434C156.01 74.6193 155.855 74.1069 155.563 73.6711C155.272 73.2354 154.858 72.8958 154.374 72.6952C153.89 72.4946 153.357 72.4422 152.843 72.5444C152.329 72.6467 151.857 72.899 151.486 73.2697C151.115 73.6403 150.863 74.1124 150.761 74.6265C150.659 75.1405 150.711 75.6734 150.912 76.1576C151.112 76.6418 151.452 77.0556 151.888 77.3468C152.323 77.638 152.836 77.7935 153.36 77.7935C153.708 77.7935 154.053 77.725 154.374 77.5918C154.696 77.4586 154.988 77.2634 155.234 77.0173C155.48 76.7713 155.675 76.4791 155.808 76.1576C155.941 75.8361 156.01 75.4914 156.01 75.1434V75.1434Z" fill="#9374C7"/>
<path d="M156 99.0831C156 97.6251 154.818 96.4431 153.36 96.4431C151.902 96.4431 150.72 97.6251 150.72 99.0831C150.72 100.541 151.902 101.723 153.36 101.723C154.818 101.723 156 100.541 156 99.0831Z" fill="#9374C7"/>
<path d="M155.702 122.002C155.147 120.654 153.605 120.01 152.256 120.564C150.908 121.119 150.264 122.661 150.818 124.01C151.373 125.358 152.915 126.002 154.264 125.448C155.612 124.893 156.256 123.351 155.702 122.002Z" fill="#9374C7"/>
<path d="M156.01 146.943C156.01 146.419 155.855 145.907 155.563 145.471C155.272 145.035 154.858 144.696 154.374 144.495C153.89 144.294 153.357 144.242 152.843 144.344C152.329 144.446 151.857 144.699 151.486 145.069C151.115 145.44 150.863 145.912 150.761 146.426C150.659 146.94 150.711 147.473 150.912 147.957C151.112 148.441 151.452 148.855 151.888 149.147C152.323 149.438 152.836 149.593 153.36 149.593C154.063 149.593 154.737 149.314 155.234 148.817C155.731 148.32 156.01 147.646 156.01 146.943V146.943Z" fill="#9374C7"/>
<path d="M134.6 3.34389C134.6 1.88586 133.418 0.703888 131.96 0.703888C130.502 0.703888 129.32 1.88586 129.32 3.34389C129.32 4.80192 130.502 5.98389 131.96 5.98389C133.418 5.98389 134.6 4.80192 134.6 3.34389Z" fill="#9374C7"/>
<path d="M134.6 27.2833C134.6 25.8253 133.418 24.6433 131.96 24.6433C130.502 24.6433 129.32 25.8253 129.32 27.2833C129.32 28.7414 130.502 29.9233 131.96 29.9233C133.418 29.9233 134.6 28.7414 134.6 27.2833Z" fill="#9374C7"/>
<path d="M134.571 51.213C134.572 50.688 134.418 50.1742 134.128 49.7369C133.838 49.2996 133.424 48.9584 132.939 48.7566C132.455 48.5548 131.921 48.5014 131.406 48.6034C130.891 48.7053 130.418 48.9579 130.047 49.3291C129.676 49.7003 129.423 50.1735 129.321 50.6885C129.219 51.2034 129.272 51.737 129.474 52.2217C129.676 52.7063 130.017 53.1201 130.454 53.4105C130.892 53.7009 131.406 53.855 131.931 53.853C132.63 53.8504 133.3 53.5713 133.794 53.0768C134.289 52.5822 134.568 51.9124 134.571 51.213V51.213Z" fill="#9374C7"/>
<path d="M134.571 75.1434C134.571 74.6189 134.415 74.1062 134.123 73.6701C133.832 73.2341 133.417 72.8945 132.932 72.6942C132.448 72.4939 131.914 72.4421 131.4 72.5451C130.886 72.6482 130.413 72.9016 130.043 73.2732C129.673 73.6448 129.421 74.118 129.32 74.6327C129.219 75.1474 129.273 75.6805 129.475 76.1645C129.677 76.6486 130.018 77.0617 130.456 77.3517C130.893 77.6416 131.406 77.7954 131.931 77.7934C132.278 77.7934 132.622 77.7248 132.943 77.5915C133.264 77.4582 133.556 77.2629 133.801 77.0167C134.046 76.7705 134.24 76.4783 134.372 76.1568C134.505 75.8354 134.572 75.4909 134.571 75.1434V75.1434Z" fill="#9374C7"/>
<path d="M134.6 99.0831C134.6 97.6251 133.418 96.4431 131.96 96.4431C130.502 96.4431 129.32 97.6251 129.32 99.0831C129.32 100.541 130.502 101.723 131.96 101.723C133.418 101.723 134.6 100.541 134.6 99.0831Z" fill="#9374C7"/>
<path d="M134.299 121.999C133.745 120.651 132.202 120.007 130.854 120.561C129.505 121.116 128.862 122.659 129.416 124.007C129.97 125.356 131.513 125.999 132.862 125.445C134.21 124.89 134.854 123.348 134.299 121.999Z" fill="#9374C7"/>
<path d="M134.571 146.943C134.571 146.419 134.415 145.906 134.123 145.47C133.832 145.034 133.417 144.694 132.932 144.494C132.448 144.294 131.914 144.242 131.4 144.345C130.886 144.448 130.413 144.701 130.043 145.073C129.673 145.445 129.421 145.918 129.32 146.432C129.219 146.947 129.273 147.48 129.475 147.964C129.677 148.448 130.018 148.861 130.456 149.151C130.893 149.441 131.406 149.595 131.931 149.593C132.278 149.593 132.622 149.525 132.943 149.391C133.264 149.258 133.556 149.063 133.801 148.816C134.046 148.57 134.24 148.278 134.372 147.957C134.505 147.635 134.572 147.291 134.571 146.943V146.943Z" fill="#9374C7"/>
<path d="M113.19 3.34389C113.19 1.88586 112.008 0.703888 110.55 0.703888C109.092 0.703888 107.91 1.88586 107.91 3.34389C107.91 4.80192 109.092 5.98389 110.55 5.98389C112.008 5.98389 113.19 4.80192 113.19 3.34389Z" fill="#9374C7"/>
<path d="M113.19 27.2833C113.19 25.8253 112.008 24.6433 110.55 24.6433C109.092 24.6433 107.91 25.8253 107.91 27.2833C107.91 28.7414 109.092 29.9233 110.55 29.9233C112.008 29.9233 113.19 28.7414 113.19 27.2833Z" fill="#9374C7"/>
<path d="M113.2 51.213C113.202 50.6885 113.049 50.1751 112.759 49.738C112.469 49.3009 112.055 48.9597 111.571 48.7576C111.087 48.5555 110.554 48.5015 110.04 48.6027C109.525 48.7038 109.052 48.9554 108.68 49.3256C108.309 49.6958 108.055 50.1679 107.952 50.6823C107.849 51.1966 107.901 51.7299 108.101 52.2147C108.301 52.6995 108.641 53.114 109.077 53.4056C109.513 53.6973 110.026 53.853 110.55 53.853C111.251 53.853 111.924 53.5751 112.421 53.0803C112.917 52.5855 113.198 51.9141 113.2 51.213V51.213Z" fill="#9374C7"/>
<path d="M113.2 75.1434C113.2 74.6193 113.045 74.1069 112.754 73.6711C112.463 73.2354 112.049 72.8958 111.565 72.6952C111.08 72.4946 110.547 72.4422 110.033 72.5444C109.519 72.6467 109.047 72.899 108.677 73.2697C108.306 73.6403 108.054 74.1124 107.951 74.6265C107.849 75.1405 107.902 75.6734 108.102 76.1576C108.303 76.6418 108.642 77.0556 109.078 77.3468C109.514 77.638 110.026 77.7935 110.55 77.7935C110.898 77.7935 111.243 77.725 111.565 77.5918C111.886 77.4586 112.178 77.2634 112.424 77.0173C112.67 76.7713 112.865 76.4791 112.999 76.1576C113.132 75.8361 113.2 75.4914 113.2 75.1434V75.1434Z" fill="#9374C7"/>
<path d="M113.19 99.0831C113.19 97.6251 112.008 96.4431 110.55 96.4431C109.092 96.4431 107.91 97.6251 107.91 99.0831C107.91 100.541 109.092 101.723 110.55 101.723C112.008 101.723 113.19 100.541 113.19 99.0831Z" fill="#9374C7"/>
<path d="M112.887 122.001C112.333 120.653 110.79 120.009 109.442 120.563C108.093 121.118 107.449 122.66 108.004 124.009C108.558 125.357 110.101 126.001 111.449 125.447C112.798 124.892 113.442 123.35 112.887 122.001Z" fill="#9374C7"/>
<path d="M113.2 146.943C113.2 146.419 113.045 145.907 112.754 145.471C112.463 145.035 112.049 144.696 111.565 144.495C111.08 144.294 110.547 144.242 110.033 144.344C109.519 144.446 109.047 144.699 108.677 145.069C108.306 145.44 108.054 145.912 107.951 146.426C107.849 146.94 107.902 147.473 108.102 147.957C108.303 148.441 108.642 148.855 109.078 149.147C109.514 149.438 110.026 149.593 110.55 149.593C111.253 149.593 111.927 149.314 112.424 148.817C112.921 148.32 113.2 147.646 113.2 146.943V146.943Z" fill="#9374C7"/>
</g>
<g clip-path="url(#clip1_567_371)">
<path d="M90.9099 3.34389C90.9099 1.88586 89.7279 0.703888 88.2699 0.703888C86.8119 0.703888 85.6299 1.88586 85.6299 3.34389C85.6299 4.80192 86.8119 5.98389 88.2699 5.98389C89.7279 5.98389 90.9099 4.80192 90.9099 3.34389Z" fill="#9374C7"/>
<path d="M90.9099 27.2833C90.9099 25.8253 89.7279 24.6433 88.2699 24.6433C86.8119 24.6433 85.6299 25.8253 85.6299 27.2833C85.6299 28.7414 86.8119 29.9233 88.2699 29.9233C89.7279 29.9233 90.9099 28.7414 90.9099 27.2833Z" fill="#9374C7"/>
<path d="M90.9104 51.213C90.9123 50.6885 90.7586 50.1751 90.4686 49.738C90.1787 49.3009 89.7654 48.9597 89.2814 48.7576C88.7973 48.5555 88.2642 48.5015 87.7495 48.6027C87.2348 48.7038 86.7617 48.9554 86.3901 49.3256C86.0185 49.6958 85.7651 50.1679 85.662 50.6823C85.5589 51.1966 85.6108 51.7299 85.8111 52.2147C86.0114 52.6995 86.3511 53.114 86.7871 53.4056C87.2231 53.6973 87.7358 53.853 88.2603 53.853C88.9614 53.853 89.6339 53.5751 90.1306 53.0803C90.6273 52.5855 90.9077 51.9141 90.9104 51.213V51.213Z" fill="#9374C7"/>
<path d="M90.9104 75.1434C90.9104 74.6193 90.7549 74.1069 90.4638 73.6711C90.1726 73.2354 89.7587 72.8958 89.2745 72.6952C88.7903 72.4946 88.2574 72.4422 87.7434 72.5444C87.2293 72.6467 86.7572 72.899 86.3865 73.2697C86.0159 73.6403 85.7635 74.1124 85.6613 74.6265C85.559 75.1405 85.6115 75.6734 85.8121 76.1576C86.0127 76.6418 86.3523 77.0556 86.7881 77.3468C87.2239 77.638 87.7362 77.7935 88.2603 77.7935C88.6083 77.7935 88.953 77.725 89.2745 77.5918C89.596 77.4586 89.8881 77.2634 90.1342 77.0173C90.3802 76.7713 90.5755 76.4791 90.7087 76.1576C90.8419 75.8361 90.9104 75.4914 90.9104 75.1434V75.1434Z" fill="#9374C7"/>
<path d="M90.9099 99.0831C90.9099 97.6251 89.7279 96.4431 88.2699 96.4431C86.8119 96.4431 85.6299 97.6251 85.6299 99.0831C85.6299 100.541 86.8119 101.723 88.2699 101.723C89.7279 101.723 90.9099 100.541 90.9099 99.0831Z" fill="#9374C7"/>
<path d="M90.5952 122.003C90.0408 120.655 88.4982 120.011 87.1497 120.565C85.8012 121.12 85.1575 122.662 85.7119 124.011C86.2664 125.359 87.809 126.003 89.1575 125.449C90.506 124.894 91.1497 123.352 90.5952 122.003Z" fill="#9374C7"/>
<path d="M85.6602 146.943C85.6582 147.468 85.8122 147.982 86.1026 148.419C86.393 148.856 86.8068 149.198 87.2915 149.399C87.7761 149.601 88.3097 149.655 88.8247 149.553C89.3397 149.451 89.8128 149.198 90.184 148.827C90.5552 148.456 90.8078 147.983 90.9097 147.468C91.0116 146.953 90.9583 146.419 90.7565 145.934C90.5547 145.45 90.2135 145.036 89.7762 144.745C89.3389 144.455 88.8252 144.301 88.3002 144.303C87.6008 144.306 86.9308 144.585 86.4363 145.079C85.9418 145.574 85.6628 146.244 85.6602 146.943V146.943Z" fill="#9374C7"/>
<path d="M69.4997 3.34389C69.4997 1.88586 68.3178 0.703888 66.8597 0.703888C65.4017 0.703888 64.2197 1.88586 64.2197 3.34389C64.2197 4.80192 65.4017 5.98389 66.8597 5.98389C68.3178 5.98389 69.4997 4.80192 69.4997 3.34389Z" fill="#9374C7"/>
<path d="M69.4997 27.2833C69.4997 25.8253 68.3178 24.6433 66.8597 24.6433C65.4017 24.6433 64.2197 25.8253 64.2197 27.2833C64.2197 28.7414 65.4017 29.9233 66.8597 29.9233C68.3178 29.9233 69.4997 28.7414 69.4997 27.2833Z" fill="#9374C7"/>
<path d="M69.5002 51.213C69.5022 50.688 69.3482 50.1742 69.0578 49.7369C68.7673 49.2996 68.3535 48.9584 67.8689 48.7566C67.3843 48.5548 66.8506 48.5014 66.3357 48.6034C65.8207 48.7053 65.3475 48.9579 64.9763 49.3291C64.6051 49.7003 64.3526 50.1735 64.2506 50.6885C64.1487 51.2034 64.202 51.737 64.4038 52.2217C64.6056 52.7063 64.9469 53.1201 65.3842 53.4105C65.8215 53.7009 66.3352 53.855 66.8602 53.853C67.5595 53.8504 68.2295 53.5713 68.724 53.0768C69.2185 52.5822 69.4976 51.9124 69.5002 51.213V51.213Z" fill="#9374C7"/>
<path d="M69.5002 75.1434C69.5002 74.6189 69.3445 74.1062 69.0529 73.6701C68.7612 73.2341 68.3468 72.8945 67.862 72.6942C67.3772 72.4939 66.8438 72.4421 66.3295 72.5451C65.8152 72.6482 65.343 72.9016 64.9728 73.2732C64.6026 73.6448 64.351 74.118 64.2499 74.6327C64.1488 75.1474 64.2027 75.6805 64.4048 76.1645C64.6069 76.6486 64.9481 77.0617 65.3852 77.3517C65.8223 77.6416 66.3356 77.7954 66.8602 77.7934C67.2077 77.7934 67.5518 77.7248 67.8728 77.5915C68.1937 77.4582 68.4852 77.2629 68.7305 77.0167C68.9758 76.7705 69.17 76.4783 69.3021 76.1568C69.4342 75.8354 69.5015 75.4909 69.5002 75.1434V75.1434Z" fill="#9374C7"/>
<path d="M69.4997 99.0831C69.4997 97.6251 68.3178 96.4431 66.8597 96.4431C65.4017 96.4431 64.2197 97.6251 64.2197 99.0831C64.2197 100.541 65.4017 101.723 66.8597 101.723C68.3178 101.723 69.4997 100.541 69.4997 99.0831Z" fill="#9374C7"/>
<path d="M69.193 122.001C68.6385 120.653 67.0959 120.009 65.7474 120.563C64.3989 121.118 63.7551 122.66 64.3096 124.009C64.864 125.357 66.4067 126.001 67.7552 125.447C69.1037 124.892 69.7474 123.35 69.193 122.001Z" fill="#9374C7"/>
<path d="M69.5002 146.943C69.5002 146.419 69.3445 145.906 69.0529 145.47C68.7612 145.034 68.3468 144.694 67.862 144.494C67.3772 144.294 66.8438 144.242 66.3295 144.345C65.8152 144.448 65.343 144.701 64.9728 145.073C64.6026 145.445 64.351 145.918 64.2499 146.432C64.1488 146.947 64.2027 147.48 64.4048 147.964C64.6069 148.448 64.9481 148.861 65.3852 149.151C65.8223 149.441 66.3356 149.595 66.8602 149.593C67.2077 149.593 67.5518 149.525 67.8728 149.391C68.1937 149.258 68.4852 149.063 68.7305 148.816C68.9758 148.57 69.17 148.278 69.3021 147.957C69.4342 147.635 69.5015 147.291 69.5002 146.943Z" fill="#9374C7"/>
<path d="M48.0896 3.34389C48.0896 1.88586 46.9076 0.703888 45.4496 0.703888C43.9915 0.703888 42.8096 1.88586 42.8096 3.34389C42.8096 4.80192 43.9915 5.98389 45.4496 5.98389C46.9076 5.98389 48.0896 4.80192 48.0896 3.34389Z" fill="#9374C7"/>
<path d="M48.0896 27.2833C48.0896 25.8253 46.9076 24.6433 45.4496 24.6433C43.9915 24.6433 42.8096 25.8253 42.8096 27.2833C42.8096 28.7414 43.9915 29.9233 45.4496 29.9233C46.9076 29.9233 48.0896 28.7414 48.0896 27.2833Z" fill="#9374C7"/>
<path d="M48.0998 51.213C48.1018 50.6885 47.9481 50.1751 47.6581 49.738C47.3681 49.3009 46.9549 48.9597 46.4708 48.7576C45.9868 48.5555 45.4537 48.5015 44.939 48.6027C44.4243 48.7038 43.9512 48.9554 43.5795 49.3256C43.2079 49.6958 42.9545 50.1679 42.8515 50.6823C42.7484 51.1966 42.8003 51.7299 43.0006 52.2147C43.2008 52.6995 43.5405 53.114 43.9765 53.4056C44.4125 53.6973 44.9252 53.853 45.4498 53.853C46.1509 53.853 46.8234 53.5751 47.3201 53.0803C47.8168 52.5855 48.0972 51.9141 48.0998 51.213V51.213Z" fill="#9374C7"/>
<path d="M48.0998 75.1434C48.0998 74.6193 47.9444 74.1069 47.6532 73.6711C47.362 73.2354 46.9482 72.8958 46.4639 72.6952C45.9797 72.4946 45.4469 72.4422 44.9328 72.5444C44.4188 72.6467 43.9465 72.899 43.5759 73.2697C43.2053 73.6403 42.953 74.1124 42.8507 74.6265C42.7485 75.1405 42.801 75.6734 43.0015 76.1576C43.2021 76.6418 43.5418 77.0556 43.9776 77.3468C44.4133 77.638 44.9257 77.7935 45.4498 77.7935C45.7978 77.7935 46.1424 77.725 46.4639 77.5918C46.7855 77.4586 47.0775 77.2634 47.3236 77.0173C47.5697 76.7713 47.7649 76.4791 47.8981 76.1576C48.0313 75.8361 48.0998 75.4914 48.0998 75.1434V75.1434Z" fill="#9374C7"/>
<path d="M48.0896 99.0831C48.0896 97.6251 46.9076 96.4431 45.4496 96.4431C43.9915 96.4431 42.8096 97.6251 42.8096 99.0831C42.8096 100.541 43.9915 101.723 45.4496 101.723C46.9076 101.723 48.0896 100.541 48.0896 99.0831Z" fill="#9374C7"/>
<path d="M47.7915 122.002C47.2371 120.654 45.6944 120.01 44.3459 120.564C42.9974 121.119 42.3538 122.661 42.9082 124.01C43.4626 125.358 45.0052 126.002 46.3537 125.448C47.7022 124.893 48.346 123.351 47.7915 122.002Z" fill="#9374C7"/>
<path d="M48.0998 146.943C48.0998 146.419 47.9444 145.907 47.6532 145.471C47.362 145.035 46.9482 144.696 46.4639 144.495C45.9797 144.294 45.4469 144.242 44.9328 144.344C44.4188 144.446 43.9465 144.699 43.5759 145.069C43.2053 145.44 42.953 145.912 42.8507 146.426C42.7485 146.94 42.801 147.473 43.0015 147.957C43.2021 148.441 43.5418 148.855 43.9776 149.147C44.4133 149.438 44.9257 149.593 45.4498 149.593C46.1526 149.593 46.8266 149.314 47.3236 148.817C47.8206 148.32 48.0998 147.646 48.0998 146.943V146.943Z" fill="#9374C7"/>
<path d="M26.6902 3.34389C26.6902 1.88586 25.5082 0.703888 24.0502 0.703888C22.5921 0.703888 21.4102 1.88586 21.4102 3.34389C21.4102 4.80192 22.5921 5.98389 24.0502 5.98389C25.5082 5.98389 26.6902 4.80192 26.6902 3.34389Z" fill="#9374C7"/>
<path d="M26.6902 27.2833C26.6902 25.8253 25.5082 24.6433 24.0502 24.6433C22.5921 24.6433 21.4102 25.8253 21.4102 27.2833C21.4102 28.7414 22.5921 29.9233 24.0502 29.9233C25.5082 29.9233 26.6902 28.7414 26.6902 27.2833Z" fill="#9374C7"/>
<path d="M26.6604 51.213C26.6623 50.688 26.5083 50.1742 26.2179 49.7369C25.9275 49.2996 25.5137 48.9584 25.0291 48.7566C24.5444 48.5548 24.0108 48.5014 23.4958 48.6034C22.9808 48.7053 22.5078 48.9579 22.1366 49.3291C21.7653 49.7003 21.5127 50.1735 21.4108 50.6885C21.3089 51.2034 21.3622 51.737 21.564 52.2217C21.7658 52.7063 22.107 53.1201 22.5443 53.4105C22.9817 53.7009 23.4954 53.855 24.0203 53.853C24.7197 53.8504 25.3897 53.5713 25.8842 53.0768C26.3788 52.5822 26.6577 51.9124 26.6604 51.213V51.213Z" fill="#9374C7"/>
<path d="M26.6604 75.1434C26.6604 74.6189 26.5047 74.1062 26.213 73.6701C25.9214 73.2341 25.507 72.8945 25.0222 72.6942C24.5374 72.4939 24.004 72.4421 23.4897 72.5451C22.9754 72.6482 22.5032 72.9016 22.133 73.2732C21.7628 73.6448 21.5112 74.118 21.4101 74.6327C21.3089 75.1474 21.3629 75.6805 21.565 76.1645C21.7671 76.6486 22.1083 77.0617 22.5454 77.3517C22.9825 77.6416 23.4958 77.7954 24.0203 77.7934C24.3679 77.7934 24.712 77.7248 25.033 77.5915C25.3539 77.4582 25.6454 77.2629 25.8906 77.0167C26.1359 76.7705 26.3302 76.4783 26.4623 76.1568C26.5944 75.8354 26.6617 75.4909 26.6604 75.1434V75.1434Z" fill="#9374C7"/>
<path d="M26.6902 99.0831C26.6902 97.6251 25.5082 96.4431 24.0502 96.4431C22.5921 96.4431 21.4102 97.6251 21.4102 99.0831C21.4102 100.541 22.5921 101.723 24.0502 101.723C25.5082 101.723 26.6902 100.541 26.6902 99.0831Z" fill="#9374C7"/>
<path d="M26.3892 121.999C25.8348 120.651 24.2922 120.007 22.9437 120.561C21.5952 121.116 20.9514 122.659 21.5059 124.007C22.0603 125.356 23.603 125.999 24.9515 125.445C26.3 124.89 26.9437 123.348 26.3892 121.999Z" fill="#9374C7"/>
<path d="M26.6604 146.943C26.6604 146.419 26.5047 145.906 26.213 145.47C25.9214 145.034 25.507 144.694 25.0222 144.494C24.5374 144.294 24.004 144.242 23.4897 144.345C22.9754 144.448 22.5032 144.701 22.133 145.073C21.7628 145.445 21.5112 145.918 21.4101 146.432C21.3089 146.947 21.3629 147.48 21.565 147.964C21.7671 148.448 22.1083 148.861 22.5454 149.151C22.9825 149.441 23.4958 149.595 24.0203 149.593C24.3679 149.593 24.712 149.525 25.033 149.391C25.3539 149.258 25.6454 149.063 25.8906 148.816C26.1359 148.57 26.3302 148.278 26.4623 147.957C26.5944 147.635 26.6617 147.291 26.6604 146.943V146.943Z" fill="#9374C7"/>
<path d="M5.28 3.34389C5.28 1.88586 4.09803 0.703888 2.64 0.703888C1.18197 0.703888 -1.79488e-07 1.88586 -1.15628e-07 3.34389C-5.17686e-08 4.80192 1.18197 5.98389 2.64 5.98389C4.09803 5.98389 5.28 4.80192 5.28 3.34389Z" fill="#9374C7"/>
<path d="M5.28 27.2833C5.28 25.8253 4.09803 24.6433 2.64 24.6433C1.18197 24.6433 -1.79488e-07 25.8253 -1.15628e-07 27.2833C-5.17686e-08 28.7414 1.18197 29.9233 2.64 29.9233C4.09803 29.9233 5.28 28.7414 5.28 27.2833Z" fill="#9374C7"/>
<path d="M5.29024 51.213C5.29222 50.6885 5.13851 50.1751 4.84853 49.738C4.55855 49.3009 4.14532 48.9597 3.66127 48.7576C3.17723 48.5555 2.64412 48.5015 2.12941 48.6027C1.61471 48.7038 1.14159 48.9554 0.769978 49.3256C0.398367 49.6958 0.144953 50.1679 0.0418893 50.6823C-0.0611746 51.1966 -0.00927678 51.7299 0.190998 52.2147C0.391273 52.6995 0.730946 53.114 1.16695 53.4056C1.60295 53.6973 2.11567 53.853 2.64022 53.853C3.34131 53.853 4.01383 53.5751 4.51052 53.0803C5.0072 52.5855 5.2876 51.9141 5.29024 51.213V51.213Z" fill="#9374C7"/>
<path d="M5.29023 75.1434C5.29023 74.6193 5.13483 74.1069 4.84364 73.6711C4.55245 73.2354 4.13859 72.8958 3.65437 72.6952C3.17015 72.4946 2.63729 72.4422 2.12324 72.5444C1.60919 72.6467 1.13698 72.899 0.76637 73.2697C0.39576 73.6403 0.143401 74.1124 0.0411499 74.6265C-0.0611009 75.1405 -0.00860443 75.6734 0.191968 76.1576C0.39254 76.6418 0.732191 77.0556 1.16798 77.3468C1.60377 77.638 2.11609 77.7935 2.64021 77.7935C2.98821 77.7935 3.33286 77.725 3.65437 77.5918C3.97588 77.4586 4.26798 77.2634 4.51405 77.0173C4.76013 76.7713 4.95534 76.4791 5.08851 76.1576C5.22169 75.8361 5.29023 75.4914 5.29023 75.1434V75.1434Z" fill="#9374C7"/>
<path d="M5.28 99.0831C5.28 97.6251 4.09803 96.4431 2.64 96.4431C1.18197 96.4431 -1.79488e-07 97.6251 -1.15628e-07 99.0831C-5.17686e-08 100.541 1.18197 101.723 2.64 101.723C4.09803 101.723 5.28 100.541 5.28 99.0831Z" fill="#9374C7"/>
<path d="M4.97708 122.001C4.42265 120.653 2.87999 120.009 1.53149 120.563C0.182988 121.118 -0.460681 122.66 0.0937552 124.009C0.648191 125.357 2.19079 126.001 3.53929 125.447C4.88779 124.892 5.53152 123.35 4.97708 122.001Z" fill="#9374C7"/>
<path d="M5.29023 146.943C5.29023 146.419 5.13483 145.907 4.84364 145.471C4.55245 145.035 4.13859 144.696 3.65437 144.495C3.17015 144.294 2.63729 144.242 2.12324 144.344C1.60919 144.446 1.13698 144.699 0.76637 145.069C0.39576 145.44 0.143401 145.912 0.0411499 146.426C-0.0611009 146.94 -0.00860443 147.473 0.191968 147.957C0.39254 148.441 0.732191 148.855 1.16798 149.147C1.60377 149.438 2.11609 149.593 2.64021 149.593C3.34303 149.593 4.01708 149.314 4.51405 148.817C5.01102 148.32 5.29023 147.646 5.29023 146.943V146.943Z" fill="#9374C7"/>
</g>
<g clip-path="url(#clip2_567_371)">
<path d="M872.979 299.751C872.979 298.293 871.797 297.111 870.339 297.111C868.881 297.111 867.699 298.293 867.699 299.751C867.699 301.209 868.881 302.391 870.339 302.391C871.797 302.391 872.979 301.209 872.979 299.751Z" fill="#0BDA4E"/>
<path d="M872.979 323.69C872.979 322.232 871.797 321.05 870.339 321.05C868.881 321.05 867.699 322.232 867.699 323.69C867.699 325.148 868.881 326.33 870.339 326.33C871.797 326.33 872.979 325.148 872.979 323.69Z" fill="#0BDA4E"/>
<path d="M872.98 347.62C872.982 347.095 872.828 346.582 872.538 346.145C872.248 345.708 871.835 345.366 871.351 345.164C870.867 344.962 870.334 344.908 869.819 345.009C869.304 345.111 868.831 345.362 868.459 345.732C868.088 346.103 867.834 346.575 867.731 347.089C867.628 347.603 867.68 348.137 867.88 348.621C868.081 349.106 868.42 349.521 868.856 349.812C869.292 350.104 869.805 350.26 870.33 350.26C871.031 350.26 871.703 349.982 872.2 349.487C872.697 348.992 872.977 348.321 872.98 347.62V347.62Z" fill="#0BDA4E"/>
<path d="M872.98 371.55C872.98 371.026 872.824 370.514 872.533 370.078C872.242 369.642 871.828 369.303 871.344 369.102C870.86 368.901 870.327 368.849 869.813 368.951C869.299 369.053 868.826 369.306 868.456 369.676C868.085 370.047 867.833 370.519 867.731 371.033C867.628 371.547 867.681 372.08 867.881 372.564C868.082 373.049 868.422 373.462 868.857 373.754C869.293 374.045 869.806 374.2 870.33 374.2C870.678 374.2 871.022 374.132 871.344 373.999C871.665 373.865 871.957 373.67 872.204 373.424C872.45 373.178 872.645 372.886 872.778 372.564C872.911 372.243 872.98 371.898 872.98 371.55V371.55Z" fill="#0BDA4E"/>
<path d="M872.979 395.49C872.979 394.032 871.797 392.85 870.339 392.85C868.881 392.85 867.699 394.032 867.699 395.49C867.699 396.948 868.881 398.13 870.339 398.13C871.797 398.13 872.979 396.948 872.979 395.49Z" fill="#0BDA4E"/>
<path d="M872.665 418.41C872.11 417.061 870.567 416.418 869.219 416.972C867.87 417.527 867.227 419.069 867.781 420.418C868.336 421.766 869.878 422.41 871.227 421.855C872.575 421.301 873.219 419.758 872.665 418.41Z" fill="#0BDA4E"/>
<path d="M867.73 443.35C867.728 443.875 867.882 444.388 868.172 444.826C868.462 445.263 868.876 445.604 869.361 445.806C869.845 446.008 870.379 446.061 870.894 445.959C871.409 445.857 871.882 445.605 872.253 445.234C872.625 444.862 872.877 444.389 872.979 443.874C873.081 443.359 873.028 442.826 872.826 442.341C872.624 441.856 872.283 441.443 871.846 441.152C871.408 440.862 870.894 440.708 870.37 440.71C869.67 440.712 869 440.991 868.506 441.486C868.011 441.98 867.732 442.65 867.73 443.35V443.35Z" fill="#0BDA4E"/>
<path d="M851.569 299.751C851.569 298.293 850.387 297.111 848.929 297.111C847.471 297.111 846.289 298.293 846.289 299.751C846.289 301.209 847.471 302.391 848.929 302.391C850.387 302.391 851.569 301.209 851.569 299.751Z" fill="#0BDA4E"/>
<path d="M851.569 323.69C851.569 322.232 850.387 321.05 848.929 321.05C847.471 321.05 846.289 322.232 846.289 323.69C846.289 325.148 847.471 326.33 848.929 326.33C850.387 326.33 851.569 325.148 851.569 323.69Z" fill="#0BDA4E"/>
<path d="M851.57 347.62C851.572 347.095 851.418 346.581 851.127 346.144C850.837 345.706 850.423 345.365 849.938 345.163C849.454 344.962 848.92 344.908 848.405 345.01C847.89 345.112 847.417 345.365 847.046 345.736C846.674 346.107 846.422 346.58 846.32 347.095C846.218 347.61 846.271 348.144 846.473 348.628C846.675 349.113 847.016 349.527 847.454 349.817C847.891 350.108 848.405 350.262 848.93 350.26C849.629 350.257 850.299 349.978 850.793 349.484C851.288 348.989 851.567 348.319 851.57 347.62V347.62Z" fill="#0BDA4E"/>
<path d="M851.57 371.55C851.57 371.026 851.414 370.513 851.122 370.077C850.831 369.641 850.416 369.301 849.931 369.101C849.446 368.901 848.913 368.849 848.399 368.952C847.885 369.055 847.412 369.308 847.042 369.68C846.672 370.052 846.42 370.525 846.319 371.039C846.218 371.554 846.272 372.087 846.474 372.571C846.676 373.055 847.017 373.468 847.455 373.758C847.892 374.048 848.405 374.202 848.93 374.2C849.277 374.2 849.621 374.132 849.942 373.998C850.263 373.865 850.555 373.67 850.8 373.423C851.045 373.177 851.239 372.885 851.371 372.564C851.504 372.242 851.571 371.898 851.57 371.55V371.55Z" fill="#0BDA4E"/>
<path d="M851.569 395.49C851.569 394.032 850.387 392.85 848.929 392.85C847.471 392.85 846.289 394.032 846.289 395.49C846.289 396.948 847.471 398.13 848.929 398.13C850.387 398.13 851.569 396.948 851.569 395.49Z" fill="#0BDA4E"/>
<path d="M851.262 418.408C850.708 417.059 849.165 416.416 847.817 416.97C846.468 417.525 845.824 419.067 846.379 420.416C846.933 421.764 848.476 422.408 849.825 421.854C851.173 421.299 851.817 419.756 851.262 418.408Z" fill="#0BDA4E"/>
<path d="M851.57 443.35C851.57 442.825 851.414 442.313 851.122 441.877C850.831 441.441 850.416 441.101 849.931 440.901C849.446 440.7 848.913 440.649 848.399 440.752C847.885 440.855 847.412 441.108 847.042 441.48C846.672 441.851 846.42 442.324 846.319 442.839C846.218 443.354 846.272 443.887 846.474 444.371C846.676 444.855 847.017 445.268 847.455 445.558C847.892 445.848 848.405 446.002 848.93 446C849.277 446 849.621 445.931 849.942 445.798C850.263 445.665 850.555 445.469 850.8 445.223C851.045 444.977 851.239 444.685 851.371 444.363C851.504 444.042 851.571 443.697 851.57 443.35Z" fill="#0BDA4E"/>
<path d="M830.159 299.751C830.159 298.293 828.977 297.111 827.519 297.111C826.061 297.111 824.879 298.293 824.879 299.751C824.879 301.209 826.061 302.391 827.519 302.391C828.977 302.391 830.159 301.209 830.159 299.751Z" fill="#0BDA4E"/>
<path d="M830.159 323.69C830.159 322.232 828.977 321.05 827.519 321.05C826.061 321.05 824.879 322.232 824.879 323.69C824.879 325.148 826.061 326.33 827.519 326.33C828.977 326.33 830.159 325.148 830.159 323.69Z" fill="#0BDA4E"/>
<path d="M830.169 347.62C830.171 347.095 830.017 346.582 829.727 346.145C829.437 345.708 829.024 345.366 828.54 345.164C828.056 344.962 827.523 344.908 827.008 345.009C826.494 345.111 826.02 345.362 825.649 345.732C825.277 346.103 825.024 346.575 824.921 347.089C824.818 347.603 824.87 348.137 825.07 348.621C825.27 349.106 825.61 349.521 826.046 349.812C826.482 350.104 826.995 350.26 827.519 350.26C828.22 350.26 828.893 349.982 829.389 349.487C829.886 348.992 830.167 348.321 830.169 347.62V347.62Z" fill="#0BDA4E"/>
<path d="M830.169 371.55C830.169 371.026 830.014 370.514 829.723 370.078C829.431 369.642 829.018 369.303 828.533 369.102C828.049 368.901 827.516 368.849 827.002 368.951C826.488 369.053 826.016 369.306 825.645 369.676C825.275 370.047 825.022 370.519 824.92 371.033C824.818 371.547 824.87 372.08 825.071 372.564C825.271 373.049 825.611 373.462 826.047 373.754C826.483 374.045 826.995 374.2 827.519 374.2C827.867 374.2 828.212 374.132 828.533 373.999C828.855 373.865 829.147 373.67 829.393 373.424C829.639 373.178 829.834 372.886 829.967 372.564C830.101 372.243 830.169 371.898 830.169 371.55V371.55Z" fill="#0BDA4E"/>
<path d="M830.159 395.49C830.159 394.032 828.977 392.85 827.519 392.85C826.061 392.85 824.879 394.032 824.879 395.49C824.879 396.948 826.061 398.13 827.519 398.13C828.977 398.13 830.159 396.948 830.159 395.49Z" fill="#0BDA4E"/>
<path d="M829.861 418.409C829.306 417.06 827.764 416.417 826.415 416.971C825.067 417.526 824.423 419.068 824.978 420.417C825.532 421.765 827.075 422.409 828.423 421.855C829.772 421.3 830.415 419.757 829.861 418.409Z" fill="#0BDA4E"/>
<path d="M830.169 443.35C830.169 442.826 830.014 442.313 829.723 441.878C829.431 441.442 829.018 441.102 828.533 440.902C828.049 440.701 827.516 440.649 827.002 440.751C826.488 440.853 826.016 441.105 825.645 441.476C825.275 441.847 825.022 442.319 824.92 442.833C824.818 443.347 824.87 443.88 825.071 444.364C825.271 444.848 825.611 445.262 826.047 445.553C826.483 445.845 826.995 446 827.519 446C828.222 446 828.896 445.721 829.393 445.224C829.89 444.727 830.169 444.053 830.169 443.35V443.35Z" fill="#0BDA4E"/>
<path d="M808.759 299.751C808.759 298.293 807.578 297.111 806.119 297.111C804.661 297.111 803.479 298.293 803.479 299.751C803.479 301.209 804.661 302.391 806.119 302.391C807.578 302.391 808.759 301.209 808.759 299.751Z" fill="#0BDA4E"/>
<path d="M808.759 323.69C808.759 322.232 807.578 321.05 806.119 321.05C804.661 321.05 803.479 322.232 803.479 323.69C803.479 325.148 804.661 326.33 806.119 326.33C807.578 326.33 808.759 325.148 808.759 323.69Z" fill="#0BDA4E"/>
<path d="M808.73 347.62C808.732 347.095 808.578 346.581 808.287 346.144C807.997 345.706 807.583 345.365 807.098 345.163C806.614 344.962 806.08 344.908 805.565 345.01C805.05 345.112 804.577 345.365 804.206 345.736C803.835 346.107 803.582 346.58 803.48 347.095C803.378 347.61 803.432 348.144 803.633 348.628C803.835 349.113 804.176 349.527 804.614 349.817C805.051 350.108 805.565 350.262 806.09 350.26C806.789 350.257 807.459 349.978 807.954 349.484C808.448 348.989 808.727 348.319 808.73 347.62V347.62Z" fill="#0BDA4E"/>
<path d="M808.73 371.55C808.73 371.026 808.574 370.513 808.282 370.077C807.991 369.641 807.576 369.301 807.092 369.101C806.607 368.901 806.073 368.849 805.559 368.952C805.045 369.055 804.573 369.308 804.202 369.68C803.832 370.052 803.581 370.525 803.479 371.039C803.378 371.554 803.432 372.087 803.634 372.571C803.836 373.055 804.178 373.468 804.615 373.758C805.052 374.048 805.565 374.202 806.09 374.2C806.437 374.2 806.781 374.132 807.102 373.998C807.423 373.865 807.715 373.67 807.96 373.423C808.205 373.177 808.4 372.885 808.532 372.564C808.664 372.242 808.731 371.898 808.73 371.55V371.55Z" fill="#0BDA4E"/>
<path d="M808.759 395.49C808.759 394.032 807.578 392.85 806.119 392.85C804.661 392.85 803.479 394.032 803.479 395.49C803.479 396.948 804.661 398.13 806.119 398.13C807.578 398.13 808.759 396.948 808.759 395.49Z" fill="#0BDA4E"/>
<path d="M808.459 418.406C807.904 417.057 806.361 416.414 805.013 416.968C803.664 417.523 803.021 419.065 803.575 420.414C804.13 421.762 805.672 422.406 807.021 421.852C808.369 421.297 809.013 419.754 808.459 418.406Z" fill="#0BDA4E"/>
<path d="M808.73 443.35C808.73 442.825 808.574 442.313 808.282 441.877C807.991 441.441 807.576 441.101 807.092 440.901C806.607 440.7 806.073 440.649 805.559 440.752C805.045 440.855 804.573 441.108 804.202 441.48C803.832 441.851 803.581 442.324 803.479 442.839C803.378 443.354 803.432 443.887 803.634 444.371C803.836 444.855 804.178 445.268 804.615 445.558C805.052 445.848 805.565 446.002 806.09 446C806.437 446 806.781 445.931 807.102 445.798C807.423 445.665 807.715 445.469 807.96 445.223C808.205 444.977 808.4 444.685 808.532 444.363C808.664 444.042 808.731 443.697 808.73 443.35V443.35Z" fill="#0BDA4E"/>
<path d="M787.349 299.751C787.349 298.293 786.167 297.111 784.709 297.111C783.251 297.111 782.069 298.293 782.069 299.751C782.069 301.209 783.251 302.391 784.709 302.391C786.167 302.391 787.349 301.209 787.349 299.751Z" fill="#0BDA4E"/>
<path d="M787.349 323.69C787.349 322.232 786.167 321.05 784.709 321.05C783.251 321.05 782.069 322.232 782.069 323.69C782.069 325.148 783.251 326.33 784.709 326.33C786.167 326.33 787.349 325.148 787.349 323.69Z" fill="#0BDA4E"/>
<path d="M787.36 347.62C787.362 347.095 787.208 346.582 786.918 346.145C786.628 345.708 786.215 345.366 785.731 345.164C785.247 344.962 784.713 344.908 784.199 345.009C783.684 345.111 783.211 345.362 782.839 345.732C782.468 346.103 782.214 346.575 782.111 347.089C782.008 347.603 782.06 348.137 782.26 348.621C782.461 349.106 782.8 349.521 783.236 349.812C783.672 350.104 784.185 350.26 784.71 350.26C785.411 350.26 786.083 349.982 786.58 349.487C787.077 348.992 787.357 348.321 787.36 347.62V347.62Z" fill="#0BDA4E"/>
<path d="M787.36 371.55C787.36 371.026 787.204 370.514 786.913 370.078C786.622 369.642 786.208 369.303 785.724 369.102C785.239 368.901 784.707 368.849 784.193 368.951C783.679 369.053 783.206 369.306 782.836 369.676C782.465 370.047 782.213 370.519 782.11 371.033C782.008 371.547 782.061 372.08 782.261 372.564C782.462 373.049 782.802 373.462 783.237 373.754C783.673 374.045 784.185 374.2 784.71 374.2C785.058 374.2 785.402 374.132 785.724 373.999C786.045 373.865 786.337 373.67 786.583 373.424C786.829 373.178 787.025 372.886 787.158 372.564C787.291 372.243 787.36 371.898 787.36 371.55V371.55Z" fill="#0BDA4E"/>
<path d="M787.349 395.49C787.349 394.032 786.167 392.85 784.709 392.85C783.251 392.85 782.069 394.032 782.069 395.49C782.069 396.948 783.251 398.13 784.709 398.13C786.167 398.13 787.349 396.948 787.349 395.49Z" fill="#0BDA4E"/>
<path d="M787.046 418.408C786.492 417.059 784.949 416.416 783.601 416.97C782.252 417.525 781.609 419.067 782.163 420.416C782.718 421.764 784.26 422.408 785.609 421.854C786.957 421.299 787.601 419.756 787.046 418.408Z" fill="#0BDA4E"/>
<path d="M787.36 443.35C787.36 442.826 787.204 442.313 786.913 441.878C786.622 441.442 786.208 441.102 785.724 440.902C785.239 440.701 784.707 440.649 784.193 440.751C783.679 440.853 783.206 441.105 782.836 441.476C782.465 441.847 782.213 442.319 782.11 442.833C782.008 443.347 782.061 443.88 782.261 444.364C782.462 444.848 782.802 445.262 783.237 445.553C783.673 445.845 784.185 446 784.71 446C785.412 446 786.086 445.721 786.583 445.224C787.08 444.727 787.36 444.053 787.36 443.35V443.35Z" fill="#0BDA4E"/>
</g>
<g clip-path="url(#clip3_567_371)">
<path d="M764.979 299.751C764.979 298.293 763.797 297.111 762.339 297.111C760.881 297.111 759.699 298.293 759.699 299.751C759.699 301.209 760.881 302.391 762.339 302.391C763.797 302.391 764.979 301.209 764.979 299.751Z" fill="#0BDA4E"/>
<path d="M764.979 323.69C764.979 322.232 763.797 321.05 762.339 321.05C760.881 321.05 759.699 322.232 759.699 323.69C759.699 325.148 760.881 326.33 762.339 326.33C763.797 326.33 764.979 325.148 764.979 323.69Z" fill="#0BDA4E"/>
<path d="M764.98 347.62C764.982 347.095 764.828 346.582 764.538 346.145C764.248 345.708 763.835 345.366 763.351 345.164C762.867 344.962 762.334 344.908 761.819 345.009C761.304 345.111 760.831 345.362 760.459 345.732C760.088 346.103 759.834 346.575 759.731 347.089C759.628 347.603 759.68 348.137 759.88 348.621C760.081 349.106 760.42 349.521 760.856 349.812C761.292 350.104 761.805 350.26 762.33 350.26C763.031 350.26 763.703 349.982 764.2 349.487C764.697 348.992 764.977 348.321 764.98 347.62V347.62Z" fill="#0BDA4E"/>
<path d="M764.98 371.55C764.98 371.026 764.824 370.514 764.533 370.078C764.242 369.642 763.828 369.303 763.344 369.102C762.86 368.901 762.327 368.849 761.813 368.951C761.299 369.053 760.826 369.306 760.456 369.676C760.085 370.047 759.833 370.519 759.731 371.033C759.628 371.547 759.681 372.08 759.881 372.564C760.082 373.049 760.422 373.462 760.857 373.754C761.293 374.045 761.806 374.2 762.33 374.2C762.678 374.2 763.022 374.132 763.344 373.999C763.665 373.865 763.957 373.67 764.204 373.424C764.45 373.178 764.645 372.886 764.778 372.564C764.911 372.243 764.98 371.898 764.98 371.55V371.55Z" fill="#0BDA4E"/>
<path d="M764.979 395.49C764.979 394.032 763.797 392.85 762.339 392.85C760.881 392.85 759.699 394.032 759.699 395.49C759.699 396.948 760.881 398.13 762.339 398.13C763.797 398.13 764.979 396.948 764.979 395.49Z" fill="#0BDA4E"/>
<path d="M764.665 418.41C764.11 417.061 762.567 416.418 761.219 416.972C759.87 417.527 759.227 419.069 759.781 420.418C760.336 421.766 761.878 422.41 763.227 421.855C764.575 421.301 765.219 419.758 764.665 418.41Z" fill="#0BDA4E"/>
<path d="M759.73 443.35C759.728 443.875 759.882 444.388 760.172 444.826C760.462 445.263 760.876 445.604 761.361 445.806C761.845 446.008 762.379 446.061 762.894 445.959C763.409 445.857 763.882 445.605 764.253 445.234C764.625 444.862 764.877 444.389 764.979 443.874C765.081 443.359 765.028 442.826 764.826 442.341C764.624 441.856 764.283 441.443 763.846 441.152C763.408 440.862 762.894 440.708 762.37 440.71C761.67 440.712 761 440.991 760.506 441.486C760.011 441.98 759.732 442.65 759.73 443.35V443.35Z" fill="#0BDA4E"/>
<path d="M743.569 299.751C743.569 298.293 742.387 297.111 740.929 297.111C739.471 297.111 738.289 298.293 738.289 299.751C738.289 301.209 739.471 302.391 740.929 302.391C742.387 302.391 743.569 301.209 743.569 299.751Z" fill="#0BDA4E"/>
<path d="M743.569 323.69C743.569 322.232 742.387 321.05 740.929 321.05C739.471 321.05 738.289 322.232 738.289 323.69C738.289 325.148 739.471 326.33 740.929 326.33C742.387 326.33 743.569 325.148 743.569 323.69Z" fill="#0BDA4E"/>
<path d="M743.57 347.62C743.572 347.095 743.418 346.581 743.127 346.144C742.837 345.706 742.423 345.365 741.938 345.163C741.454 344.962 740.92 344.908 740.405 345.01C739.89 345.112 739.417 345.365 739.046 345.736C738.674 346.107 738.422 346.58 738.32 347.095C738.218 347.61 738.271 348.144 738.473 348.628C738.675 349.113 739.016 349.527 739.454 349.817C739.891 350.108 740.405 350.262 740.93 350.26C741.629 350.257 742.299 349.978 742.793 349.484C743.288 348.989 743.567 348.319 743.57 347.62V347.62Z" fill="#0BDA4E"/>
<path d="M743.57 371.55C743.57 371.026 743.414 370.513 743.122 370.077C742.831 369.641 742.416 369.301 741.931 369.101C741.446 368.901 740.913 368.849 740.399 368.952C739.885 369.055 739.412 369.308 739.042 369.68C738.672 370.052 738.42 370.525 738.319 371.039C738.218 371.554 738.272 372.087 738.474 372.571C738.676 373.055 739.017 373.468 739.455 373.758C739.892 374.048 740.405 374.202 740.93 374.2C741.277 374.2 741.621 374.132 741.942 373.998C742.263 373.865 742.555 373.67 742.8 373.423C743.045 373.177 743.239 372.885 743.371 372.564C743.504 372.242 743.571 371.898 743.57 371.55V371.55Z" fill="#0BDA4E"/>
<path d="M743.569 395.49C743.569 394.032 742.387 392.85 740.929 392.85C739.471 392.85 738.289 394.032 738.289 395.49C738.289 396.948 739.471 398.13 740.929 398.13C742.387 398.13 743.569 396.948 743.569 395.49Z" fill="#0BDA4E"/>
<path d="M743.262 418.408C742.708 417.059 741.165 416.416 739.817 416.97C738.468 417.525 737.824 419.067 738.379 420.416C738.933 421.764 740.476 422.408 741.825 421.854C743.173 421.299 743.817 419.756 743.262 418.408Z" fill="#0BDA4E"/>
<path d="M743.57 443.35C743.57 442.825 743.414 442.313 743.122 441.877C742.831 441.441 742.416 441.101 741.931 440.901C741.446 440.7 740.913 440.649 740.399 440.752C739.885 440.855 739.412 441.108 739.042 441.48C738.672 441.851 738.42 442.324 738.319 442.839C738.218 443.354 738.272 443.887 738.474 444.371C738.676 444.855 739.017 445.268 739.455 445.558C739.892 445.848 740.405 446.002 740.93 446C741.277 446 741.621 445.931 741.942 445.798C742.263 445.665 742.555 445.469 742.8 445.223C743.045 444.977 743.239 444.685 743.371 444.363C743.504 444.042 743.571 443.697 743.57 443.35Z" fill="#0BDA4E"/>
<path d="M722.159 299.751C722.159 298.293 720.977 297.111 719.519 297.111C718.061 297.111 716.879 298.293 716.879 299.751C716.879 301.209 718.061 302.391 719.519 302.391C720.977 302.391 722.159 301.209 722.159 299.751Z" fill="#0BDA4E"/>
<path d="M722.159 323.69C722.159 322.232 720.977 321.05 719.519 321.05C718.061 321.05 716.879 322.232 716.879 323.69C716.879 325.148 718.061 326.33 719.519 326.33C720.977 326.33 722.159 325.148 722.159 323.69Z" fill="#0BDA4E"/>
<path d="M722.169 347.62C722.171 347.095 722.017 346.582 721.727 346.145C721.437 345.708 721.024 345.366 720.54 345.164C720.056 344.962 719.523 344.908 719.008 345.009C718.494 345.111 718.02 345.362 717.649 345.732C717.277 346.103 717.024 346.575 716.921 347.089C716.818 347.603 716.87 348.137 717.07 348.621C717.27 349.106 717.61 349.521 718.046 349.812C718.482 350.104 718.995 350.26 719.519 350.26C720.22 350.26 720.893 349.982 721.389 349.487C721.886 348.992 722.167 348.321 722.169 347.62V347.62Z" fill="#0BDA4E"/>
<path d="M722.169 371.55C722.169 371.026 722.014 370.514 721.723 370.078C721.431 369.642 721.018 369.303 720.533 369.102C720.049 368.901 719.516 368.849 719.002 368.951C718.488 369.053 718.016 369.306 717.645 369.676C717.275 370.047 717.022 370.519 716.92 371.033C716.818 371.547 716.87 372.08 717.071 372.564C717.271 373.049 717.611 373.462 718.047 373.754C718.483 374.045 718.995 374.2 719.519 374.2C719.867 374.2 720.212 374.132 720.533 373.999C720.855 373.865 721.147 373.67 721.393 373.424C721.639 373.178 721.834 372.886 721.967 372.564C722.101 372.243 722.169 371.898 722.169 371.55V371.55Z" fill="#0BDA4E"/>
<path d="M722.159 395.49C722.159 394.032 720.977 392.85 719.519 392.85C718.061 392.85 716.879 394.032 716.879 395.49C716.879 396.948 718.061 398.13 719.519 398.13C720.977 398.13 722.159 396.948 722.159 395.49Z" fill="#0BDA4E"/>
<path d="M721.861 418.409C721.306 417.06 719.764 416.417 718.415 416.971C717.067 417.526 716.423 419.068 716.978 420.417C717.532 421.765 719.075 422.409 720.423 421.855C721.772 421.3 722.415 419.757 721.861 418.409Z" fill="#0BDA4E"/>
<path d="M722.169 443.35C722.169 442.826 722.014 442.313 721.723 441.878C721.431 441.442 721.018 441.102 720.533 440.902C720.049 440.701 719.516 440.649 719.002 440.751C718.488 440.853 718.016 441.105 717.645 441.476C717.275 441.847 717.022 442.319 716.92 442.833C716.818 443.347 716.87 443.88 717.071 444.364C717.271 444.848 717.611 445.262 718.047 445.553C718.483 445.845 718.995 446 719.519 446C720.222 446 720.896 445.721 721.393 445.224C721.89 444.727 722.169 444.053 722.169 443.35V443.35Z" fill="#0BDA4E"/>
<path d="M700.759 299.751C700.759 298.293 699.578 297.111 698.119 297.111C696.661 297.111 695.479 298.293 695.479 299.751C695.479 301.209 696.661 302.391 698.119 302.391C699.578 302.391 700.759 301.209 700.759 299.751Z" fill="#0BDA4E"/>
<path d="M700.759 323.69C700.759 322.232 699.578 321.05 698.119 321.05C696.661 321.05 695.479 322.232 695.479 323.69C695.479 325.148 696.661 326.33 698.119 326.33C699.578 326.33 700.759 325.148 700.759 323.69Z" fill="#0BDA4E"/>
<path d="M700.73 347.62C700.732 347.095 700.578 346.581 700.287 346.144C699.997 345.706 699.583 345.365 699.098 345.163C698.614 344.962 698.08 344.908 697.565 345.01C697.05 345.112 696.577 345.365 696.206 345.736C695.835 346.107 695.582 346.58 695.48 347.095C695.378 347.61 695.432 348.144 695.633 348.628C695.835 349.113 696.176 349.527 696.614 349.817C697.051 350.108 697.565 350.262 698.09 350.26C698.789 350.257 699.459 349.978 699.954 349.484C700.448 348.989 700.727 348.319 700.73 347.62V347.62Z" fill="#0BDA4E"/>
<path d="M700.73 371.55C700.73 371.026 700.574 370.513 700.282 370.077C699.991 369.641 699.576 369.301 699.092 369.101C698.607 368.901 698.073 368.849 697.559 368.952C697.045 369.055 696.573 369.308 696.202 369.68C695.832 370.052 695.581 370.525 695.479 371.039C695.378 371.554 695.432 372.087 695.634 372.571C695.836 373.055 696.178 373.468 696.615 373.758C697.052 374.048 697.565 374.202 698.09 374.2C698.437 374.2 698.781 374.132 699.102 373.998C699.423 373.865 699.715 373.67 699.96 373.423C700.205 373.177 700.4 372.885 700.532 372.564C700.664 372.242 700.731 371.898 700.73 371.55V371.55Z" fill="#0BDA4E"/>
<path d="M700.759 395.49C700.759 394.032 699.578 392.85 698.119 392.85C696.661 392.85 695.479 394.032 695.479 395.49C695.479 396.948 696.661 398.13 698.119 398.13C699.578 398.13 700.759 396.948 700.759 395.49Z" fill="#0BDA4E"/>
<path d="M700.459 418.406C699.904 417.057 698.361 416.414 697.013 416.968C695.664 417.523 695.021 419.065 695.575 420.414C696.13 421.762 697.672 422.406 699.021 421.852C700.369 421.297 701.013 419.754 700.459 418.406Z" fill="#0BDA4E"/>
<path d="M700.73 443.35C700.73 442.825 700.574 442.313 700.282 441.877C699.991 441.441 699.576 441.101 699.092 440.901C698.607 440.7 698.073 440.649 697.559 440.752C697.045 440.855 696.573 441.108 696.202 441.48C695.832 441.851 695.581 442.324 695.479 442.839C695.378 443.354 695.432 443.887 695.634 444.371C695.836 444.855 696.178 445.268 696.615 445.558C697.052 445.848 697.565 446.002 698.09 446C698.437 446 698.781 445.931 699.102 445.798C699.423 445.665 699.715 445.469 699.96 445.223C700.205 444.977 700.4 444.685 700.532 444.363C700.664 444.042 700.731 443.697 700.73 443.35V443.35Z" fill="#0BDA4E"/>
<path d="M679.349 299.751C679.349 298.293 678.167 297.111 676.709 297.111C675.251 297.111 674.069 298.293 674.069 299.751C674.069 301.209 675.251 302.391 676.709 302.391C678.167 302.391 679.349 301.209 679.349 299.751Z" fill="#0BDA4E"/>
<path d="M679.349 323.69C679.349 322.232 678.167 321.05 676.709 321.05C675.251 321.05 674.069 322.232 674.069 323.69C674.069 325.148 675.251 326.33 676.709 326.33C678.167 326.33 679.349 325.148 679.349 323.69Z" fill="#0BDA4E"/>
<path d="M679.36 347.62C679.362 347.095 679.208 346.582 678.918 346.145C678.628 345.708 678.215 345.366 677.731 345.164C677.247 344.962 676.713 344.908 676.199 345.009C675.684 345.111 675.211 345.362 674.839 345.732C674.468 346.103 674.214 346.575 674.111 347.089C674.008 347.603 674.06 348.137 674.26 348.621C674.461 349.106 674.8 349.521 675.236 349.812C675.672 350.104 676.185 350.26 676.71 350.26C677.411 350.26 678.083 349.982 678.58 349.487C679.077 348.992 679.357 348.321 679.36 347.62V347.62Z" fill="#0BDA4E"/>
<path d="M679.36 371.55C679.36 371.026 679.204 370.514 678.913 370.078C678.622 369.642 678.208 369.303 677.724 369.102C677.239 368.901 676.707 368.849 676.193 368.951C675.679 369.053 675.206 369.306 674.836 369.676C674.465 370.047 674.213 370.519 674.11 371.033C674.008 371.547 674.061 372.08 674.261 372.564C674.462 373.049 674.802 373.462 675.237 373.754C675.673 374.045 676.185 374.2 676.71 374.2C677.058 374.2 677.402 374.132 677.724 373.999C678.045 373.865 678.337 373.67 678.583 373.424C678.829 373.178 679.025 372.886 679.158 372.564C679.291 372.243 679.36 371.898 679.36 371.55V371.55Z" fill="#0BDA4E"/>
<path d="M679.349 395.49C679.349 394.032 678.167 392.85 676.709 392.85C675.251 392.85 674.069 394.032 674.069 395.49C674.069 396.948 675.251 398.13 676.709 398.13C678.167 398.13 679.349 396.948 679.349 395.49Z" fill="#0BDA4E"/>
<path d="M679.046 418.408C678.492 417.059 676.949 416.416 675.601 416.97C674.252 417.525 673.609 419.067 674.163 420.416C674.718 421.764 676.26 422.408 677.609 421.854C678.957 421.299 679.601 419.756 679.046 418.408Z" fill="#0BDA4E"/>
<path d="M679.36 443.35C679.36 442.826 679.204 442.313 678.913 441.878C678.622 441.442 678.208 441.102 677.724 440.902C677.239 440.701 676.707 440.649 676.193 440.751C675.679 440.853 675.206 441.105 674.836 441.476C674.465 441.847 674.213 442.319 674.11 442.833C674.008 443.347 674.061 443.88 674.261 444.364C674.462 444.848 674.802 445.262 675.237 445.553C675.673 445.845 676.185 446 676.71 446C677.412 446 678.086 445.721 678.583 445.224C679.08 444.727 679.36 444.053 679.36 443.35V443.35Z" fill="#0BDA4E"/>
</g>
<defs>
<clipPath id="clip0_567_371">
<rect width="148.89" height="90.91" fill="white" transform="translate(107.91 149.593) rotate(-90)"/>
</clipPath>
<clipPath id="clip1_567_371">
<rect width="148.89" height="90.91" fill="white" transform="translate(0 149.593) rotate(-90)"/>
</clipPath>
<clipPath id="clip2_567_371">
<rect width="148.89" height="90.91" fill="white" transform="translate(782.069 446) rotate(-90)"/>
</clipPath>
<clipPath id="clip3_567_371">
<rect width="148.89" height="90.91" fill="white" transform="translate(674.069 446) rotate(-90)"/>
</clipPath>
</defs>
</svg>
