<svg width="24" height="20" viewBox="0 0 24 20" fill="none" xmlns="http://www.w3.org/2000/svg">
<path d="M20.4 0H3.6C2.64522 0 1.72955 0.395088 1.05442 1.09835C0.379285 1.80161 0 2.75544 0 3.75V16.25C0 17.2446 0.379285 18.1984 1.05442 18.9017C1.72955 19.6049 2.64522 20 3.6 20H20.4C21.3548 20 22.2705 19.6049 22.9456 18.9017C23.6207 18.1984 24 17.2446 24 16.25V3.75C24 2.75544 23.6207 1.80161 22.9456 1.09835C22.2705 0.395088 21.3548 0 20.4 0ZM19.908 2.5L12.852 9.85C12.7404 9.96716 12.6077 10.0602 12.4615 10.1236C12.3153 10.1871 12.1584 10.2197 12 10.2197C11.8416 10.2197 11.6847 10.1871 11.5385 10.1236C11.3923 10.0602 11.2596 9.96716 11.148 9.85L4.092 2.5H19.908ZM21.6 16.25C21.6 16.5815 21.4736 16.8995 21.2485 17.1339C21.0235 17.3683 20.7183 17.5 20.4 17.5H3.6C3.28174 17.5 2.97652 17.3683 2.75147 17.1339C2.52643 16.8995 2.4 16.5815 2.4 16.25V4.2625L9.456 11.6125C10.131 12.3148 11.046 12.7092 12 12.7092C12.954 12.7092 13.869 12.3148 14.544 11.6125L21.6 4.2625V16.25Z" fill="white"/>
</svg>
