<svg width="24" height="24" viewBox="0 0 24 24" fill="none" xmlns="http://www.w3.org/2000/svg">
<g clip-path="url(#clip0_222_832)">
<path d="M9.53846 0H0.923077C0.418462 0 0 0.418462 0 0.923077V9.53846C0 10.0431 0.418462 10.4615 0.923077 10.4615H9.53846C10.0431 10.4615 10.4615 10.0431 10.4615 9.53846V0.923077C10.4615 0.418462 10.0431 0 9.53846 0ZM8.61538 8.61538H1.84615V1.84615H8.61538V8.61538Z" fill="#313131"/>
<path d="M23.077 0H14.4617C13.957 0 13.5386 0.418462 13.5386 0.923077V9.53846C13.5386 10.0431 13.957 10.4615 14.4617 10.4615H23.077C23.5817 10.4615 24.0001 10.0431 24.0001 9.53846V0.923077C24.0001 0.418462 23.5817 0 23.077 0ZM22.154 8.61538H15.3847V1.84615H22.154V8.61538Z" fill="#313131"/>
<path d="M23.077 13.5386H14.4617C13.957 13.5386 13.5386 13.957 13.5386 14.4617V23.077C13.5386 23.5817 13.957 24.0001 14.4617 24.0001H23.077C23.5817 24.0001 24.0001 23.5817 24.0001 23.077V14.4617C24.0001 13.957 23.5817 13.5386 23.077 13.5386ZM22.154 22.154H15.3847V15.3847H22.154V22.154Z" fill="#313131"/>
<path d="M9.53846 13.5386H0.923077C0.418462 13.5386 0 13.957 0 14.4617V23.077C0 23.5817 0.418462 24.0001 0.923077 24.0001H9.53846C10.0431 24.0001 10.4615 23.5817 10.4615 23.077V14.4617C10.4615 13.957 10.0431 13.5386 9.53846 13.5386ZM8.61538 22.154H1.84615V15.3847H8.61538V22.154Z" fill="#313131"/>
</g>
<defs>
<clipPath id="clip0_222_832">
<rect width="24" height="24" fill="white"/>
</clipPath>
</defs>
</svg>
