<svg width="100" height="127" viewBox="0 0 100 127" fill="none" xmlns="http://www.w3.org/2000/svg">
<g clip-path="url(#clip0_222_1033)">
<path d="M58.2966 63.4998C71.5119 53.8057 95.8703 32.617 95.8703 8.01074H4.12988C4.12988 32.617 28.4883 53.8131 41.7036 63.4998C28.4883 73.1938 4.12988 94.3825 4.12988 118.989H95.8703C95.8703 94.3825 71.5119 73.1864 58.2966 63.4998Z" fill="white"/>
<path d="M91.1506 109.317C89.7863 104.245 85.7671 100.343 80.7524 98.7479C74.6978 96.8297 66.3718 95.007 58.7465 96.1315C58.658 96.1462 58.5547 96.1462 58.4441 96.1315C57.1462 96.0433 56.1432 94.9629 55.9957 93.6767L52.8173 65.6603C52.6624 64.33 53.2376 63.0145 54.3217 62.2134L56.2907 60.7655C63.4957 55.4959 73.2966 47.3452 80.8704 37.4307C81.6742 36.3797 80.804 34.8878 79.4987 35.0789C71.7996 36.218 56.0252 37.5777 42.832 32.4771C31.3128 28.016 25.096 31.4702 22.0872 34.6085C20.3984 36.365 20.4131 39.1285 21.9913 40.9879C29.0709 49.3076 37.3969 56.15 43.717 60.7802L45.627 62.1913C46.7406 63.0145 47.3084 64.3741 47.1167 65.7411L43.2745 92.8315C43.0385 94.4925 41.3866 95.5582 39.7715 95.0878L38.422 94.6983C34.0341 93.4268 29.4766 92.8756 24.9117 93.0594C19.2479 93.2872 14.071 96.5504 11.6816 101.666C9.59455 106.127 8.16387 110.808 7.69189 115.637H92.3232C92.1167 113.506 91.7184 111.404 91.1653 109.339L91.1506 109.317Z" fill="#FFF9E9"/>
<path d="M91.9616 0H8.03835C3.59882 0 0 3.58657 0 8.01099H100C100 3.58657 96.4012 0 91.9616 0Z" fill="#FFBE0C"/>
<path d="M8.03835 127H91.9616C96.4012 127 100 123.413 100 118.989H0C0 123.413 3.59882 127 8.03835 127Z" fill="#FFBE0C"/>
</g>
<defs>
<clipPath id="clip0_222_1033">
<rect width="100" height="127" fill="white"/>
</clipPath>
</defs>
</svg>
