<?xml version="1.0" encoding="UTF-8"?>
<svg xmlns="http://www.w3.org/2000/svg" version="1.1" viewBox="0 0 24 24">
  <defs>
    <style>
      .cls-1 {
        fill: #fff;
      }
    </style>
  </defs>
  <!-- Generator: Adobe Illustrator 28.7.0, SVG Export Plug-In . SVG Version: 1.2.0 Build 45)  -->
  <g>
    <g id="Calque_1">
      <g id="Calque_1-2" data-name="Calque_1">
        <path class="cls-1" d="M21,12.7H3c-.4,0-.8-.3-.8-.8s.3-.8.8-.8h18c.4,0,.8.3.8.8s-.3.8-.8.8Z"/>
        <path class="cls-1" d="M21,6.7H3c-.4,0-.8-.3-.8-.8s.3-.8.8-.8h18c.4,0,.8.3.8.8s-.3.8-.8.8Z"/>
        <path class="cls-1" d="M21,18.7H3c-.4,0-.8-.3-.8-.8s.3-.8.8-.8h18c.4,0,.8.3.8.8s-.3.8-.8.8Z"/>
      </g>
    </g>
  </g>
</svg>