<?xml version="1.0" encoding="UTF-8"?>
<svg xmlns="http://www.w3.org/2000/svg" version="1.1" viewBox="0 0 24 24">
  <defs>
    <style>
      .cls-1 {
        fill: #fff;
      }
    </style>
  </defs>
  <!-- Generator: Adobe Illustrator 28.7.0, SVG Export Plug-In . SVG Version: 1.2.0 Build 45)  -->
  <g>
    <g id="Calque_1">
      <g id="Calque_1-2" data-name="Calque_1">
        <path class="cls-1" d="M13.1,12l5.5-5.5c.3-.3.3-.8,0-1.1s-.8-.3-1.1,0l-5.5,5.5-5.5-5.5c-.3-.3-.8-.3-1.1,0s-.3.8,0,1.1l5.5,5.5-5.5,5.5c-.3.3-.3.8,0,1.1s.3.2.5.2.4,0,.5-.2l5.5-5.5,5.5,5.5c.1.1.3.2.5.2s.4,0,.5-.2c.3-.3.3-.8,0-1.1l-5.5-5.5h.2Z"/>
      </g>
    </g>
  </g>
</svg>