<svg width="580" height="581" viewBox="0 0 580 581" fill="none" xmlns="http://www.w3.org/2000/svg">
<g clip-path="url(#clip0_906_3415)">
<path d="M501.367 459.515H550.093V444.018H501.367V459.515Z" fill="#EBEBEB"/>
<path d="M109.232 282.952H157.958V267.455H109.232V282.952Z" fill="#EBEBEB"/>
<path d="M528.544 479.056C536.637 478.918 557.383 478.571 565.199 478.488L577.27 478.433L576.632 479.07L576.577 463.573L577.27 464.265C569.176 464.238 548.541 464.168 540.725 464.058L528.544 463.905L528.876 463.573L528.544 479.07V479.056ZM528.544 479.056L528.211 463.559V463.24H528.544C534.627 463.157 546.823 463.019 552.907 462.977L577.27 462.88H577.962V463.573L577.907 479.07V479.707H577.27L564.977 479.652C557.216 479.569 536.554 479.222 528.544 479.084V479.056Z" fill="#EBEBEB"/>
<path d="M410.083 156.897C418.176 156.759 438.922 156.413 446.738 156.329L458.809 156.274L458.171 156.911L458.116 141.414L458.809 142.106C450.715 142.079 430.08 142.009 422.264 141.899L410.083 141.746L410.415 141.414L410.083 156.911V156.897ZM410.083 156.897L409.75 141.4V141.082H410.083C416.166 140.998 428.362 140.86 434.446 140.818L458.809 140.721H459.501V141.414L459.446 156.911V157.548H458.809L446.516 157.493C438.756 157.41 418.093 157.063 410.083 156.925V156.897Z" fill="#EBEBEB"/>
<path d="M437.259 176.438C445.352 176.3 466.098 175.954 473.914 175.87L485.985 175.815L485.347 176.452L485.292 160.955L485.985 161.647C477.892 161.62 457.256 161.55 449.44 161.44L437.259 161.287L437.591 160.955L437.259 176.452V176.438ZM437.259 176.438L436.926 160.941V160.623H437.259C443.343 160.539 455.538 160.401 461.622 160.359L485.985 160.262H486.678V160.955L486.622 176.452V177.089H485.985L473.692 177.034C465.932 176.951 445.269 176.604 437.259 176.466V176.438Z" fill="#EBEBEB"/>
<path d="M464.338 156.897H513.064V141.4H464.338V156.897Z" fill="#EBEBEB"/>
<path d="M3.97713 479.056H52.7031V463.559H3.97713V479.056Z" fill="#EBEBEB"/>
<path d="M31.1534 16.1897L79.8794 16.1897V0.692487L31.1534 0.692487V16.1897Z" fill="#EBEBEB"/>
<path d="M3.97713 35.7308C12.0704 35.5923 32.8164 35.246 40.6325 35.1629L52.7031 35.1075L52.0656 35.7446L52.0102 20.2474L52.7031 20.9398C44.6098 20.9121 23.9747 20.8429 16.1586 20.7321L3.97713 20.5798L4.30973 20.2474L3.97713 35.7446V35.7308ZM3.97713 35.7308L3.64453 20.2335V19.915H3.97713C10.061 19.8319 22.2563 19.6934 28.3401 19.6519L52.7031 19.5549H53.396V20.2474L53.3406 35.7446V36.3817H52.7031L40.4108 36.3263C32.6501 36.2432 11.9873 35.8969 3.97713 35.7585V35.7308Z" fill="#EBEBEB"/>
<path d="M501.367 16.1897C509.461 16.0512 530.207 15.7049 538.023 15.6219L550.093 15.5665L549.456 16.2035L549.4 0.706307L550.093 1.39877L525.73 1.30182C519.66 1.26027 507.437 1.10793 501.367 1.03869L501.7 0.706307L501.367 16.2035V16.1897ZM501.367 16.1897L501.035 0.692458V0.373927H501.367C507.451 0.290832 519.646 0.152341 525.73 0.110793L550.093 0H550.786V0.692458L550.731 16.1897V16.8267H550.093L537.801 16.7713C530.04 16.6882 509.377 16.342 501.367 16.2035V16.1897Z" fill="#EBEBEB"/>
<path d="M202.498 337.823H0V350.176H202.498V337.823Z" fill="#EBEBEB"/>
<path d="M184.441 350.176H18.0576V384.259H184.441V350.176Z" fill="#EBEBEB"/>
<path d="M184.441 356.907L18.0576 360.217V350.176H184.441V356.907Z" fill="#C7C7C7"/>
<path d="M158.692 357.322H43.8203V377.127H158.692V357.322Z" stroke="#DBDBDB" stroke-miterlimit="10"/>
<path d="M120.194 364.358H82.3188V370.077H120.194V364.358Z" fill="#DBDBDB"/>
<path d="M16.7134 580.308H11.1978L27.2319 384.273H41.2843L16.7134 580.308Z" fill="#EBEBEB"/>
<path d="M41.284 384.273L39.6349 397.388H26.1646L27.2316 384.273H41.284Z" fill="#C7C7C7"/>
<path d="M185.785 580.308H191.301L175.267 384.273H161.214L185.785 580.308Z" fill="#EBEBEB"/>
<path d="M161.214 384.273L162.863 397.388H176.334L175.267 384.273H161.214Z" fill="#C7C7C7"/>
<path d="M31.0566 160.442C32.2761 159.681 33.8144 159.722 35.0478 160.47C35.3804 160.678 35.7269 160.872 36.0733 161.052C36.4198 161.246 36.7801 161.412 37.1266 161.592C38.4292 162.201 39.3023 163.448 39.3439 164.888L39.4963 169.791L55.4889 169.292L55.3364 164.389C55.2949 162.949 56.0848 161.633 57.3459 160.941C58.0388 160.567 58.7179 160.138 59.3692 159.695C60.5472 158.877 62.0716 158.767 63.3327 159.445L67.6427 161.758L75.2093 147.66L70.8994 145.347C69.6383 144.668 68.8899 143.339 68.9176 141.898C68.9315 141.095 68.9176 140.306 68.8345 139.516C68.7098 138.076 69.375 136.691 70.5945 135.943L74.7659 133.353L66.34 119.767L62.1409 122.357C60.9214 123.119 59.3969 123.064 58.1635 122.33C57.8309 122.122 57.4845 121.928 57.138 121.748C56.7916 121.568 56.4451 121.388 56.0848 121.222C54.7821 120.612 53.8952 119.352 53.8536 117.912L53.7012 113.009L37.7086 113.508L37.8611 118.396C37.9026 119.837 37.1266 121.152 35.8516 121.845C35.1587 122.233 34.4796 122.648 33.8144 123.105C32.6364 123.922 31.112 124.033 29.8371 123.354L25.5271 121.042L17.9604 135.14L22.2704 137.453C23.5315 138.131 24.2799 139.461 24.2521 140.901C24.2383 141.704 24.2521 142.494 24.3214 143.297C24.4462 144.737 23.781 146.109 22.5614 146.87L18.4039 149.446L26.8298 163.032L31.0012 160.442H31.0566ZM35.0617 135.209C38.4847 128.839 46.4394 126.443 52.8142 129.85C59.1891 133.27 61.5866 141.206 58.1635 147.577C54.7405 153.947 46.8135 156.343 40.4248 152.922C34.05 149.502 31.6386 141.566 35.0617 135.195V135.209Z" stroke="#EBEBEB" stroke-miterlimit="10"/>
<path d="M519.079 213.748C520.298 212.986 521.836 213.028 523.07 213.776C523.402 213.983 523.749 214.177 524.095 214.357C524.442 214.551 524.802 214.717 525.149 214.897C526.451 215.507 527.324 216.753 527.366 218.193L527.518 223.096L543.511 222.597L543.358 217.695C543.317 216.255 544.107 214.939 545.368 214.246C546.061 213.872 546.74 213.443 547.391 213C548.569 212.183 550.094 212.072 551.355 212.751L555.665 215.063L563.231 200.965L558.921 198.652C557.66 197.974 556.912 196.644 556.94 195.204C556.953 194.414 556.94 193.611 556.856 192.822C556.732 191.381 557.397 189.997 558.616 189.249L562.788 186.659L554.362 173.073L550.163 175.663C548.943 176.424 547.419 176.369 546.186 175.635C545.853 175.427 545.506 175.233 545.16 175.053C544.814 174.873 544.467 174.693 544.107 174.527C542.804 173.918 541.917 172.657 541.876 171.217L541.723 166.314L525.731 166.813L525.883 171.702C525.925 173.142 525.149 174.458 523.874 175.15C523.181 175.538 522.502 175.953 521.836 176.41C520.658 177.228 519.134 177.338 517.859 176.66L513.549 174.347L505.982 188.445L510.292 190.758C511.554 191.437 512.302 192.766 512.274 194.207C512.26 195.01 512.274 195.799 512.343 196.603C512.468 198.043 511.803 199.414 510.583 200.176L506.426 202.752L514.852 216.338L519.023 213.748H519.079ZM523.084 188.515C526.507 182.144 534.461 179.748 540.836 183.155C547.211 186.576 549.609 194.511 546.186 200.882C542.763 207.253 534.836 209.648 528.447 206.228C522.072 202.807 519.661 194.871 523.084 188.501V188.515Z" fill="#EBEBEB"/>
<path d="M54.6709 61.6979C54.6709 85.7816 74.2112 105.309 98.3109 105.309C122.411 105.309 141.951 85.7816 141.951 61.6979C141.951 37.6142 122.411 18.0869 98.3109 18.0869C74.2112 18.0869 54.6709 37.6142 54.6709 61.6979ZM77.9252 61.6979C77.9252 50.4524 87.0579 41.3258 98.3109 41.3258C109.564 41.3258 118.697 50.4524 118.697 61.6979C118.697 72.9434 109.564 82.0562 98.3109 82.0562C87.0579 82.0562 77.9252 72.9434 77.9252 61.6979Z" fill="#EBEBEB"/>
<path d="M89.9268 19.8873H106.709L105.781 8.01855H90.8553L89.9268 19.8873Z" fill="#EBEBEB"/>
<path d="M121.87 25.5378L133.733 37.3927L141.48 28.3492L130.92 17.7961L121.87 25.5378Z" fill="#EBEBEB"/>
<path d="M140.455 52.1143V68.8856L152.345 67.9577V53.0421L140.455 52.1143Z" fill="#EBEBEB"/>
<path d="M134.8 84.0366L122.938 95.8915L131.987 103.633L142.547 93.0801L134.8 84.0366Z" fill="#EBEBEB"/>
<path d="M108.22 102.608H91.4375L92.3521 114.491H107.291L108.22 102.608Z" fill="#EBEBEB"/>
<path d="M76.2624 96.9579L64.3997 85.103L56.6528 94.1465L67.2129 104.7L76.2624 96.9579Z" fill="#EBEBEB"/>
<path d="M57.6784 70.3951V53.6238L45.8018 54.5517V69.4672L57.6784 70.3951Z" fill="#EBEBEB"/>
<path d="M63.3328 38.473L75.1955 26.6042L66.146 18.8625L55.5859 29.4156L63.3328 38.473Z" fill="#EBEBEB"/>
<path d="M511.457 317.173H500.37V580.307H463.16V317.173H452.087L481.772 284.6L511.457 317.173Z" fill="#EBEBEB"/>
<path d="M579.64 264.339H568.553V580.307H531.329V264.339H520.271L549.955 231.766L579.64 264.339Z" fill="#EBEBEB"/>
<path d="M448.581 375.284H437.494V580.307H400.285V375.284H389.212L418.896 342.711L448.581 375.284Z" fill="#EBEBEB"/>
<path d="M1.60742 580.308L73.8649 579.961L146.122 579.837L290.624 579.615L435.138 579.837L507.382 579.961L579.64 580.308L507.382 580.64L435.138 580.765L290.624 581L146.122 580.765L73.8649 580.64L1.60742 580.308Z" fill="#313131"/>
<path d="M407.755 50.0925H173.479C160.397 50.0925 149.781 60.881 149.781 74.2178V556.182C149.781 569.491 160.397 580.308 173.479 580.308H407.755C420.851 580.308 431.48 569.491 431.48 556.182V74.2178C431.48 60.881 420.851 50.0925 407.755 50.0925ZM416.665 541.281C416.665 553.967 407.159 564.229 395.434 564.229H185.841C174.089 564.229 164.582 553.967 164.582 541.281V92.4848C164.582 66.6423 174.089 65.382 185.841 65.382H227.818C230.257 65.382 232.252 68.1518 232.252 71.5864V73.0683C232.252 81.1146 236.659 81.1424 242.078 81.1424H339.17C344.63 81.1424 348.995 81.1146 348.995 73.0683V71.5864C348.995 68.1518 350.963 65.382 353.444 65.382H395.434C407.159 65.382 416.665 68.8166 416.665 92.4848V541.281Z" fill="#313131"/>
<path d="M303.858 71.088H277.375C276.474 71.088 275.74 70.354 275.74 69.4538C275.74 68.5536 276.474 67.8196 277.375 67.8196H303.858C304.759 67.8196 305.494 68.5536 305.494 69.4538C305.494 70.354 304.759 71.088 303.858 71.088Z" fill="white"/>
<path d="M416.666 92.4849V541.281C416.666 553.967 407.159 564.229 395.435 564.229H185.841C174.089 564.229 164.582 553.967 164.582 541.281V92.4849C164.582 66.6424 174.089 65.3821 185.841 65.3821H227.818C230.257 65.3821 232.252 68.1519 232.252 71.5865V73.0684C232.252 81.1147 236.659 81.1424 242.078 81.1424H339.17C344.63 81.1424 348.995 81.1147 348.995 73.0684V71.5865C348.995 68.1519 350.963 65.3821 353.444 65.3821H395.435C407.159 65.3821 416.666 68.8167 416.666 92.4849Z" fill="white"/>
<path d="M220.57 75.4504C220.431 75.5889 220.293 75.7136 220.168 75.8521C220.085 75.9352 220.016 76.0044 219.932 76.0875C218.838 75.035 217.549 74.4672 216.024 74.4672C214.5 74.4672 213.211 75.035 212.116 76.0875C212.047 76.0183 211.978 75.9352 211.895 75.8659C211.756 75.7274 211.631 75.6028 211.493 75.4643C211.493 75.4643 211.507 75.4366 211.52 75.4366C211.687 75.2843 211.853 75.1319 212.033 74.9796C212.393 74.6749 212.795 74.4256 213.225 74.2179C213.724 73.9686 214.25 73.7885 214.791 73.6916C215.054 73.6501 215.318 73.6224 215.581 73.5808C215.664 73.5808 216.246 73.5808 216.274 73.5808C216.454 73.5808 216.634 73.6085 216.814 73.6224C217.313 73.6778 217.784 73.7885 218.256 73.9686C218.588 74.0932 218.921 74.2456 219.226 74.4256C219.558 74.6195 219.863 74.8272 220.154 75.0765C220.307 75.2012 220.445 75.3397 220.584 75.4643L220.57 75.4504Z" fill="#C7C7C7"/>
<path d="M213.405 77.3616C213.197 77.1539 212.975 76.9461 212.768 76.7246C213.502 76.0044 214.361 75.5474 215.373 75.4227C216.884 75.215 218.186 75.672 219.295 76.7246C219.073 76.9461 218.865 77.1539 218.657 77.3616C217.937 76.6553 217.064 76.2814 216.038 76.2814C215.013 76.2814 214.14 76.6553 213.419 77.3616H213.405Z" fill="#C7C7C7"/>
<path d="M218.006 77.9987C217.798 78.2065 217.576 78.428 217.368 78.6358C216.994 78.2757 216.551 78.0818 216.024 78.0818C215.498 78.0818 215.054 78.2757 214.68 78.6358C214.472 78.428 214.25 78.2065 214.042 77.9987C215.054 76.9323 216.883 76.8492 218.006 77.9987Z" fill="#C7C7C7"/>
<path d="M216.606 79.2174C216.606 79.5359 216.343 79.7991 216.024 79.7991C215.706 79.7991 215.442 79.5359 215.442 79.2174C215.442 78.8989 215.706 78.6357 216.024 78.6357C216.343 78.6357 216.606 78.8989 216.606 79.2174Z" fill="#C7C7C7"/>
<path d="M181.018 76.6831C181.018 75.7552 181.766 75.0073 182.695 75.0073C183.623 75.0073 184.372 75.7552 184.372 76.6831C184.372 77.611 183.623 78.3588 182.695 78.3588C181.766 78.3588 181.018 77.611 181.018 76.6831Z" fill="#C7C7C7"/>
<path d="M186.284 76.6831C186.284 75.7552 187.033 75.0073 187.961 75.0073C188.89 75.0073 189.638 75.7552 189.638 76.6831C189.638 77.611 188.89 78.3588 187.961 78.3588C187.033 78.3588 186.284 77.611 186.284 76.6831Z" fill="#C7C7C7"/>
<path d="M191.537 76.6831C191.537 75.7552 192.285 75.0073 193.213 75.0073C194.142 75.0073 194.89 75.7552 194.89 76.6831C194.89 77.611 194.142 78.3588 193.213 78.3588C192.285 78.3588 191.537 77.611 191.537 76.6831Z" fill="#C7C7C7"/>
<path d="M196.803 76.6831C196.803 75.7552 197.551 75.0073 198.48 75.0073C199.408 75.0073 200.156 75.7552 200.156 76.6831C200.156 77.611 199.408 78.3588 198.48 78.3588C197.551 78.3588 196.803 77.611 196.803 76.6831Z" fill="#C7C7C7"/>
<path d="M202.069 76.6831C202.069 75.7552 202.817 75.0073 203.746 75.0073C204.674 75.0073 205.423 75.7552 205.423 76.6831C205.423 77.611 204.674 78.3588 203.746 78.3588C202.817 78.3588 202.069 77.611 202.069 76.6831Z" fill="#C7C7C7"/>
<path d="M397.763 80.3391H384.14V74.0239H397.763V80.3391ZM384.847 79.619H397.042V74.7302H384.847V79.619Z" fill="#C7C7C7"/>
<path d="M394.049 75.1042H385.276V79.259H394.049V75.1042Z" fill="#C7C7C7"/>
<path d="M398.968 75.4919H397.763V78.8573H398.968V75.4919Z" fill="#C7C7C7"/>
<path d="M196.692 539.979H195.459V545.63H193.158V542.749H189.084V545.63H186.783V539.979H185.55L191.121 534.218L196.692 539.979Z" fill="#EBEBEB"/>
<path d="M396.225 534.218H382.796V536.129H396.225V534.218Z" fill="#EBEBEB"/>
<path d="M396.225 538.968H382.796V540.893H396.225V538.968Z" fill="#EBEBEB"/>
<path d="M396.225 543.718H382.796V545.643H396.225V543.718Z" fill="#EBEBEB"/>
<path d="M294.837 540.131L291.012 544.203L287.201 540.131L287.866 539.494L291.012 542.846L294.158 539.494L294.837 540.131Z" fill="#EBEBEB"/>
<path d="M291.012 548.413C287.187 548.413 284.069 545.297 284.069 541.475C284.069 537.652 287.187 534.536 291.012 534.536C294.837 534.536 297.955 537.652 297.955 541.475C297.955 545.297 294.837 548.413 291.012 548.413ZM291.012 535.45C287.686 535.45 284.997 538.151 284.997 541.461C284.997 544.771 287.7 547.471 291.012 547.471C294.324 547.471 297.026 544.771 297.026 541.461C297.026 538.151 294.324 535.45 291.012 535.45Z" fill="#EBEBEB"/>
<path d="M307.96 277.274C317.315 277.219 324.84 269.602 324.798 260.254C324.743 250.892 317.121 243.372 307.766 243.427C298.426 243.482 290.901 251.099 290.956 260.448C291.011 269.782 298.634 277.33 307.974 277.274H307.96ZM292.993 260.434C292.938 252.221 299.562 245.532 307.766 245.49C315.97 245.449 322.664 252.055 322.719 260.268C322.761 268.466 316.151 275.155 307.933 275.211C299.728 275.252 293.035 268.646 292.993 260.448V260.434ZM307.96 277.274C317.315 277.219 324.84 269.602 324.798 260.254C324.743 250.892 317.121 243.372 307.766 243.427C298.426 243.482 290.901 251.099 290.956 260.448C291.011 269.782 298.634 277.33 307.974 277.274H307.96ZM292.993 260.434C292.938 252.221 299.562 245.532 307.766 245.49C315.97 245.449 322.664 252.055 322.719 260.268C322.761 268.466 316.151 275.155 307.933 275.211C299.728 275.252 293.035 268.646 292.993 260.448V260.434ZM307.96 277.274C317.315 277.219 324.84 269.602 324.798 260.254C324.743 250.892 317.121 243.372 307.766 243.427C298.426 243.482 290.901 251.099 290.956 260.448C291.011 269.782 298.634 277.33 307.974 277.274H307.96ZM292.993 260.434C292.938 252.221 299.562 245.532 307.766 245.49C315.97 245.449 322.664 252.055 322.719 260.268C322.761 268.466 316.151 275.155 307.933 275.211C299.728 275.252 293.035 268.646 292.993 260.448V260.434ZM308.057 296.012C327.778 295.888 343.646 279.823 343.535 260.143C343.41 240.449 327.348 224.578 307.642 224.689C287.949 224.814 272.053 240.865 272.178 260.558C272.289 280.238 288.365 296.123 308.057 296.012ZM288.295 260.461C288.226 249.673 296.943 240.851 307.739 240.796C318.52 240.726 327.348 249.451 327.417 260.226C327.487 271.014 318.756 279.823 307.974 279.892C297.192 279.947 288.365 271.236 288.309 260.461H288.295ZM290.928 260.448C290.984 269.782 298.606 277.33 307.946 277.274C317.301 277.219 324.826 269.602 324.784 260.254C324.729 250.892 317.107 243.372 307.752 243.427C298.412 243.482 290.887 251.099 290.942 260.448H290.928ZM292.993 260.434C292.938 252.221 299.562 245.532 307.766 245.49C315.97 245.449 322.664 252.055 322.719 260.268C322.761 268.466 316.151 275.155 307.933 275.211C299.728 275.252 293.035 268.646 292.993 260.448V260.434ZM307.96 277.274C317.315 277.219 324.84 269.602 324.798 260.254C324.743 250.892 317.121 243.372 307.766 243.427C298.426 243.482 290.901 251.099 290.956 260.448C291.011 269.782 298.634 277.33 307.974 277.274H307.96ZM292.993 260.434C292.938 252.221 299.562 245.532 307.766 245.49C315.97 245.449 322.664 252.055 322.719 260.268C322.761 268.466 316.151 275.155 307.933 275.211C299.728 275.252 293.035 268.646 292.993 260.448V260.434ZM307.96 277.274C317.315 277.219 324.84 269.602 324.798 260.254C324.743 250.892 317.121 243.372 307.766 243.427C298.426 243.482 290.901 251.099 290.956 260.448C291.011 269.782 298.634 277.33 307.974 277.274H307.96ZM292.993 260.434C292.938 252.221 299.562 245.532 307.766 245.49C315.97 245.449 322.664 252.055 322.719 260.268C322.761 268.466 316.151 275.155 307.933 275.211C299.728 275.252 293.035 268.646 292.993 260.448V260.434Z" fill="#FFC422"/>
<path d="M300.796 226.212L314.516 226.129L313.698 216.435L301.503 216.504L300.796 226.212Z" fill="#FFC422"/>
<path d="M326.933 230.672L336.689 240.311L342.981 232.874L334.305 224.301L326.933 230.672Z" fill="#FFC422"/>
<path d="M342.26 252.304L342.343 266.015L352.058 265.198L351.974 253.011L342.26 252.304Z" fill="#FFC422"/>
<path d="M337.797 278.424L328.152 288.187L335.594 294.461L344.172 285.791L337.797 278.424Z" fill="#FFC422"/>
<path d="M316.151 293.741L302.431 293.824L303.249 303.532L315.444 303.449L316.151 293.741Z" fill="#FFC422"/>
<path d="M290.014 289.281L280.244 279.642L273.966 287.079L282.641 295.652L290.014 289.281Z" fill="#FFC422"/>
<path d="M274.687 267.649L274.603 253.938L264.889 254.755L264.972 266.956L274.687 267.649Z" fill="#FFC422"/>
<path d="M279.149 241.529L288.794 231.78L281.352 225.492L272.774 234.162L279.149 241.529Z" fill="#FFC422"/>
<g opacity="0.5">
<path d="M264.917 222.501C262.242 210.84 250.615 203.555 238.946 206.242C227.291 208.915 220.002 220.534 222.69 232.195C225.365 243.842 236.992 251.127 248.647 248.454C260.316 245.767 267.591 234.148 264.917 222.501ZM246.457 238.912C240.082 240.38 233.694 236.378 232.225 230.007C230.756 223.622 234.761 217.238 241.136 215.77C247.524 214.316 253.913 218.304 255.368 224.689C256.837 231.073 252.832 237.444 246.457 238.912Z" fill="#FF177B"/>
<path d="M235.093 208.056L243.214 206.186L241.454 200.55L234.234 202.212L235.093 208.056Z" fill="#FF177B"/>
<path d="M251.183 207.239L258.237 211.657L260.98 206.422L254.703 202.489L251.183 207.239Z" fill="#FF177B"/>
<path d="M263.129 218.027L265 226.143L270.64 224.384L268.977 217.169L263.129 218.027Z" fill="#FF177B"/>
<path d="M263.946 234.106L259.525 241.155L264.764 243.898L268.7 237.624L263.946 234.106Z" fill="#FF177B"/>
<path d="M253.151 246.044L245.03 247.914L246.79 253.551L254.024 251.889L253.151 246.044Z" fill="#FF177B"/>
<path d="M237.061 246.861L230.007 242.444L227.263 247.679L233.541 251.612L237.061 246.861Z" fill="#FF177B"/>
<path d="M225.115 236.073L223.258 227.957L217.604 229.716L219.267 236.945L225.115 236.073Z" fill="#FF177B"/>
<path d="M224.297 219.994L228.732 212.945L223.48 210.203L219.544 216.476L224.297 219.994Z" fill="#FF177B"/>
</g>
<g opacity="0.5">
<path d="M359.001 201.616C358.1 191.382 349.079 183.82 338.837 184.734C328.61 185.634 321.043 194.65 321.958 204.885C322.859 215.105 331.88 222.667 342.108 221.767C352.349 220.853 359.902 211.837 359.001 201.616ZM341.373 213.402C335.775 213.9 330.813 209.746 330.314 204.151C329.815 198.556 333.973 193.597 339.572 193.099C345.17 192.614 350.132 196.755 350.617 202.364C351.116 207.959 346.958 212.917 341.359 213.416L341.373 213.402Z" fill="#21DD5E"/>
<path d="M335.345 185.814L342.468 185.191L341.637 180.178L335.303 180.746L335.345 185.814Z" fill="#21DD5E"/>
<path d="M349.12 187.019L354.608 191.603L357.546 187.476L352.668 183.391L349.12 187.019Z" fill="#21DD5E"/>
<path d="M358.003 197.6L358.64 204.719L363.643 203.874L363.089 197.545L358.003 197.6Z" fill="#21DD5E"/>
<path d="M356.811 211.366L352.21 216.836L356.354 219.786L360.428 214.911L356.811 211.366Z" fill="#21DD5E"/>
<path d="M346.224 220.243L339.101 220.867L339.932 225.88L346.265 225.312L346.224 220.243Z" fill="#21DD5E"/>
<path d="M332.448 219.038L326.96 214.454L324.022 218.581L328.887 222.667L332.448 219.038Z" fill="#21DD5E"/>
<path d="M323.565 208.458L322.928 201.339L317.925 202.184L318.479 208.513L323.565 208.458Z" fill="#21DD5E"/>
<path d="M324.757 194.705L329.358 189.221L325.214 186.271L321.14 191.146L324.757 194.705Z" fill="#21DD5E"/>
</g>
<path d="M362.715 350.536H218.546V362.848H362.715V350.536Z" stroke="#21DD5E" stroke-width="0.5" stroke-miterlimit="10"/>
<path d="M225.434 352.877H220.875V360.508H225.434V352.877Z" fill="#E9FCEF"/>
<path d="M231.74 352.877H227.18V360.508H231.74V352.877Z" fill="#E9FCEF"/>
<path d="M238.045 352.877H233.486V360.508H238.045V352.877Z" fill="#D3F8DF"/>
<path d="M244.337 352.877H239.777V360.508H244.337V352.877Z" fill="#D3F8DF"/>
<path d="M250.642 352.877H246.083V360.508H250.642V352.877Z" fill="#BCF5CF"/>
<path d="M256.948 352.877H252.389V360.508H256.948V352.877Z" fill="#A6F2BF"/>
<path d="M263.253 352.877H258.694V360.508H263.253V352.877Z" fill="#90EEAF"/>
<path d="M269.545 352.877H264.986V360.508H269.545V352.877Z" fill="#7AEB9E"/>
<path d="M275.851 352.877H271.292V360.508H275.851V352.877Z" fill="#64E78E"/>
<path d="M282.156 352.877H277.597V360.508H282.156V352.877Z" fill="#4EE47E"/>
<path d="M288.448 352.877H283.889V360.508H288.448V352.877Z" fill="#37E16E"/>
<path d="M294.754 352.877H290.194V360.508H294.754V352.877Z" fill="#21DD5E"/>
<path d="M264.695 337.144C262.463 337.144 260.689 335.344 260.689 333.142V328.211C260.689 327.782 261.022 327.45 261.452 327.45C261.881 327.45 262.228 327.782 262.228 328.211V333.142C262.228 334.499 263.336 335.607 264.695 335.607C266.053 335.607 267.161 334.499 267.161 333.142V328.211C267.161 327.782 267.508 327.45 267.937 327.45C268.367 327.45 268.7 327.782 268.7 328.211V333.142C268.7 335.344 266.912 337.144 264.695 337.144Z" fill="#313131"/>
<path d="M275.199 333.377H273.495V336.382C273.495 336.798 273.148 337.144 272.719 337.144C272.289 337.144 271.957 336.798 271.957 336.382V328.211C271.957 327.782 272.303 327.45 272.719 327.45H275.199C276.849 327.45 278.179 328.779 278.179 330.427C278.179 332.075 276.849 333.377 275.199 333.377ZM273.495 331.84H275.199C276.003 331.84 276.627 331.203 276.641 330.427C276.641 329.624 276.003 328.987 275.199 328.987H273.495V331.84Z" fill="#313131"/>
<path d="M280.036 336.382V328.211C280.036 327.782 280.368 327.45 280.798 327.45H282.433C285.108 327.45 287.27 329.624 287.27 332.283C287.27 334.942 285.108 337.144 282.433 337.144H280.798C280.368 337.144 280.036 336.798 280.036 336.382ZM281.574 335.607H282.433C284.262 335.607 285.731 334.125 285.731 332.283C285.731 330.441 284.262 328.987 282.433 328.987H281.574V335.607Z" fill="#313131"/>
<path d="M294.047 334.859H290.679L290 336.659C289.875 336.964 289.584 337.144 289.279 337.144C289.182 337.144 289.099 337.144 289.016 337.103C288.614 336.95 288.42 336.507 288.559 336.105L291.621 327.948C291.746 327.644 292.051 327.45 292.356 327.464C292.675 327.464 292.966 327.644 293.09 327.948L296.153 336.105C296.292 336.507 296.098 336.95 295.696 337.103C295.626 337.13 295.529 337.144 295.432 337.144C295.128 337.144 294.836 336.964 294.726 336.659L294.047 334.859ZM293.478 333.349L292.356 330.372L291.233 333.349H293.478Z" fill="#313131"/>
<path d="M302.597 329.001H300.394V336.396C300.394 336.826 300.061 337.158 299.632 337.158C299.202 337.158 298.869 336.826 298.869 336.396V329.001H296.68C296.25 329.001 295.917 328.641 295.917 328.225C295.917 327.81 296.25 327.464 296.68 327.464H302.597C303.013 327.464 303.359 327.796 303.359 328.225C303.359 328.655 303.013 329.001 302.597 329.001Z" fill="#313131"/>
<path d="M305.646 336.382V328.211C305.646 327.782 305.979 327.45 306.408 327.45H310.94C311.342 327.45 311.702 327.782 311.702 328.211C311.702 328.641 311.342 328.987 310.94 328.987H307.184V331.521H310.413C310.829 331.521 311.175 331.881 311.175 332.283C311.175 332.712 310.829 333.059 310.413 333.059H307.184V335.607H310.94C311.342 335.607 311.702 335.953 311.702 336.382C311.702 336.812 311.342 337.144 310.94 337.144H306.45H306.422C305.992 337.144 305.66 336.812 305.66 336.396L305.646 336.382Z" fill="#313131"/>
<path d="M314.585 335.177C315.153 335.177 315.624 335.648 315.624 336.216C315.624 336.784 315.153 337.241 314.585 337.241C314.016 337.241 313.559 336.784 313.559 336.216C313.559 335.648 314.016 335.177 314.585 335.177Z" fill="#313131"/>
<path d="M317.772 335.177C318.34 335.177 318.811 335.648 318.811 336.216C318.811 336.784 318.34 337.241 317.772 337.241C317.204 337.241 316.747 336.784 316.747 336.216C316.747 335.648 317.204 335.177 317.772 335.177Z" fill="#313131"/>
<path d="M320.96 335.177C321.528 335.177 321.999 335.648 321.999 336.216C321.999 336.784 321.528 337.241 320.96 337.241C320.391 337.241 319.934 336.784 319.934 336.216C319.934 335.648 320.391 335.177 320.96 335.177Z" fill="#313131"/>
<path d="M490.323 392.832C468.953 429.241 435.402 461.773 426.505 465.083C416.818 468.683 380.717 457.632 362.757 451.164C356.881 449.045 368.896 407.678 375.229 405.545C381.563 403.412 409.556 420.391 416.292 418.743C418.412 418.231 455.691 396.502 476.146 382.819C495.215 370.064 496.809 381.78 490.323 392.832Z" fill="#F9B769"/>
<path d="M365.376 458.795L381.576 404.285C381.576 404.285 409.75 417.608 414.421 416.541C419.091 415.475 462.315 388.926 478.058 380.173C493.788 371.421 505.706 376.988 485.722 404.395C464.144 433.977 439.13 462.23 429.346 466.218C416.472 471.467 365.376 458.795 365.376 458.795Z" fill="#21DD5E"/>
<path d="M426.505 439.683C425.84 441.47 425.286 443.312 425.147 445.292C426.381 443.713 427.184 441.996 427.891 440.223C428.542 438.437 429.111 436.622 429.235 434.628C428.03 436.207 427.212 437.924 426.505 439.683ZM424.884 411.223C424.371 411.514 423.858 411.791 423.373 412.068C424.759 412.511 426.173 412.843 427.669 412.954C426.782 412.262 425.84 411.708 424.884 411.223ZM401.408 456.399C399.634 455.72 397.805 455.18 395.809 455.028C397.389 456.261 399.107 457.078 400.881 457.784C402.669 458.435 404.484 458.989 406.48 459.127C404.9 457.909 403.182 457.105 401.408 456.399ZM394.59 424.546C393.772 422.829 392.885 421.139 391.582 419.643C391.832 421.61 392.455 423.397 393.218 425.155C394.021 426.887 394.922 428.576 396.225 430.058C395.989 428.091 395.324 426.291 394.59 424.546ZM452.628 412.414C450.91 413.204 449.219 414.104 447.709 415.406C449.69 415.156 451.492 414.505 453.238 413.758C454.956 412.968 456.647 412.082 458.158 410.766C456.176 411.015 454.388 411.666 452.628 412.414ZM370.781 440.611L370.268 442.342C371.751 441.636 373.192 440.819 374.495 439.683C373.192 439.849 371.973 440.182 370.781 440.611Z" fill="white"/>
<path d="M378.597 457.687C379.442 455.873 379.886 453.809 380.509 451.898C381.064 450.167 381.66 448.45 382.186 446.719C383.364 442.938 384.556 439.157 385.706 435.362C386.856 431.581 388.021 427.815 389.143 424.02C390.252 420.253 391.485 416.5 392.386 412.677C392.428 412.525 392.192 412.47 392.136 412.594C390.501 416.181 389.24 419.934 387.937 423.646C386.649 427.302 385.471 431 384.32 434.711C383.156 438.492 382.103 442.301 381.078 446.109C380.592 447.951 380.163 449.807 379.719 451.663C379.262 453.615 378.583 455.637 378.403 457.632C378.403 457.743 378.541 457.798 378.597 457.687Z" fill="#313131"/>
<path opacity="0.1" d="M390.751 464.168C405.565 466.827 422.639 468.96 429.346 466.218C439.13 462.23 464.145 434.005 485.722 404.395C498.416 386.973 498.236 378.387 492.374 376.669L390.737 464.155L390.751 464.168Z" fill="black"/>
<path d="M400.216 317.381C397.112 304.294 386.87 294.766 374.619 291.913L381.105 319.223L367.482 328.031L351.365 326.286L344.879 298.962C335.192 307.036 330.356 320.151 333.46 333.225C337.825 351.644 356.326 363.042 374.758 358.666C393.19 354.303 404.595 335.801 400.216 317.395V317.381Z" fill="#DBDBDB"/>
<path d="M378.957 524.966C382.061 538.054 392.303 547.582 404.553 550.435L398.068 523.124L411.69 514.316L427.808 516.061L434.293 543.386C443.98 535.312 448.817 522.197 445.713 509.123C441.347 490.704 422.846 479.306 404.415 483.682C385.983 488.045 374.578 506.547 378.957 524.953V524.966Z" fill="#DBDBDB"/>
<path d="M384.312 332.666L354.567 339.72L393.1 501.985L422.845 494.931L384.312 332.666Z" fill="#DBDBDB"/>
<path d="M386.895 382.469L374.652 385.373L390.52 452.195L402.763 449.292L386.895 382.469Z" fill="#C7C7C7"/>
<path d="M392.275 449.017C395.116 443.741 387.258 443.408 387.258 443.408C387.258 443.408 398.677 441.151 399.495 434.573C400.271 428.23 390.764 428.174 390.085 428.16C390.681 428.036 401.13 425.695 401.269 418.992C401.421 412.04 391.873 413.619 391.249 413.716C391.776 413.425 398.747 409.381 397.707 404.271C395.906 395.49 375.021 405.351 368.147 402.997L363.837 390.186C363.255 392.734 362.964 395.31 359.541 399.451C356.34 403.315 354.178 405.877 353.499 408.952C352.39 413.993 356.465 416.209 356.465 416.209C356.465 416.209 350.519 418.494 350.242 423.756C350.104 426.457 354.317 429.088 354.317 429.088C354.317 429.088 349.633 431.11 349.674 435.819C349.702 439.572 353.915 441.622 353.915 441.622C353.915 441.622 350.325 445.652 351.587 449.474C354.123 457.188 386.149 460.304 392.247 449.003L392.275 449.017Z" fill="#F9B769"/>
<path d="M366.72 400.227L363.907 390.477C363.727 390.145 363.533 389.798 363.339 389.48C356.534 378.428 340.029 376.323 342.413 385.325C344.214 392.18 355.675 395.878 356.506 403.163H356.52L366.72 400.227Z" fill="#F9B769"/>
<path d="M354.552 442.051C354.441 442.037 354.4 442.176 354.511 442.217C364.793 445.804 377.197 446.608 387.687 443.478C388.034 443.381 388.02 442.771 387.618 442.813C376.171 443.976 365.93 444.101 354.552 442.065V442.051Z" fill="#313131"/>
<path d="M354.164 429.158C354.04 429.13 353.998 429.338 354.123 429.379C364.738 433.021 378.735 433.534 390.404 428.507C390.806 428.34 390.986 427.773 390.515 427.939C382.491 430.709 364.392 431.041 354.15 429.158H354.164Z" fill="#313131"/>
<path d="M391.956 413.093C380.578 417.497 368.923 417.801 356.908 416.403C356.756 416.389 356.742 416.61 356.866 416.652C362.548 418.937 370.309 419.034 376.337 418.591C382.116 418.175 387.244 416.638 392.094 413.48C392.288 413.356 392.178 412.996 391.942 413.079L391.956 413.093Z" fill="#313131"/>
<path d="M110.867 576.624C114.886 578.161 231.518 580.28 236.077 577.676C236.576 577.386 236.437 572.234 238.156 558.938C238.239 558.301 240.9 555.836 245.057 552.36C260.662 539.286 297.303 511.754 297.303 511.754L239.098 461.219L182.695 516.629L168.019 531.032C168.019 531.032 120.36 556.75 115.648 560.143C110.964 563.55 106.848 575.1 110.867 576.638V576.624Z" fill="#F9B769"/>
<path d="M110.867 576.61C114.886 578.161 231.518 580.28 236.077 577.676C236.576 577.386 236.438 572.247 238.156 558.925C238.239 558.288 240.9 555.836 245.058 552.332C250.476 547.79 253.054 545.713 261.133 539.439L187.13 512.253L182.695 516.615L168.033 531.019C168.033 531.019 120.374 556.723 115.662 560.129C110.978 563.536 106.848 575.073 110.867 576.61Z" fill="#EBEBEB"/>
<path d="M102.829 578.23C106.876 579.643 231.144 581 235.62 578.244C236.673 577.593 237.629 570.392 238.406 560.503C238.503 559.271 251.086 549.203 252.818 547.347L176.667 521.712L167.049 530.755C167.049 530.755 111.006 556.82 106.432 560.365C101.873 563.91 98.7825 576.818 102.829 578.23Z" fill="#FFC422"/>
<path d="M104.548 573.591C124.074 573.342 210.675 574.173 229.994 575.405C230.146 575.405 230.146 575.516 229.994 575.53C210.647 576.195 124.06 574.74 104.548 573.909C104.132 573.896 104.146 573.591 104.548 573.591Z" fill="#313131"/>
<path d="M160.841 531.586C168.532 530.243 177.914 531.531 183.721 537.071C183.942 537.292 183.638 537.597 183.388 537.514C175.835 535.035 168.781 533.428 160.854 532.556C160.3 532.5 160.286 531.683 160.841 531.586Z" fill="#313131"/>
<path d="M155.256 534.855C162.947 533.512 172.329 534.8 178.136 540.339C178.357 540.561 178.053 540.865 177.803 540.782C170.25 538.303 163.196 536.697 155.269 535.824C154.715 535.769 154.701 534.952 155.256 534.855Z" fill="#313131"/>
<path d="M149.671 538.123C157.362 536.78 166.744 538.068 172.551 543.607C172.772 543.829 172.468 544.134 172.218 544.051C164.665 541.572 157.611 539.965 149.684 539.093C149.13 539.037 149.116 538.22 149.671 538.123Z" fill="#313131"/>
<path d="M144.086 541.405C151.777 540.062 161.159 541.35 166.966 546.89C167.188 547.111 166.883 547.416 166.633 547.333C159.08 544.854 152.026 543.247 144.1 542.375C143.545 542.32 143.531 541.502 144.086 541.405Z" fill="#313131"/>
<path d="M150.169 524.634C155.546 528.914 162.6 530.728 168.92 533.151C169.571 533.401 170.112 532.791 170.139 532.21C170.264 532.182 170.375 532.099 170.319 531.933C168.296 525.493 163.834 518.637 158.692 514.206C155.519 511.477 149.92 509.539 146.857 513.666C143.961 517.557 147.024 522.141 150.169 524.634ZM148.285 518.444C147.024 510.009 156.031 514.538 158.29 516.643C159.746 518 161.062 519.552 162.309 521.089C164.929 524.302 167.049 527.833 169.322 531.296C166.287 529.911 163.169 528.803 160.092 527.542C156.419 526.033 148.978 523.111 148.285 518.457V518.444Z" fill="#313131"/>
<path d="M196.096 520.535C194.295 515.729 188.377 516.034 184.566 517.779C178.399 520.604 172.204 525.95 168.476 531.573C168.379 531.711 168.463 531.836 168.573 531.891C168.435 532.459 168.781 533.193 169.474 533.138C176.209 532.57 183.485 532.791 189.846 530.16C193.56 528.623 197.787 525.091 196.082 520.535H196.096ZM179.522 530.174C176.209 530.534 172.911 530.728 169.613 531.213C172.759 528.526 175.78 525.728 179.189 523.36C180.824 522.238 182.515 521.103 184.289 520.202C187.047 518.804 196.941 516.948 193.394 524.717C191.44 528.997 183.471 529.731 179.522 530.16V530.174Z" fill="#313131"/>
<path d="M181.891 513.513L253.844 550.767C253.844 550.767 328.79 482.962 335.663 482.463C342.329 481.979 443.371 550.338 494.134 550.546C546.712 550.767 549.373 495.717 549.373 495.717L472.667 478.115C417.372 450.887 359.791 401.972 322.124 406.542C281.214 411.5 181.891 513.513 181.891 513.513Z" fill="#37474F"/>
<path d="M181.891 513.513L253.844 550.767C253.844 550.767 328.79 482.962 335.663 482.463C342.329 481.979 443.371 550.338 494.134 550.546C546.712 550.767 549.373 495.717 549.373 495.717L472.667 478.115C417.372 450.887 359.791 401.972 322.124 406.542C281.214 411.5 181.891 513.513 181.891 513.513Z" fill="#37474F"/>
<path d="M199.463 504.026C211.603 510.023 208.208 508.14 220.279 514.275C226.196 517.28 255.936 532.279 260.995 535.99C261.105 536.073 260.995 536.267 260.87 536.226C254.925 534.232 225.503 518.596 219.655 515.494C207.681 509.151 211.188 510.84 199.297 504.373C199.075 504.248 199.242 503.93 199.463 504.04V504.026Z" fill="#313131"/>
<path d="M266.579 533.594C280.646 521.199 326.739 480.857 328.596 479.347C330.106 478.142 331.617 476.564 333.391 475.746C334.901 475.054 336.384 475.428 337.825 476.107C339.959 477.104 342.038 478.184 344.159 479.223C348.316 481.245 352.474 483.28 356.631 485.302C372.748 493.169 388.782 501.229 405.024 508.832C420.643 516.145 431.799 523.028 448.11 528.65C464.338 534.245 481.107 538.497 498.153 540.574C500.259 540.824 502.366 541.045 504.472 541.253C504.624 541.267 504.624 541.502 504.472 541.488C487.717 540.671 471.226 537.251 455.219 532.334C439.061 527.362 428.085 520.922 412.743 513.859C396.834 506.547 381.16 498.722 365.473 490.925C357.199 486.812 348.94 482.657 340.625 478.599C338.74 477.672 336.065 475.677 333.917 476.674C332.989 477.104 332.213 477.852 331.437 478.503C330.522 479.264 329.593 480.026 328.679 480.801C325.117 483.765 268.63 532.39 266.773 533.788C266.635 533.899 266.441 533.705 266.579 533.594Z" fill="#313131"/>
<path d="M221.595 534.093L316.844 495.911C292.508 515.798 253.83 550.781 253.83 550.781L221.595 534.093Z" fill="#313131"/>
<path d="M549.36 495.731C549.36 495.731 546.699 550.781 494.12 550.56C449.995 550.38 367.857 498.695 342.773 485.51L426.422 451.968C441.694 461.288 457.271 470.539 472.667 478.129L549.36 495.731Z" fill="#313131"/>
<path d="M549.359 495.731C549.359 495.731 557.023 551.764 531.316 570.17C505.608 588.589 323.662 578.202 296.444 568.051C269.213 557.913 270.321 513.333 300.976 504.345C330.134 495.8 452.531 496.423 455.594 495.343C456.356 495.08 445.075 487.615 445.144 487.2L469.757 473.212L549.373 495.717L549.359 495.731Z" fill="#37474F"/>
<path d="M512.967 498.805C513.009 498.597 513.342 498.68 513.328 498.874C513.051 504.483 514.88 510.48 518.372 514.898C522.391 519.967 528.503 522.972 534.032 526.074C534.559 526.379 534.115 527.21 533.561 527.016C530.166 525.825 526.84 524.177 523.777 522.279C520.992 520.548 518.442 518.416 516.543 515.715C513.065 510.729 511.706 504.774 512.967 498.805Z" fill="#313131"/>
<path d="M457.825 490.205C459.155 488.654 460.597 487.186 461.982 485.676C465.253 482.117 468.551 478.53 471.96 475.109C472.279 474.791 472.861 475.289 472.57 475.649C470.242 478.419 467.803 481.092 465.392 483.793C464.158 485.177 462.911 486.549 461.664 487.92C460.5 489.194 459.072 490.454 458.185 491.95C457.257 493.501 458.324 494.913 459.959 495.163C461.428 495.384 462.828 494.692 463.992 493.875C466.653 492.019 468.801 489.291 471.046 486.978C472.418 485.565 473.79 484.153 475.189 482.754C476.672 481.272 478.252 479.873 479.721 478.391C479.818 478.294 479.984 478.447 479.901 478.544C478.599 480.178 477.379 481.895 476.062 483.529C474.76 485.164 473.429 486.784 472.085 488.39C470.81 489.914 469.494 491.396 468.136 492.85C466.985 494.082 465.696 495.274 464.186 496.077C461.761 497.365 457.645 497.476 456.522 494.373C455.968 492.836 456.813 491.34 457.797 490.205H457.825Z" fill="#313131"/>
<path d="M300.214 568.383C309.721 568.979 319.2 569.948 328.693 570.572C338.117 571.195 347.554 571.666 356.992 571.984C375.95 572.635 394.922 572.76 413.894 572.289C433.06 571.818 453.751 570.821 472.848 569.034C481.98 568.176 491.238 567.539 500.301 566.001C508.477 564.616 515.961 561.583 522.294 555.975C535.113 544.604 540.67 527.293 543.373 510.646C543.733 508.416 544.052 506.173 544.329 503.929C544.343 503.777 544.578 503.791 544.565 503.943C542.694 521.061 539.243 538.829 527.824 552.138C522.89 557.9 516.723 562.525 509.628 565.018C500.98 568.051 491.515 568.425 482.479 569.242C463.313 570.987 442.539 572.067 423.304 572.704C403.958 573.341 384.584 573.424 365.224 572.857C345.877 572.289 326.531 571.167 307.254 569.367C304.898 569.145 302.556 568.91 300.214 568.591C300.075 568.577 300.089 568.369 300.228 568.369L300.214 568.383Z" fill="#313131"/>
<path d="M363.408 498.029C369.437 497.42 375.451 496.825 381.493 496.465C387.605 496.104 393.717 495.827 399.828 495.578C411.913 495.093 424.025 494.706 436.137 494.678C443.011 494.664 449.871 494.927 456.73 495.315C456.952 495.315 456.924 495.647 456.703 495.647C444.577 496.201 432.464 496.437 420.338 496.7C408.24 496.963 396.142 497.489 384.043 498.113C377.183 498.459 370.324 498.667 363.464 498.916C362.965 498.93 362.896 498.071 363.408 498.029Z" fill="#313131"/>
<path d="M443.745 486.535C448.512 488.75 452.947 491.576 457.271 494.567C461.539 497.517 465.891 500.578 469.702 504.095C469.813 504.192 469.646 504.331 469.549 504.275C464.948 501.893 460.541 498.971 456.176 496.174C451.797 493.362 447.445 490.495 443.426 487.172C443.149 486.936 443.343 486.355 443.745 486.548V486.535Z" fill="#313131"/>
<path d="M445.935 490.565L552.935 502.918C552.935 500.716 531.663 393.122 504.015 376.406C498.707 373.193 489.187 373.387 480.692 381.143C465.281 395.227 444.535 489.125 445.921 490.565H445.935Z" fill="#21DD5E"/>
<path d="M513.869 386.308C512.206 387.084 510.57 387.97 509.129 389.217C511.097 388.967 512.899 388.33 514.645 387.583L514.728 387.541C514.437 387.112 514.16 386.71 513.869 386.308ZM494.827 460.208C493.095 461.011 491.418 461.911 489.921 463.213C491.889 462.977 493.691 462.326 495.437 461.579C497.156 460.775 498.846 459.875 500.357 458.573C498.375 458.809 496.587 459.46 494.827 460.208ZM542.264 457.078C541.876 457.355 541.475 457.659 541.1 457.992C541.558 457.936 542.001 457.853 542.445 457.756C542.389 457.535 542.334 457.299 542.264 457.078ZM450.882 464.805C450.882 464.805 450.869 464.805 450.869 464.778C450.688 465.567 450.508 466.329 450.328 467.091C450.938 468.226 451.645 469.32 452.518 470.317C452.282 468.351 451.631 466.55 450.882 464.805ZM515.656 431.637C514.853 429.906 513.952 428.23 512.663 426.72C512.899 428.701 513.55 430.487 514.298 432.246C515.102 433.963 515.989 435.653 517.292 437.149C517.056 435.182 516.405 433.382 515.656 431.637ZM489.7 375.645C489.603 375.672 489.52 375.7 489.436 375.741C489.547 375.88 489.658 376.018 489.783 376.157C489.783 375.991 489.741 375.811 489.7 375.645ZM472.917 439.281C471.143 438.603 469.314 438.063 467.318 437.91C468.898 439.143 470.617 439.96 472.391 440.666C474.178 441.317 475.994 441.871 477.989 442.01C476.41 440.791 474.691 439.988 472.917 439.281ZM550.843 492.13C550.427 491.95 550.011 491.77 549.596 491.604C547.808 490.953 545.992 490.385 544.011 490.246C545.563 491.479 547.295 492.282 549.069 492.988C549.762 493.252 550.469 493.487 551.175 493.695C551.078 493.196 550.968 492.67 550.843 492.13ZM518.788 477.561C518.123 479.347 517.569 481.175 517.43 483.156C518.65 481.591 519.467 479.859 520.174 478.101C520.839 476.314 521.38 474.5 521.532 472.506C520.299 474.084 519.495 475.802 518.788 477.561ZM475.148 485.524C474.483 487.31 473.929 489.125 473.79 491.119C475.024 489.54 475.827 487.823 476.534 486.05C477.186 484.263 477.754 482.435 477.879 480.455C476.673 482.02 475.855 483.737 475.148 485.524ZM486.776 408.592C486.11 410.378 485.556 412.206 485.431 414.201C486.637 412.622 487.455 410.891 488.175 409.132C488.827 407.345 489.381 405.517 489.52 403.537C488.286 405.116 487.496 406.833 486.776 408.592Z" fill="white"/>
<path d="M515.739 384.134C535.626 399.423 588.024 461.205 577.062 475.871C566.031 490.634 491.029 485.648 469.133 479.347C462.62 477.477 479.333 436.041 486.29 433.991C492.083 432.288 524.581 441.096 525.163 439.212C525.828 437.079 518.621 423.383 507.008 398.357C493.621 369.495 506.939 377.389 515.725 384.134H515.739Z" fill="#F9B769"/>
<path d="M454.277 426.803C439.255 427.191 435.457 429.587 422.611 423.189C414.185 418.992 407.879 422.566 413.603 430.501C422.971 443.492 442.456 447.065 449.565 446.358L454.277 426.803Z" fill="#F9B769"/>
<path d="M495.603 434.476C495.603 434.476 477.587 428.05 461.553 426.873C450.452 426.055 426.117 426.983 407.2 454.266C402.71 460.734 400.909 473.129 412.078 465.221C420.005 459.598 423.345 453.643 428.556 451.219C428.556 451.219 428.14 467.257 434.792 471.495C437.772 473.392 446.018 478.364 452.988 481.327C452.988 481.327 454.042 479.984 455.136 478.087C455.136 478.087 461.733 481.452 472.626 478.572L495.603 434.448V434.476Z" fill="#F9B769"/>
<path d="M450.841 427.801C446.184 431.304 436.428 438.894 430.607 447.868C424.149 457.839 414.379 478.793 421.807 483.488C427.24 486.923 431.674 479.25 431.674 479.25C431.674 479.25 429.471 488.765 435.056 490.8C440.156 492.656 443.218 486.507 443.218 486.507C443.218 486.507 442.872 492.504 448.124 493.349C454.444 494.36 454.139 481.618 461.414 477.117C463.05 476.106 450.827 427.801 450.827 427.801H450.841Z" fill="#F9B769"/>
<path d="M442.29 452.937C438.451 456.953 432.063 468.296 431.55 479.042C431.55 479.292 431.716 479.43 431.772 479.209C434.848 467.492 439.948 457.23 442.387 453.006C442.415 452.951 442.332 452.895 442.29 452.951V452.937Z" fill="#313131"/>
<path d="M452.171 459.751C449.205 463.559 443.149 475.539 443.011 486.452C443.011 486.701 443.191 486.826 443.246 486.604C445.949 474.237 450.106 464.182 452.268 459.82C452.296 459.764 452.213 459.709 452.171 459.764V459.751Z" fill="#313131"/>
<path d="M428.542 451.136C423.997 453.338 421.267 456.191 417.691 459.667C415.917 461.385 414.13 463.074 412.176 464.584C410.402 465.955 407.796 468.032 405.44 466.717C404.138 465.996 403.874 464.321 403.916 462.963C403.958 461.44 404.969 458.462 405.648 457.091C405.676 457.022 405.565 456.953 405.524 457.036C404.9 458.269 403.708 460.997 403.445 462.354C403.209 463.587 403.098 464.985 403.625 466.163C404.761 468.683 407.935 468.517 410.014 467.423C411.261 466.772 412.397 465.872 413.478 464.985C414.532 464.127 415.529 463.227 416.513 462.285C418.537 460.374 420.435 458.352 422.445 456.413C424.634 454.294 426.214 453.158 428.626 451.302C428.709 451.233 428.626 451.109 428.529 451.15L428.542 451.136Z" fill="#313131"/>
<path d="M421.308 469.611C422.098 466.675 426.921 454.225 428.653 451.233C428.695 451.15 428.598 451.081 428.542 451.15C425.396 455.305 420.962 465.678 420.061 468.905C419.174 472.104 418.218 476.162 418.758 479.472C419.59 484.471 423.054 484.859 424.329 484.901C425.84 484.956 427.267 484.402 428.473 483.502C429.803 482.505 430.967 480.704 431.73 479.236C431.771 479.153 431.66 479.084 431.619 479.153C430.219 481.411 427.655 483.82 424.884 483.917C423.678 483.959 422.403 483.613 421.516 482.768C420.477 481.757 420.158 480.261 420.047 478.876C419.798 475.732 420.504 472.603 421.322 469.583L421.308 469.611Z" fill="#313131"/>
<path d="M495.603 434.476L480.525 486.936C480.525 486.936 574.388 492.282 579.599 475.248C584.796 458.213 539.451 402.415 520.645 387.084C498.846 369.329 497.668 376.78 504.778 394.549C512.206 413.148 524.997 439.697 524.997 439.697L495.617 434.462L495.603 434.476Z" fill="#21DD5E"/>
<path d="M518.788 477.56C518.123 479.347 517.568 481.175 517.43 483.156C518.649 481.591 519.467 479.859 520.174 478.101C520.839 476.314 521.379 474.5 521.532 472.506C520.298 474.084 519.495 475.802 518.788 477.56ZM541.28 419.546C539.492 418.895 537.649 418.341 535.681 418.203C537.247 419.436 538.966 420.239 540.74 420.945C542.527 421.596 544.343 422.164 546.338 422.302C544.772 421.07 543.04 420.266 541.28 419.546ZM576.716 471.744C575.926 470.013 575.025 468.323 573.709 466.841C573.958 468.794 574.609 470.594 575.344 472.339C576.148 474.07 577.048 475.76 578.351 477.256C578.115 475.275 577.464 473.503 576.716 471.744ZM546.006 455C544.717 455.596 543.456 456.247 542.264 457.078C541.876 457.355 541.474 457.659 541.1 457.992C541.557 457.936 542.001 457.853 542.444 457.756C543.899 457.451 545.271 456.925 546.615 456.357C548.348 455.554 550.025 454.668 551.535 453.366C549.553 453.588 547.766 454.252 546.006 455ZM494.827 460.207C493.094 461.011 491.418 461.911 489.921 463.213C491.889 462.977 493.69 462.326 495.437 461.579C497.155 460.775 498.846 459.875 500.356 458.573C498.374 458.809 496.587 459.46 494.827 460.207ZM517.873 384.896C516.543 385.214 515.282 385.699 514.034 386.225L513.868 386.308C512.205 387.084 510.57 387.97 509.129 389.217C511.096 388.967 512.898 388.33 514.644 387.582L514.727 387.541C516.044 386.932 517.319 386.267 518.525 385.408C518.303 385.228 518.081 385.062 517.873 384.896Z" fill="white"/>
<path d="M554.639 448.117C549.983 445.874 545.091 444.087 540.157 442.55C535.265 441.026 530.235 440.029 525.19 439.24C522.308 438.783 519.412 438.478 516.501 438.146C516.418 438.146 516.404 438.27 516.501 438.284C521.587 439.004 526.632 440.154 531.593 441.456C536.54 442.744 541.446 444.115 546.338 445.583C549.11 446.414 551.84 447.383 554.57 448.297C554.695 448.339 554.764 448.159 554.639 448.103V448.117Z" fill="#313131"/>
<path d="M495.825 434.296C496.296 434.337 522.405 438.409 523.278 438.658C523.112 438.298 516.501 425.889 515.517 424.075C515.42 423.895 515.337 423.715 515.24 423.535C514.644 422.745 514.048 421.97 513.48 421.167C512.76 420.128 512.053 419.089 511.332 418.051C511.304 418.023 511.36 417.981 511.374 418.009C512.136 419.006 512.898 420.017 513.646 421.028C513.993 421.499 514.326 421.97 514.658 422.455C513.993 421.167 513.355 419.865 512.704 418.577C511.679 416.499 510.722 414.408 509.766 412.289C509.738 412.22 509.835 412.178 509.877 412.248C511.831 415.862 513.882 419.422 515.85 423.036C517.804 426.637 525.232 439.918 525.19 439.918C525.149 439.96 496.337 434.808 495.783 434.683C495.561 434.628 495.589 434.309 495.825 434.323V434.296Z" fill="#313131"/>
<path d="M499.414 466.301C501.063 460.457 502.671 454.585 504.528 448.796C505.581 445.513 506.634 442.203 507.715 438.935C507.757 438.81 507.978 438.866 507.937 438.99C506.509 444.932 505.082 450.873 503.377 456.745C501.687 462.589 500.051 468.448 498.291 474.264C497.294 477.574 496.199 480.843 494.993 484.083C494.965 484.153 494.855 484.125 494.868 484.056C496.088 478.073 497.723 472.187 499.386 466.301H499.414Z" fill="#313131"/>
<path d="M479.486 487.906C480.151 486.258 480.927 483.917 481.662 482.297C481.856 481.868 482.16 481.895 482.022 482.338C481.565 483.806 481.246 485.441 480.788 486.936C482.105 486.978 483.408 486.992 484.724 487.047C486.249 487.116 487.759 487.186 489.284 487.241C492.263 487.352 495.229 487.449 498.208 487.504C504.237 487.615 510.265 487.601 516.28 487.463C528.35 487.172 540.449 486.452 552.436 484.914C555.79 484.485 559.13 483.986 562.456 483.391C565.837 482.782 569.482 482.103 572.226 481.286C572.309 481.258 572.351 481.41 572.267 481.438C569.468 482.518 566.821 483.336 563.883 483.959C560.89 484.61 557.883 485.177 554.848 485.634C548.819 486.562 542.749 487.172 536.665 487.601C524.609 488.474 512.51 488.82 500.412 488.695C497.03 488.654 493.635 488.584 490.254 488.46C488.549 488.404 486.831 488.349 485.126 488.252C483.422 488.155 479.361 488.155 479.472 487.878L479.486 487.906Z" fill="#313131"/>
<path d="M485.667 397.762C491.792 399.188 502.269 389.798 506.399 382.209C506.676 381.683 505.858 376.212 505.179 369.509C504.791 365.438 504.445 360.909 504.431 356.74C504.431 355.882 478.322 363.18 478.322 363.18C478.322 363.18 480.927 371.905 480.899 379.162C480.899 379.772 480.83 380.339 480.719 380.866C480.719 380.949 480.692 381.046 480.678 381.143C480.165 384.383 479.721 396.377 485.653 397.762H485.667Z" fill="#F9B769"/>
<path d="M502.837 356.851C501.645 363.901 497.322 380.921 483.38 381.281C482.41 381.309 481.523 381.267 480.705 381.143C480.705 381.032 480.733 380.935 480.733 380.852C480.83 380.312 480.899 379.758 480.913 379.148C480.927 371.878 478.322 363.167 478.322 363.167C478.322 363.167 497.155 357.904 502.823 356.851H502.837Z" fill="#313131"/>
<path d="M512.621 329.541C513.91 339.083 504.791 364.538 497.363 369.329C486.581 376.268 471.074 374.564 465.711 362.114C460.5 350.051 472.973 317.076 481.066 312.949C492.998 306.87 510.723 315.442 512.621 329.541Z" fill="#F9B769"/>
<path d="M505.928 348.68C501.77 347.919 502.962 338.307 502.962 338.307C502.962 338.307 492.069 339.166 494.633 325.303C494.633 325.303 481.703 326.909 474.996 321.356C469.258 316.606 468.011 305.028 474.012 299.488C477.393 296.372 485.5 294.502 494.536 307.479C494.536 307.479 511.014 300.374 512.954 318.932C512.954 318.932 520.271 321.328 519.717 328.807C518.844 340.592 509.489 349.345 505.9 348.68H505.928Z" fill="#313131"/>
<path d="M467.651 501.035H356.812V505.993H467.651V501.035Z" fill="#C7C7C7"/>
<path d="M356.812 501.035V505.993H432.159L428.362 501.035H356.812Z" fill="#A6A6A6"/>
<path d="M423.581 505.993H315.555L306.561 432.676H414.587L423.581 505.993Z" fill="#A6A6A6"/>
<path d="M418.606 505.993H310.58L301.586 432.676H409.612L418.606 505.993Z" fill="#C7C7C7"/>
<path d="M366.678 468.573C367.191 472.159 364.918 475.414 361.592 475.843C358.266 476.259 355.162 473.697 354.649 470.096C354.137 466.509 356.409 463.254 359.735 462.825C363.061 462.41 366.166 464.972 366.678 468.573Z" fill="white"/>
</g>
<path d="M488.891 341.755C488.523 340.653 489.035 339.491 490.033 339.158C491.031 338.825 492.138 339.449 492.506 340.55C492.873 341.651 492.362 342.814 491.363 343.146C490.365 343.479 489.258 342.856 488.891 341.755Z" fill="#313131"/>
<path d="M472.665 338.976C472.298 337.875 472.809 336.713 473.807 336.38C474.806 336.047 475.913 336.67 476.28 337.772C476.648 338.873 476.136 340.035 475.138 340.368C474.139 340.701 473.032 340.078 472.665 338.976Z" fill="#313131"/>
<path d="M491.008 336.342C491.058 336.613 491.331 336.725 491.569 336.704C491.569 336.704 491.575 336.708 491.588 336.699C491.588 336.699 491.588 336.699 491.603 336.7C491.634 336.702 491.663 336.695 491.694 336.697C491.753 336.692 491.815 336.696 491.877 336.7C492.001 336.708 492.121 336.723 492.242 336.737C492.242 336.737 492.242 336.737 492.248 336.741C492.275 336.749 492.306 336.751 492.34 336.762C492.398 336.773 492.459 336.792 492.514 336.808C492.63 336.844 492.742 336.886 492.861 336.931C492.891 336.949 492.924 336.961 492.951 336.969C492.957 336.972 492.969 336.979 492.975 336.983C493.029 337.014 493.083 337.046 493.131 337.074C493.239 337.137 493.337 337.203 493.438 337.279C493.462 337.293 493.488 337.316 493.509 337.336C493.509 337.336 493.521 337.343 493.527 337.347C493.568 337.387 493.614 337.431 493.655 337.471C493.743 337.554 493.824 337.65 493.895 337.748C494.055 337.955 494.38 337.937 494.559 337.784C494.763 337.614 494.746 337.314 494.594 337.12C493.826 336.138 492.582 335.664 491.36 335.784C491.097 335.807 490.961 336.121 490.998 336.345L491.008 336.342Z" fill="#313131"/>
<path d="M472.896 334.368C473.014 334.617 473.306 334.656 473.531 334.575C473.531 334.575 473.537 334.577 473.548 334.566C473.548 334.566 473.548 334.566 473.563 334.563C473.593 334.557 473.619 334.542 473.65 334.537C473.706 334.516 473.767 334.505 473.828 334.493C473.95 334.47 474.07 334.453 474.19 334.436C474.19 334.436 474.19 334.436 474.197 334.438C474.225 334.439 474.256 334.433 474.291 334.436C474.35 334.431 474.414 334.435 474.471 334.436C474.593 334.442 474.712 334.454 474.838 334.467C474.871 334.477 474.907 334.48 474.935 334.48C474.942 334.482 474.955 334.486 474.962 334.488C475.022 334.505 475.082 334.522 475.136 334.537C475.256 334.571 475.368 334.609 475.484 334.657C475.511 334.664 475.543 334.68 475.567 334.695C475.567 334.695 475.581 334.698 475.587 334.7C475.637 334.729 475.694 334.759 475.743 334.787C475.849 334.846 475.952 334.918 476.045 334.995C476.253 335.155 476.563 335.054 476.696 334.861C476.851 334.645 476.759 334.359 476.562 334.21C475.57 333.455 474.247 333.313 473.095 333.738C472.847 333.827 472.795 334.166 472.888 334.373L472.896 334.368Z" fill="#313131"/>
<path d="M484.91 360.566C485.873 360.162 486.509 359.559 486.812 358.78C487.317 357.472 486.649 356.157 486.618 356.098C486.54 355.944 486.346 355.878 486.183 355.944L480.198 358.398C480.112 358.435 480.05 358.501 480.019 358.582C479.988 358.663 479.996 358.751 480.035 358.832C480.05 358.854 481.137 360.918 483.303 360.918C483.784 360.918 484.32 360.816 484.91 360.566ZM486.137 356.657C486.276 357.054 486.47 357.825 486.183 358.567C485.95 359.177 485.43 359.655 484.638 359.993C482.519 360.889 481.254 359.486 480.811 358.846L486.137 356.664V356.657Z" fill="#313131"/>
<path d="M478.347 352.918C478.386 352.918 478.419 352.918 478.458 352.897L482.761 351.373C482.944 351.31 483.042 351.1 482.983 350.905C482.924 350.709 482.728 350.604 482.545 350.667L478.732 352.016L479.294 344.318C479.307 344.115 479.169 343.933 478.974 343.919C478.784 343.905 478.621 344.059 478.601 344.262L478.001 352.513C477.994 352.639 478.04 352.758 478.131 352.835C478.19 352.883 478.268 352.911 478.347 352.911V352.918Z" fill="#313131"/>
<path d="M511.634 355.193C510.167 358.309 507.754 359.969 504.833 358.977L504.635 359.276L503.462 359.424L503.187 357.043C503.187 357.043 505.265 357.686 503.223 354.999C501.18 352.32 503.615 356.586 504.327 351.464L502.537 347.175C506.632 347.981 499.481 347.32 503.743 347.083C507.497 346.874 505.224 348.939 505.224 348.939C505.188 349.412 505.408 348.861 505.514 349.386C506.088 352.207 503.687 347.356 503.687 347.356L503.677 347.408C503.677 347.408 503.694 347.396 503.702 347.398C503.728 347.38 503.755 347.362 503.765 347.348C504.941 346.481 506.354 346.018 507.751 346.079C508.491 346.114 509.223 346.295 509.918 346.623C512.957 348.088 513.213 351.867 511.638 355.209L511.634 355.193Z" fill="#F9B769"/>
<path d="M506.978 355.767C506.935 355.753 506.889 355.727 506.861 355.682C506.255 354.926 506.178 353.721 506.686 352.821C507.158 351.98 508.1 351.466 508.984 351.554C509.277 351.09 509.405 350.556 509.339 350.089C509.259 349.535 508.877 349.084 508.422 348.998C507.957 348.908 507.426 349.243 507.306 349.704C507.266 349.861 507.117 349.96 506.967 349.924C506.821 349.895 506.738 349.734 506.78 349.571C506.979 348.795 507.786 348.267 508.544 348.415C509.221 348.543 509.764 349.18 509.879 349.962C509.982 350.646 509.773 351.401 509.313 352.035C509.247 352.125 509.142 352.168 509.041 352.148C508.334 352.01 507.537 352.407 507.151 353.093C506.766 353.78 506.822 354.696 507.285 355.278C507.381 355.397 507.364 355.585 507.248 355.695C507.172 355.764 507.074 355.786 506.987 355.758L506.978 355.767Z" fill="#313131"/>
<defs>
<clipPath id="clip0_906_3415">
<rect width="580" height="581" fill="white"/>
</clipPath>
</defs>
</svg>
