<svg width="20" height="16" viewBox="0 0 20 16" fill="none" xmlns="http://www.w3.org/2000/svg">
<path fill-rule="evenodd" clip-rule="evenodd" d="M19.3242 2.07091C18.6417 2.37336 17.9093 2.57848 17.1397 2.67006C17.9255 2.19954 18.5269 1.45324 18.812 0.566695C18.075 1.00242 17.2614 1.31882 16.3946 1.49033C15.7004 0.749817 14.7131 0.288574 13.6179 0.288574C11.5169 0.288574 9.81332 1.99212 9.81332 4.092C9.81332 4.38982 9.84693 4.6807 9.91184 4.95885C6.75044 4.80006 3.94714 3.28542 2.07093 0.983877C1.74296 1.54479 1.55638 2.19836 1.55638 2.89603C1.55638 4.216 2.22854 5.38067 3.24835 6.06206C2.62487 6.04121 2.03848 5.8697 1.52511 5.5846V5.63212C1.52511 7.47473 2.83696 9.01254 4.57641 9.36254C4.25772 9.4483 3.92166 9.49582 3.57399 9.49582C3.32832 9.49582 3.09075 9.47148 2.85781 9.42512C3.3422 10.9375 4.74678 12.0372 6.41093 12.0674C5.10951 13.0872 3.46854 13.6933 1.6862 13.6933C1.37911 13.6933 1.07663 13.6747 0.778809 13.6411C2.46266 14.7224 4.46172 15.3528 6.61026 15.3528C13.6087 15.3528 17.4341 9.55609 17.4341 4.52891L17.4214 4.03639C18.1688 3.50327 18.8155 2.83345 19.3242 2.07091Z" fill="#BBC3CF"/>
</svg>
