<svg width="240" height="16" viewBox="0 0 240 16" fill="none" xmlns="http://www.w3.org/2000/svg">
<g clip-path="url(#clip0_778_3806)">
<path d="M234.278 10.6629C234.252 10.6565 233.98 10.5824 233.909 10.5633C233.763 10.5253 233.619 10.4872 233.473 10.4492C233.021 10.333 232.57 10.2191 232.119 10.1074C231.213 9.88402 230.306 9.6696 229.393 9.46415C227.568 9.05104 225.73 8.67597 223.889 8.32994C223.906 8.33414 223.692 8.29484 223.571 8.27204C223.45 8.25147 223.236 8.21217 223.254 8.21637C222.79 8.13603 222.327 8.0557 221.861 7.97762C220.863 7.81126 219.863 7.65384 218.863 7.50534C216.987 7.22886 215.107 6.98142 213.221 6.76524C205.957 5.93224 198.315 5.56583 190.81 5.50719C175.178 5.38538 159.55 6.66282 144.032 8.25957C128.717 9.83339 113.456 11.812 98.1105 13.1322C82.9529 14.4342 67.6843 15.174 52.464 14.5272C37.4624 13.8907 22.4211 11.8665 8.21336 7.48419C6.54499 6.97081 4.89364 6.41708 3.25443 5.83198C2.72908 5.64556 0.19192 4.82585 1.14533 4.00796C2.03169 3.24673 4.8133 3.93598 5.70994 4.25529C7.34915 4.84038 9.00045 5.39188 10.6689 5.90749C11.4462 6.14604 12.2261 6.38011 13.0083 6.603C13.4296 6.72404 13.8535 6.84282 14.2773 6.95937C14.459 7.01027 14.6406 7.05895 14.8222 7.10763C14.9433 7.14157 14.9509 7.14369 14.9333 7.13948C14.9711 7.15009 15.0417 7.16691 15.1704 7.20074C16.8855 7.64439 18.6102 8.0567 20.3445 8.43545C21.1537 8.61116 21.9653 8.78239 22.7793 8.94466C23.2178 9.03204 23.6588 9.11938 24.0972 9.2023C24.2862 9.23751 24.4752 9.27494 24.6642 9.31014C24.7221 9.32046 25.0824 9.38667 25.1832 9.40529C32.2927 10.6616 39.0805 11.3855 46.2005 11.786C61.2151 12.6319 76.2938 11.9705 91.2664 10.7424C106.595 9.48482 121.832 7.52886 137.116 5.92205C152.756 4.27678 168.466 2.9692 184.222 2.91992C199.87 2.86994 215.6 4.05768 230.761 7.57308C232.763 8.03717 234.748 8.55275 236.726 9.08626C237.278 9.23664 239.766 10.1128 238.835 10.9103C237.899 11.7123 235.229 10.9212 234.27 10.663L234.278 10.6629Z" fill="#FFC422"/>
</g>
<defs>
<clipPath id="clip0_778_3806">
<rect width="238" height="12" fill="white" transform="matrix(-0.9999 0.0141571 0.0141571 0.9999 238.903 0.316406)"/>
</clipPath>
</defs>
</svg>
